<?xml version="1.0" standalone="no"?>
<!DOCTYPE svg PUBLIC "-//W3C//DTD SVG 1.1//EN" "http://www.w3.org/Graphics/SVG/1.1/DTD/svg11.dtd" >
<svg xmlns="http://www.w3.org/2000/svg" xmlns:xlink="http://www.w3.org/1999/xlink" version="1.1">
<metadata>
Created by FontForge 20170731 at Tue May 23 18:39:31 2017
 By Aleksey,,,
Copyright (c) 2017 by Ralf Sander and Petra Niedernolte. Published by Buntype. All rights reserved. You may only use this software, if you have purchased a legal license from Buntype or an authorized distributor! This font software may not be reproduced, modified, disclosed or transferred without the express written approval of Buntype, Germany. BundaySansYYY-Bold is a trademark of Ralf Sander and Petra Niedernolte and may be registered in certain jurisdictions in the name of Buntype. This typeface is original artwork of Ralf Sander and Petra Niedernolte. The design may be protected in certain jurisdictions.
</metadata>
<defs>
<font id="BundaySans-Bold" horiz-adv-x="529" >
  <font-face 
    font-family="BundaySans-Bold"
    font-weight="600"
    font-stretch="normal"
    units-per-em="1000"
    panose-1="2 0 6 0 0 0 0 0 0 0"
    ascent="800"
    descent="-200"
    x-height="503"
    cap-height="697"
    bbox="-281 -259 1211 951"
    underline-thickness="50"
    underline-position="-150"
    unicode-range="U+000D-FB06"
  />
<missing-glyph horiz-adv-x="765" 
d="M123 659v-621h519v621h-519zM80 0v697h605v-697h-605z" />
    <glyph glyph-name="f_f" unicode="ff" horiz-adv-x="656" 
d="M91 409h-68v94h68v73q0 92 38.5 123t113.5 31q61 0 111 -12l-16 -95q-5 0 -25 2t-30 2q-34 0 -47.5 -11t-13.5 -50v-63h164v73q0 92 38.5 123t113.5 31q77 0 141 -14l-17 -96q-54 7 -84 7q-34 0 -47 -11t-13 -50v-63h139l-15 -94h-124v-409h-132v409h-164v-409h-131v409z
" />
    <glyph glyph-name="fi" unicode="fi" horiz-adv-x="584" 
d="M222 503h299v-503h-132v409h-167v-409h-131v409h-68v94h68v73q0 93 39 123.5t119 30.5q50 0 114.5 -8t92.5 -15l-16 -96q-94 16 -157 16q-34 0 -47.5 -11t-13.5 -50v-63z" />
    <glyph glyph-name="fl" unicode="fl" horiz-adv-x="614" 
d="M222 503h104l-15 -94h-89v-409h-131v409h-68v94h68v73q0 93 40.5 123.5t126.5 30.5q125 0 263 -23v-562q0 -27 7.5 -35t24.5 -8q11 0 35 3l12 -100q-36 -12 -95 -12q-61 0 -88.5 30.5t-27.5 116.5v483q-76 6 -95 6q-43 0 -57.5 -10.5t-14.5 -48.5v-67z" />
    <glyph glyph-name="f_f_i" unicode="ffi" horiz-adv-x="882" 
d="M521 503h298v-503h-132v409h-166v-409h-132v409h-167v-409h-131v409h-68v94h68v73q0 92 38.5 123t113.5 31q61 0 111 -12l-16 -95q-5 0 -25 2t-30 2q-34 0 -47.5 -11t-13.5 -50v-63h167v73q0 93 39 123.5t119 30.5q50 0 114.5 -8t92.5 -15l-16 -96q-94 16 -157 16
q-34 0 -47 -11t-13 -50v-63z" />
    <glyph glyph-name="f_f_l" unicode="ffl" horiz-adv-x="912" 
d="M521 503h103l-15 -94h-88v-409h-132v409h-167v-409h-131v409h-68v94h68v73q0 92 38.5 123t113.5 31q61 0 111 -12l-16 -95q-5 0 -25 2t-30 2q-34 0 -47.5 -11t-13.5 -50v-63h167v73q0 93 40.5 123.5t126.5 30.5q125 0 263 -23v-562q0 -26 7.5 -34.5t24.5 -8.5q14 0 35 3
l12 -100q-36 -12 -95 -12q-61 0 -88.5 30.5t-27.5 116.5v483q-76 6 -95 6q-43 0 -57 -10t-14 -49v-67z" />
    <glyph glyph-name="f_b" unicode="fb" horiz-adv-x="840" 
d="M222 503h104l-15 -94h-89v-409h-131v409h-68v94h68v73q0 93 40.5 123.5t126.5 30.5q125 0 263 -23v-143q0 -82 -4 -102h3q61 50 134 50q74 0 110.5 -50.5t36.5 -182.5q0 -156 -45 -222t-158 -66q-115 0 -209 40v592q-76 6 -95 6q-43 0 -57.5 -10.5t-14.5 -48.5v-67z
M585 99q30 0 46.5 10.5t27 47.5t10.5 108q0 84 -14.5 111.5t-44.5 27.5q-47 0 -89 -44v-250q24 -11 64 -11z" />
    <glyph glyph-name="f_h" unicode="fh" horiz-adv-x="856" 
d="M222 503h104l-15 -94h-89v-409h-131v409h-68v94h68v73q0 93 40.5 123.5t126.5 30.5q125 0 263 -23v-148l-3 -97h3q59 50 143 50q58 0 93.5 -35t35.5 -113v-364h-132v340q0 64 -48 64q-47 0 -92 -43v-361h-132v623q-76 6 -95 6q-43 0 -57.5 -10.5t-14.5 -48.5v-67z" />
    <glyph glyph-name="f_j" unicode="fj" horiz-adv-x="584" 
d="M222 503h299v-484q0 -104 -33 -147.5t-108 -59.5q-38 -8 -87 -15l-19 100q6 1 29 6t36 9q33 10 41.5 34t8.5 77v386h-167v-409h-131v409h-68v94h68v73q0 93 39 123.5t119 30.5q50 0 114.5 -8t92.5 -15l-16 -96q-94 16 -157 16q-34 0 -47.5 -11t-13.5 -50v-63z" />
    <glyph glyph-name="f_f_j" unicode="ffj" horiz-adv-x="882" 
d="M521 503h298v-484q0 -104 -33 -147.5t-108 -59.5q-36 -7 -86 -15l-20 100q6 1 29 6t36 9q33 10 41.5 34t8.5 77v386h-166v-409h-132v409h-167v-409h-131v409h-68v94h68v73q0 92 38.5 123t113.5 31q61 0 111 -12l-16 -95q-5 0 -25 2t-30 2q-34 0 -47.5 -11t-13.5 -50v-63
h167v73q0 93 39 123.5t119 30.5q50 0 114.5 -8t92.5 -15l-16 -96q-94 16 -157 16q-34 0 -47 -11t-13 -50v-63z" />
    <glyph glyph-name="f_k" unicode="fk" horiz-adv-x="845" 
d="M222 503h104l-15 -94h-89v-409h-131v409h-68v94h68v73q0 93 40.5 123.5t126.5 30.5q125 0 263 -23v-379q32 0 55 -7l113 182h143l-149 -226q35 -30 63 -81l107 -196h-144l-79 149q-24 42 -44 56t-65 15v-220h-132v623q-76 6 -95 6q-43 0 -57.5 -10.5t-14.5 -48.5v-67z
" />
    <glyph glyph-name="f_t" unicode="ft" horiz-adv-x="671" 
d="M91 409h-68v94h68v73q0 92 38.5 123t113.5 31q61 0 111 -12l-16 -95q-5 0 -25 2t-30 2q-34 0 -47.5 -11t-13.5 -50v-63h168l10 130l121 12v-142h126l-15 -94h-111v-268q0 -26 9 -33.5t32 -7.5q9 0 69 10l17 -99q-46 -18 -119 -18q-77 0 -108.5 29.5t-31.5 117.5v269h-167
v-409h-131v409z" />
    <glyph glyph-name=".notdef" horiz-adv-x="765" 
d="M123 659v-621h519v621h-519zM80 0v697h605v-697h-605z" />
    <glyph glyph-name=".null" horiz-adv-x="500" 
 />
    <glyph glyph-name=".null" horiz-adv-x="500" 
 />
    <glyph glyph-name="nonmarkingreturn" horiz-adv-x="333" 
 />
    <glyph glyph-name="CR" unicode="&#xd;" horiz-adv-x="0" 
 />
    <glyph glyph-name="space" unicode=" " horiz-adv-x="224" 
 />
    <glyph glyph-name="exclam" unicode="!" horiz-adv-x="261" 
d="M64 202v495h133v-495h-133zM64 0v113h133v-113h-133z" />
    <glyph glyph-name="quotedbl" unicode="&#x22;" horiz-adv-x="419" 
d="M258 512l-9 210h109l-9 -210h-91zM70 512l-9 210h109l-9 -210h-91z" />
    <glyph glyph-name="numbersign" unicode="#" horiz-adv-x="776" 
d="M65 142l9 86h161l13 122h-161l9 84h161l17 160h85l-17 -160h128l17 160h85l-17 -160h153l-9 -84h-153l-13 -122h153l-8 -86h-154l-15 -146h-85l15 146h-127l-16 -146h-85l16 146h-162zM320 228h128l13 122h-128z" />
    <glyph glyph-name="dollar" unicode="$" horiz-adv-x="555" 
d="M70 31l19 105q119 -25 168 -25q57 0 79 19t22 66q0 35 -18 58.5t-65 43.5l-46 20q-79 34 -114.5 76t-35.5 121q0 157 160 177v96h76v-94q79 -4 147 -24l-22 -103q-73 17 -141 17q-90 0 -90 -69q0 -35 17.5 -53.5t58.5 -35.5l39 -17q86 -36 125 -80t39 -132
q0 -98 -40 -143t-133 -52v-93h-76v93q-99 6 -169 29z" />
    <glyph glyph-name="percent" unicode="%" horiz-adv-x="889" 
d="M29 480q0 127 32.5 176t116.5 49q83 0 113.5 -49t30.5 -177q0 -126 -32 -173.5t-116 -47.5t-114.5 47.5t-30.5 174.5zM176 338q28 0 36.5 28t8.5 114t-9 115t-36 29q-28 0 -37.5 -29.5t-9.5 -114.5t9.5 -113.5t37.5 -28.5zM566 215q0 127 33 176t117 49q83 0 113.5 -49
t30.5 -177q0 -126 -32 -173.5t-116 -47.5t-115 47.5t-31 174.5zM714 73q28 0 36.5 28t8.5 114t-9 115t-36 29q-28 0 -37.5 -29.5t-9.5 -114.5t9.5 -113.5t37.5 -28.5zM226 -22l344 740h93l-344 -740h-93z" />
    <glyph glyph-name="ampersand" unicode="&#x26;" horiz-adv-x="571" 
d="M498 456l30 -99l-64 -20q2 -6 13 -33.5t16 -41t10 -38.5t5 -49q0 -94 -61 -140t-169 -46q-229 0 -229 181q0 119 106 166v2q-81 43 -81 144q0 155 186 155q88 0 147 -22l-20 -97q-57 12 -102 12q-43 0 -62 -16t-19 -51q0 -31 18.5 -51.5t48.5 -22.5zM344 298
q-75 -21 -102 -33q-33 -16 -47.5 -37t-14.5 -54q0 -37 24.5 -57.5t74.5 -20.5q47 0 72.5 23t25.5 60q0 10 -1.5 21t-3 18.5t-6 21t-6.5 18t-8.5 21t-7.5 19.5z" />
    <glyph glyph-name="quotesingle" unicode="'" horiz-adv-x="231" 
d="M70 512l-9 210h109l-9 -210h-91z" />
    <glyph glyph-name="parenleft" unicode="(" horiz-adv-x="389" 
d="M329 -27h-141q-110 181 -110 381q0 186 111 370h139q-125 -193 -125 -369q0 -190 126 -382z" />
    <glyph glyph-name="parenright" unicode=")" horiz-adv-x="389" 
d="M201 -27h-141q126 192 126 382q0 176 -125 369h139q111 -184 111 -370q0 -200 -110 -381z" />
    <glyph glyph-name="asterisk" unicode="*" horiz-adv-x="498" 
d="M164 318l-66 46l89 116l-143 43l26 75l140 -46l-3 145h83l-2 -145l140 46l26 -75l-142 -43l91 -116l-69 -46l-85 118z" />
    <glyph glyph-name="plus" unicode="+" horiz-adv-x="515" 
d="M205 103v160h-157v101h157v160h104v-160h158v-101h-158v-160h-104z" />
    <glyph glyph-name="comma" unicode="," horiz-adv-x="263" 
d="M141 -106h-111q52 94 52 226h118q0 -77 -19.5 -136.5t-39.5 -89.5z" />
    <glyph glyph-name="hyphen" unicode="-" horiz-adv-x="367" 
d="M37 234v104h293v-104h-293z" />
    <glyph glyph-name="period" unicode="." horiz-adv-x="263" 
d="M60 0v120h143v-120h-143z" />
    <glyph glyph-name="slash" unicode="/" horiz-adv-x="389" 
d="M246 697h114l-218 -697h-113z" />
    <glyph glyph-name="zero" unicode="0" horiz-adv-x="538" 
d="M42 347q0 196 49.5 279t181.5 83q130 0 176.5 -82.5t46.5 -279.5q0 -195 -49 -277t-180 -82t-178 81t-47 278zM270 98q57 0 75 52.5t18 196.5q0 145 -18 198.5t-75 53.5q-58 0 -76.5 -54t-18.5 -198t18.5 -196.5t76.5 -52.5z" />
    <glyph glyph-name="one" unicode="1" horiz-adv-x="326" 
d="M123 0v587h-96v110h229v-697h-133z" />
    <glyph glyph-name="two" unicode="2" horiz-adv-x="476" 
d="M45 0v159q0 69 17.5 111.5t46.5 65t86 48.5l40 18q35 17 51.5 41.5t16.5 68.5q0 84 -76 84q-43 0 -150 -23l-19 103q114 30 187 30q96 0 141.5 -45.5t45.5 -140.5q0 -94 -35.5 -142t-107.5 -82l-41 -18q-42 -20 -56 -46t-14 -82v-40h254v-110h-387z" />
    <glyph glyph-name="three" unicode="3" horiz-adv-x="466" 
d="M17 27l26 100q87 -27 154 -27q55 0 75.5 25.5t21.5 73.5q0 57 -25 83.5t-98 28.5l-64 2v103l68 3q64 1 86 24t22 73q0 40 -17.5 60t-61.5 20q-58 0 -155 -27l-22 98q97 39 189 39q105 0 152.5 -44t47.5 -141q0 -56 -23 -96.5t-58 -54.5q92 -40 92 -172q-1 -106 -53 -157
t-167 -51q-97 0 -190 37z" />
    <glyph glyph-name="four" unicode="4" horiz-adv-x="510" 
d="M35 181l-19 102l197 427l122 -45l-76 -162q-24 -52 -51 -105t-42 -80l-14 -27h165l10 138h119v-429h-133v181h-278z" />
    <glyph glyph-name="five" unicode="5" horiz-adv-x="493" 
d="M43 22l20 103q103 -25 162 -25q52 0 76 26t24 83q0 58 -21 86t-86 28q-56 0 -122 -14l-33 20v368h353v-110h-220v-160q29 5 59 5q104 0 153.5 -55t49.5 -168q0 -116 -55 -167.5t-163 -51.5q-101 0 -197 32z" />
    <glyph glyph-name="six" unicode="6" horiz-adv-x="511" 
d="M285 596q-61 0 -84 -41t-26 -147q56 30 123 30q176 0 176 -223q0 -124 -56.5 -175.5t-157.5 -51.5q-124 0 -171 79.5t-47 262.5q0 209 48.5 292.5t191.5 83.5q82 0 156 -28l-22 -101q-88 19 -131 19zM265 331q-50 0 -90 -26q2 -117 19.5 -162t65.5 -45q41 0 61 26t20 91
q0 63 -19 89.5t-57 26.5z" />
    <glyph glyph-name="seven" unicode="7" horiz-adv-x="455" 
d="M207 0h-135q39 180 82 297.5t129 289.5h-256v110h402v-102q-94 -189 -141.5 -312t-80.5 -283z" />
    <glyph glyph-name="eight" unicode="8" horiz-adv-x="532" 
d="M35 200q0 125 90 174q-30 15 -49 54.5t-19 87.5q0 193 210 193q208 0 208 -193q0 -47 -20 -86.5t-49 -54.5q91 -47 90 -175q-1 -212 -231 -212q-117 0 -173.5 52t-56.5 160zM265 419q81 0 81 95q0 90 -80 90t-80 -90q0 -95 79 -95zM265 95q51 0 75.5 25.5t24.5 85.5
q0 110 -99 110q-101 0 -101 -111q0 -60 24.5 -85t75.5 -25z" />
    <glyph glyph-name="nine" unicode="9" horiz-adv-x="511" 
d="M226 101q61 0 83.5 41t25.5 147q-51 -30 -122 -30q-176 0 -176 223q0 124 56.5 175.5t157.5 51.5q124 0 171 -79.5t47 -262.5q0 -209 -48.5 -292.5t-191.5 -83.5q-82 0 -156 28l22 101q88 -19 131 -19zM246 366q53 0 89 26q-2 116 -19.5 161.5t-64.5 45.5q-41 0 -61 -26
t-20 -91q0 -63 19 -89.5t57 -26.5z" />
    <glyph glyph-name="colon" unicode=":" horiz-adv-x="263" 
d="M60 316v120h143v-120h-143zM60 0v120h143v-120h-143z" />
    <glyph glyph-name="semicolon" unicode=";" horiz-adv-x="263" 
d="M61 316v120h142v-120h-142zM141 -106h-111q52 94 52 226h118q0 -77 -19.5 -136.5t-39.5 -89.5z" />
    <glyph glyph-name="less" unicode="&#x3c;" horiz-adv-x="515" 
d="M81 251v123l352 246v-132l-248 -174l248 -177v-132z" />
    <glyph glyph-name="equal" unicode="=" horiz-adv-x="515" 
d="M58 365v101h399v-101h-399zM58 162v100h399v-100h-399z" />
    <glyph glyph-name="greater" unicode="&#x3e;" horiz-adv-x="515" 
d="M433 374v-123l-352 -246v132l248 177l-248 174v132z" />
    <glyph glyph-name="question" unicode="?" horiz-adv-x="414" 
d="M129 198v63q0 42 9 71t20.5 44.5t37.5 42.5l29 30q31 32 31 80q0 40 -19.5 55t-62.5 15q-55 0 -126 -21l-20 97q93 31 175 31q91 0 137 -41.5t46 -134.5q0 -52 -14.5 -83.5t-41.5 -59.5l-31 -33q-24 -25 -32 -46t-8 -60v-50h-130zM129 0v113h130v-113h-130z" />
    <glyph glyph-name="at" unicode="@" horiz-adv-x="763" 
d="M46 255q0 180 87.5 269t248.5 89t248 -89t87 -269q0 -100 -35.5 -143t-109.5 -43q-63 0 -93 42q-57 -51 -131 -51q-53 0 -86.5 39.5t-33.5 147.5q0 113 43 156t116 43q79 0 111.5 -40t32.5 -129v-85q0 -51 40 -51q34 0 51.5 23.5t17.5 91.5q0 151 -65 219.5t-193 68.5
q-129 0 -194.5 -68.5t-65.5 -220.5t65.5 -221t194.5 -69q42 0 108 11l8 -67q-51 -12 -116 -12q-162 0 -249 88.5t-87 269.5zM363 131q51 0 84 42v105q0 58 -11.5 77.5t-47.5 19.5q-38 0 -58 -28t-20 -100q0 -63 12.5 -89.5t40.5 -26.5z" />
    <glyph glyph-name="A" unicode="A" 
d="M13 0l151 697h201l150 -697h-134l-32 157h-174l-31 -157h-131zM189 254h145l-68 337h-5z" />
    <glyph glyph-name="B" unicode="B" horiz-adv-x="558" 
d="M279 0h-210v697h189q125 0 179 -42t54 -140q0 -100 -85 -142q115 -36 115 -169q0 -109 -59.5 -156.5t-182.5 -47.5zM199 413h49q66 0 90 20t24 74q0 49 -24.5 68t-94.5 19h-44v-181zM199 108h70q65 0 93 21.5t28 79.5q0 57 -26.5 79t-95.5 22h-69v-202z" />
    <glyph glyph-name="C" unicode="C" horiz-adv-x="477" 
d="M432 118l19 -102q-77 -25 -163 -25q-89 0 -141 30.5t-78.5 108.5t-26.5 216q0 193 54 276.5t194 83.5q95 0 157 -22l-18 -101q-75 13 -120 13q-53 0 -79 -16.5t-40.5 -71t-14.5 -162.5q0 -107 13.5 -159t40 -69t81.5 -17q35 0 122 17z" />
    <glyph glyph-name="D" unicode="D" horiz-adv-x="566" 
d="M220 0h-151v697h150q77 0 127.5 -10t86.5 -31.5t55 -63.5t27.5 -98.5t8.5 -143.5q0 -74 -4.5 -125t-18 -92t-34.5 -65t-56 -40t-80.5 -22t-110.5 -6zM202 110h27q56 0 84 6.5t48 32.5t25.5 71.5t5.5 130.5q0 84 -6.5 130t-27.5 70.5t-47.5 30t-80.5 5.5h-28v-477z" />
    <glyph glyph-name="E" unicode="E" horiz-adv-x="490" 
d="M69 0v697h382v-110h-249v-172h199v-106h-199v-199h254v-110h-387z" />
    <glyph glyph-name="F" unicode="F" horiz-adv-x="471" 
d="M69 0v697h381v-110h-248v-190h191v-111h-191v-286h-133z" />
    <glyph glyph-name="G" unicode="G" horiz-adv-x="532" 
d="M42 351q0 190 54 272.5t193 82.5q97 0 177 -25l-18 -102q-109 17 -145 17q-49 0 -74.5 -16.5t-39.5 -70t-14 -158.5q0 -108 13.5 -162.5t38.5 -71t75 -16.5q28 0 54 6v275h127v-358q-82 -33 -195 -33q-90 0 -141.5 31t-78 110t-26.5 219z" />
    <glyph glyph-name="H" unicode="H" horiz-adv-x="592" 
d="M69 0v697h133v-281h188v281h133v-697h-133v306h-188v-306h-133z" />
    <glyph glyph-name="I" unicode="I" horiz-adv-x="270" 
d="M69 0v697h133v-697h-133z" />
    <glyph glyph-name="J" unicode="J" horiz-adv-x="406" 
d="M12 10l17 101q60 -10 105 -10q41 0 58.5 19.5t17.5 62.5v514h133v-516q0 -190 -191 -190q-77 0 -140 19z" />
    <glyph glyph-name="K" unicode="K" horiz-adv-x="556" 
d="M69 0v697h133v-290q19 0 56 -7l136 297h138l-164 -340q44 -42 79 -118l116 -239h-144l-95 199q-27 57 -53 77t-69 22v-298h-133z" />
    <glyph glyph-name="L" unicode="L" horiz-adv-x="436" 
d="M69 0v697h133v-587h215v-110h-348z" />
    <glyph glyph-name="M" unicode="M" horiz-adv-x="759" 
d="M712 0h-129l-17 314l-5 227h-5q-12 -66 -109 -395h-136q-43 146 -70.5 244.5t-32.5 124.5l-6 26h-6q-1 -130 -6 -228l-17 -313h-126l40 697h170q51 -174 81 -286.5t35 -137.5l5 -25h5q8 61 119 449h169z" />
    <glyph glyph-name="N" unicode="N" horiz-adv-x="618" 
d="M69 0v697h168q77 -203 125 -335t58 -163l9 -31h3q-6 129 -6 254v275h123v-697h-168q-78 204 -126 336.5t-57 162.5l-8 30h-4q5 -139 6 -266l1 -263h-124z" />
    <glyph glyph-name="O" unicode="O" horiz-adv-x="570" 
d="M42 347q0 194 54 278t192 84t189 -83t51 -279q0 -194 -53.5 -276.5t-192.5 -82.5q-138 0 -189 82t-51 277zM285 98q65 0 87.5 53.5t22.5 195.5t-22.5 197t-87.5 55q-64 0 -87 -55t-23 -197q0 -141 22.5 -195t87.5 -54z" />
    <glyph glyph-name="P" unicode="P" horiz-adv-x="530" 
d="M69 0v697h200q125 0 178.5 -50t53.5 -170q0 -110 -59 -169.5t-174 -59.5h-66v-248h-133zM202 358h58q58 0 83.5 27.5t25.5 92.5q0 62 -23.5 85.5t-85.5 23.5h-58v-229z" />
    <glyph glyph-name="Q" unicode="Q" horiz-adv-x="570" 
d="M42 347q0 194 54 278t192 84t189 -83t51 -279q0 -126 -21 -202.5t-71 -114.5q45 -52 155 -84l-32 -96q-177 38 -242 140q-22 -2 -35 -2q-138 0 -189 82t-51 277zM285 98q65 0 87.5 53.5t22.5 195.5t-22.5 197t-87.5 55q-64 0 -87 -55t-23 -197q0 -141 22.5 -195t87.5 -54
z" />
    <glyph glyph-name="R" unicode="R" horiz-adv-x="556" 
d="M69 0v697h201q124 0 176 -48t52 -168q0 -133 -98 -176q49 -31 78 -117l67 -188h-140l-54 167q-16 50 -37.5 67.5t-62.5 17.5h-49v-252h-133zM202 362h57q58 0 82 27t24 90t-21.5 85.5t-82.5 22.5h-59v-225z" />
    <glyph glyph-name="S" unicode="S" horiz-adv-x="488" 
d="M33 21l19 106q124 -26 168 -26q57 0 79 20t22 69q0 39 -17 63.5t-65 45.5l-41 18q-82 35 -119 79t-37 126q0 184 205 184q97 0 178 -25l-22 -103q-85 18 -142 18q-45 0 -67 -16.5t-22 -57.5q0 -37 19 -57t62 -39l34 -16q89 -40 126.5 -84t37.5 -135q0 -109 -48.5 -154.5
t-162.5 -45.5q-110 0 -207 30z" />
    <glyph glyph-name="T" unicode="T" horiz-adv-x="464" 
d="M166 0v587h-149v110h430v-110h-148v-587h-133z" />
    <glyph glyph-name="U" unicode="U" horiz-adv-x="580" 
d="M63 187v510h133v-511q0 -88 93 -88q94 0 94 88v511h133v-510q0 -199 -227 -199q-226 0 -226 199z" />
    <glyph glyph-name="V" unicode="V" horiz-adv-x="505" 
d="M159 0l-151 697h136l71 -359q16 -84 36 -225h5q3 18 17 102.5t21 120.5l70 361h132l-149 -697h-188z" />
    <glyph glyph-name="W" unicode="W" horiz-adv-x="776" 
d="M134 0l-116 697h127l57 -374q18 -118 22 -184h5q7 78 25 181l67 367h140l68 -370q12 -68 25 -178h4q4 66 21 183l56 375h124l-115 -697h-163l-60 340q-23 122 -29 195h-4q-7 -82 -31 -199l-61 -336h-162z" />
    <glyph glyph-name="X" unicode="X" horiz-adv-x="525" 
d="M263 278h-6q-39 -99 -64 -158l-50 -120h-139l173 365l-163 332h142l43 -96l62 -153h6q37 89 66 156l42 93h137l-164 -333l174 -364h-142l-55 122z" />
    <glyph glyph-name="Y" unicode="Y" horiz-adv-x="506" 
d="M185 0v307l-191 390h144l80 -172q29 -70 34 -83h3q13 34 34 81l83 174h141l-195 -391v-306h-133z" />
    <glyph glyph-name="Z" unicode="Z" horiz-adv-x="493" 
d="M28 0v61l258 526h-235v110h398v-57l-257 -530h267v-110h-431z" />
    <glyph glyph-name="bracketleft" unicode="[" horiz-adv-x="366" 
d="M98 -87v865h202v-84h-88v-695h88v-86h-202z" />
    <glyph glyph-name="backslash" unicode="\" horiz-adv-x="389" 
d="M29 697h114l217 -697h-113z" />
    <glyph glyph-name="bracketright" unicode="]" horiz-adv-x="366" 
d="M268 778v-865h-202v86h88v695h-88v84h202z" />
    <glyph glyph-name="asciicircum" unicode="^" horiz-adv-x="539" 
d="M32 374l182 323h111l182 -323h-107l-131 234l-133 -234h-104z" />
    <glyph glyph-name="underscore" unicode="_" horiz-adv-x="440" 
d="M0 -161v82h440v-82h-440z" />
    <glyph glyph-name="grave" unicode="`" horiz-adv-x="277" 
d="M138 640l-92 154h116l68 -154h-92z" />
    <glyph glyph-name="a" unicode="a" horiz-adv-x="504" 
d="M443 0h-112l-8 45h-2q-71 -54 -150 -54q-131 0 -131 145v8q0 79 38.5 116.5t117.5 46.5q45 5 119 7v16q0 47 -13.5 62.5t-54.5 15.5q-78 0 -165 -30l-24 94q105 40 206 40q90 0 134.5 -39.5t44.5 -146.5v-326zM315 136v94q-60 -2 -90 -8q-58 -11 -58 -72q0 -57 51 -57
q50 0 97 43z" />
    <glyph glyph-name="b" unicode="b" horiz-adv-x="514" 
d="M63 722h132v-158q0 -24 -0.5 -48t-1.5 -38.5t-1 -15.5h2q64 50 134 50q74 0 110.5 -50.5t36.5 -182.5q0 -156 -45 -222t-158 -66t-209 40v691zM259 99q46 0 65 31.5t19 134.5q0 85 -14 112t-45 27q-45 0 -89 -44v-250q25 -11 64 -11z" />
    <glyph glyph-name="c" unicode="c" horiz-adv-x="421" 
d="M39 250q0 129 46.5 195.5t164.5 66.5q77 0 138 -21l-19 -100q-54 13 -96 13q-57 0 -79.5 -36t-22.5 -118q0 -87 21.5 -119t78.5 -32q37 0 99 15l23 -99q-65 -24 -149 -24q-117 0 -161 63t-44 196z" />
    <glyph glyph-name="d" unicode="d" horiz-adv-x="514" 
d="M39 224q0 111 24.5 176t65 88.5t103.5 23.5q44 0 87 -13h3q-3 38 -3 98v125h132v-722h-116l-7 45h-3q-71 -54 -139 -54q-74 0 -110.5 50.5t-36.5 182.5zM319 142v251q-31 11 -64 11q-30 0 -46.5 -10.5t-27 -48t-10.5 -108.5q0 -84 14.5 -111t45.5 -27q43 0 88 43z" />
    <glyph glyph-name="e" unicode="e" horiz-adv-x="484" 
d="M39 251q0 133 46 198.5t171 65.5q58 0 98.5 -16.5t59.5 -43.5t26 -52t7 -52q0 -80 -27.5 -107.5t-116.5 -27.5q-75 0 -133 16v-7q1 -74 22 -103t75 -29q63 0 147 26l21 -93q-24 -12 -75.5 -23.5t-112.5 -11.5q-119 0 -163.5 60.5t-44.5 199.5zM173 319q45 -15 96 -15
q31 0 40.5 12t9.5 38q0 65 -66 65q-37 0 -57 -22.5t-23 -77.5z" />
    <glyph glyph-name="f" unicode="f" horiz-adv-x="361" 
d="M347 409h-125v-409h-131v409h-68v94h68v73q0 92 38.5 123t113.5 31q77 0 141 -14l-17 -96q-54 7 -84 7q-34 0 -47.5 -11t-13.5 -50v-63h140z" />
    <glyph glyph-name="g" unicode="g" horiz-adv-x="514" 
d="M156 -233l-19 99q79 13 122 27q34 10 49.5 31.5t15.5 67.5v57h-2q-64 -49 -137 -49t-109.5 49t-36.5 175q0 164 48.5 226t154.5 62q109 0 209 -40v-483q0 -93 -40.5 -137.5t-113.5 -61.5q-66 -15 -141 -23zM171 242q0 -82 14.5 -108t45.5 -26q48 0 88 40v245
q-25 11 -64 11q-22 0 -36 -5.5t-25.5 -22t-17 -49.5t-5.5 -85z" />
    <glyph glyph-name="h" unicode="h" horiz-adv-x="530" 
d="M63 0v722h132v-163l-3 -97h3q61 50 143 50q129 0 129 -148v-364h-131v340q0 64 -49 64q-45 0 -92 -43v-361h-132z" />
    <glyph glyph-name="i" unicode="i" horiz-adv-x="265" 
d="M67 0v503h131v-503h-131zM64 589v108h137v-108h-137z" />
    <glyph glyph-name="j" unicode="j" horiz-adv-x="267" 
d="M-26 -228l-20 100q6 1 29 6t36 9q33 10 41.5 34t8.5 77v505h132v-509q0 -104 -33 -147.5t-108 -59.5q-31 -6 -86 -15zM67 589v108h137v-108h-137z" />
    <glyph glyph-name="k" unicode="k" horiz-adv-x="520" 
d="M63 0v722h132v-394q32 0 55 -7l113 182h143l-149 -226q37 -32 63 -81l107 -196h-143l-80 149q-23 42 -43.5 56t-65.5 15v-220h-132z" />
    <glyph glyph-name="l" unicode="l" horiz-adv-x="288" 
d="M262 103l13 -100q-38 -12 -96 -12q-61 0 -88.5 30.5t-27.5 115.5v585h132v-579q0 -27 7.5 -35.5t24.5 -8.5q21 0 35 4z" />
    <glyph glyph-name="m" unicode="m" horiz-adv-x="777" 
d="M63 0v503h116l8 -45h2q68 54 138 54q80 0 110 -62q71 62 149 62q129 0 129 -147v-365h-132v345q0 31 -10.5 45t-36.5 14q-38 0 -83 -43v-361h-128v345q0 31 -10.5 45t-36.5 14q-36 0 -83 -43v-361h-132z" />
    <glyph glyph-name="n" unicode="n" horiz-adv-x="530" 
d="M63 0v503h116l8 -45h2q68 54 149 54q129 0 129 -148v-364h-131v340q0 64 -49 64q-45 0 -92 -43v-361h-132z" />
    <glyph glyph-name="o" unicode="o" horiz-adv-x="503" 
d="M247 -12q-122 0 -165 60t-43 196q0 137 46.5 204t168.5 67t166 -66.5t44 -204.5q0 -134 -46.5 -195t-170.5 -61zM251 96q47 0 64 31.5t17 118.5q0 86 -17.5 123.5t-63.5 37.5q-45 0 -62.5 -37.5t-17.5 -123.5q0 -87 17 -118.5t63 -31.5z" />
    <glyph glyph-name="p" unicode="p" horiz-adv-x="514" 
d="M475 279q0 -162 -48 -225t-144 -63q-46 0 -87 13h-4q3 -32 3 -80v-147h-132v726h116l8 -45h2q68 54 139 54q74 0 110.5 -50.5t36.5 -182.5zM195 361v-251q27 -11 64 -11q30 0 46.5 10.5t27 47t10.5 106.5q0 60 -8 91.5t-19.5 40.5t-32.5 9q-41 0 -88 -43z" />
    <glyph glyph-name="q" unicode="q" horiz-adv-x="514" 
d="M451 -223h-132v162q0 19 0.5 43.5t1.5 41.5l1 17h-3q-64 -50 -134 -50q-73 0 -109.5 50.5t-36.5 182.5q0 164 48.5 226t154.5 62q109 0 209 -40v-695zM255 404q-30 0 -46.5 -10.5t-27 -48t-10.5 -108.5q0 -84 15 -111t46 -27q42 0 87 43v251q-27 11 -64 11z" />
    <glyph glyph-name="r" unicode="r" horiz-adv-x="371" 
d="M63 0v503h116l7 -45h3q52 52 122 52q30 0 49 -7l-18 -118q-32 7 -55 7q-56 0 -92 -42v-350h-132z" />
    <glyph glyph-name="s" unicode="s" horiz-adv-x="451" 
d="M29 23l19 101q109 -29 171 -29q37 0 51.5 10.5t14.5 37.5q0 23 -12 35.5t-48 23.5l-24 7q-89 26 -125 59t-36 101q0 80 44 111.5t125 31.5q104 0 186 -28l-19 -96q-96 21 -150 21q-58 0 -58 -40q0 -19 12 -31t49 -23l24 -7q92 -27 126.5 -62t34.5 -105q0 -82 -47 -116
t-133 -34q-93 0 -205 32z" />
    <glyph glyph-name="t" unicode="t" horiz-adv-x="366" 
d="M84 140v269h-69v94h70l10 130l121 12v-142h126l-15 -94h-111v-268q0 -26 9 -33.5t32 -7.5q9 0 69 10l17 -99q-46 -18 -119 -18q-77 0 -108.5 29.5t-31.5 117.5z" />
    <glyph glyph-name="u" unicode="u" horiz-adv-x="530" 
d="M62 503h132v-341q0 -34 12 -48.5t38 -14.5q44 0 91 43v361h132v-503h-116l-8 45h-2q-71 -54 -149 -54q-130 0 -130 149v363z" />
    <glyph glyph-name="v" unicode="v" horiz-adv-x="463" 
d="M140 0l-127 503h134l49 -210q8 -37 16.5 -83.5t13.5 -73.5l4 -28h4q17 103 36 185l48 210h132l-127 -503h-183z" />
    <glyph glyph-name="w" unicode="w" horiz-adv-x="753" 
d="M121 0l-106 503h134l37 -201l31 -187h5q27 116 45 187l50 196h124l50 -197l43 -186h4q17 100 32 182l38 206h130l-104 -503h-174l-61 254l-19 92h-5q-13 -60 -20 -92l-62 -254h-172z" />
    <glyph glyph-name="x" unicode="x" horiz-adv-x="474" 
d="M9 0l154 262l-139 241h145l39 -78q7 -14 14.5 -29.5t12.5 -26.5t5 -12l2 5l5.5 11l7.5 15t9 18.5t10 19.5l40 77h139l-139 -240l151 -263h-149l-39 77q-8 17 -17.5 38.5t-16 35.5t-6.5 15l-39 -83l-43 -83h-146z" />
    <glyph glyph-name="y" unicode="y" horiz-adv-x="527" 
d="M189 0q-129 0 -129 149v354h131v-333q0 -62 49 -62t92 39v356h132v-514q0 -92 -40.5 -137t-113.5 -62q-65 -14 -142 -23l-18 99q81 14 122 27q34 10 49.5 31t15.5 65v60h-2q-61 -49 -146 -49z" />
    <glyph glyph-name="z" unicode="z" horiz-adv-x="445" 
d="M38 0v59l194 336h-176v108h347v-56l-196 -339h210v-108h-379z" />
    <glyph glyph-name="braceleft" unicode="{" horiz-adv-x="358" 
d="M114 62v165q0 49 -16 65.5t-65 16.5v88q48 0 64.5 16.5t16.5 64.5v152q0 87 33 117.5t110 30.5h35v-86h-27q-25 0 -33.5 -10t-8.5 -35v-165q0 -105 -61 -130q61 -24 61 -134v-175q0 -23 9 -33t32 -10h28v-86h-32q-79 0 -112.5 30.5t-33.5 117.5z" />
    <glyph glyph-name="bar" unicode="|" horiz-adv-x="265" 
d="M83 -196v1088h99v-1088h-99z" />
    <glyph glyph-name="braceright" unicode="}" horiz-adv-x="358" 
d="M244 227v-165q0 -87 -33.5 -117.5t-112.5 -30.5h-32v86h28q23 0 32 10t9 33v175q0 110 61 134q-61 25 -61 130v165q0 25 -8.5 35t-33.5 10h-27v86h35q77 0 110 -30.5t33 -117.5v-152q0 -48 16.5 -64.5t64.5 -16.5v-88q-49 0 -65 -16.5t-16 -65.5z" />
    <glyph glyph-name="asciitilde" unicode="~" horiz-adv-x="530" 
d="M124 244l-66 59q51 72 120 72q39 0 71 -20t56 -40t43 -20q10 0 20 4.5t14.5 7.5t13.5 12l9 9l66 -58q-53 -73 -120 -73q-38 0 -70.5 20.5t-57 40.5t-42.5 20q-26 0 -57 -34z" />
    <glyph glyph-name="uni00A0" unicode="&#xa0;" horiz-adv-x="224" 
 />
    <glyph glyph-name="exclamdown" unicode="&#xa1;" horiz-adv-x="261" 
d="M197 299v-495h-133v495h133zM197 501v-113h-133v113h133z" />
    <glyph glyph-name="cent" unicode="&#xa2;" horiz-adv-x="555" 
d="M70 336q0 112 33.5 176.5t117.5 80.5v104h78v-99q71 -4 120 -20l-19 -100q-50 12 -96 12q-56 0 -79 -36t-23 -118q0 -86 22 -118t78 -32q46 0 99 15l23 -99q-53 -21 -125 -24v-95h-78v99q-85 14 -118 75.5t-33 178.5z" />
    <glyph glyph-name="sterling" unicode="&#xa3;" horiz-adv-x="555" 
d="M142 397v107q0 201 208 201q86 0 139 -21l-19 -96q-48 12 -93 12q-57 0 -80 -23.5t-23 -72.5v-107h111v-75h-111v-216h223v-106h-441v106h86v216h-68v75h68z" />
    <glyph glyph-name="currency" unicode="&#xa4;" horiz-adv-x="721" 
d="M128 60l-61 60l82 81q-49 68 -49 152q0 80 49 151l-83 81l61 61l81 -82q73 50 152 50q82 0 152 -51l82 80l60 -59l-82 -81q49 -72 49 -150q0 -83 -47 -149l81 -82l-59 -60l-82 80q-70 -51 -154 -51q-76 0 -151 49zM360 187q69 0 117 48.5t48 117.5q0 68 -48 116.5
t-117 48.5q-68 0 -116 -48.5t-48 -116.5q0 -69 48.5 -117.5t115.5 -48.5z" />
    <glyph glyph-name="yen" unicode="&#xa5;" horiz-adv-x="555" 
d="M114 342h77l-174 355h144l80 -172q29 -70 34 -83h3q13 34 34 81l83 174h141l-177 -355h79v-74h-97v-47h97v-75h-97v-146h-133v146h-94v75h94v47h-94v74z" />
    <glyph glyph-name="brokenbar" unicode="&#xa6;" horiz-adv-x="265" 
d="M83 444v448h99v-448h-99zM83 -196v448h99v-448h-99z" />
    <glyph glyph-name="section" unicode="&#xa7;" horiz-adv-x="511" 
d="M48 -79l18 103q103 -24 168 -24q57 0 78 13t21 45q0 24 -16 40t-60 32l-55 19q-73 26 -108.5 62.5t-35.5 97.5q0 76 55 117q-55 44 -55 116q0 163 203 163q99 0 177 -26l-22 -103q-85 19 -147 19q-81 0 -81 -49q0 -22 16 -34.5t54 -25.5l46 -15q82 -26 120.5 -66
t38.5 -114q0 -67 -43 -117q43 -41 43 -110q0 -94 -48 -134t-161 -40q-111 0 -206 31zM270 358l-54 18q-34 -11 -34 -51q0 -25 15.5 -39.5t49.5 -27.5l56 -20q6 -3 18 -7q18 18 18 51q0 51 -69 76z" />
    <glyph glyph-name="dieresis" unicode="&#xa8;" horiz-adv-x="915" 
d="M423 640h-116v109h116v-109zM607 640h-115v109h115v-109z" />
    <glyph glyph-name="copyright" unicode="&#xa9;" horiz-adv-x="838" 
d="M509 221l13 -64q-49 -15 -100 -15q-85 0 -113 46t-28 164t28 163t113 45q58 0 99 -13l-12 -64q-56 6 -69 6q-43 0 -56.5 -24t-13.5 -113t14 -114t57 -25q23 0 68 8zM78 350q0 170 90 265.5t251 95.5t251 -95.5t90 -265.5t-90 -266t-251 -96t-251 96t-90 266zM160 350
q0 -138 66 -212.5t193 -74.5q126 0 192.5 74.5t66.5 212.5q0 137 -66.5 212t-192.5 75t-192.5 -74.5t-66.5 -212.5z" />
    <glyph glyph-name="ordfeminine" unicode="&#xaa;" horiz-adv-x="325" 
d="M290 265h-85l-6 24h-1q-49 -30 -92 -30q-81 0 -81 92v4q0 45 20.5 69t66.5 31q34 5 81 7v8q0 22 -7.5 29.5t-28.5 7.5q-47 0 -104 -18l-18 67q63 27 136 27q59 0 89 -25.5t30 -91.5v-201zM193 349v52q-28 0 -44 -4q-29 -6 -29 -36q0 -29 28 -29q24 0 45 17z" />
    <glyph glyph-name="guillemotleft" unicode="&#xab;" horiz-adv-x="532" 
d="M157 54l-99 200l100 199h107l-99 -199l99 -200h-108zM359 54l-99 200l100 199h107l-99 -199l99 -200h-108z" />
    <glyph glyph-name="logicalnot" unicode="&#xac;" horiz-adv-x="515" 
d="M59 260v105h397v-235h-103v130h-294z" />
    <glyph glyph-name="uni00AD" unicode="&#xad;" horiz-adv-x="367" 
d="M37 234v104h293v-104h-293z" />
    <glyph glyph-name="registered" unicode="&#xae;" horiz-adv-x="506" 
d="M54 501q0 100 53.5 153.5t145.5 53.5q91 0 145 -53.5t54 -153.5t-54 -154t-145 -54t-145 53.5t-54 154.5zM102 501q0 -164 151 -164t151 164q0 163 -151 163t-151 -163zM181 388l1 230h73q40 0 57.5 -17t17.5 -57q0 -42 -29 -57q17 -15 26 -42l19 -57h-60l-13 44
q-7 20 -12 25.5t-16 5.5h-6v-75h-58zM239 510h11q14 0 19.5 7t5.5 25q0 17 -5 23.5t-19 6.5h-12v-62z" />
    <glyph glyph-name="macron" unicode="&#xaf;" horiz-adv-x="498" 
d="M389 693h-280v79h280v-79z" />
    <glyph glyph-name="degree" unicode="&#xb0;" horiz-adv-x="327" 
d="M48 590q0 117 115 117q116 0 116 -117q0 -62 -31 -91.5t-85 -29.5t-84.5 29.5t-30.5 91.5zM163 523q54 0 54 67q0 35 -13 50t-41 15t-41 -15t-13 -50q0 -67 54 -67z" />
    <glyph glyph-name="plusminus" unicode="&#xb1;" horiz-adv-x="515" 
d="M205 188v155h-147v102h147v158h104v-158h148v-102h-148v-155h-104zM58 0v101h399v-101h-399z" />
    <glyph glyph-name="twosuperior" unicode="&#xb2;" horiz-adv-x="312" 
d="M29 380v103q0 64 21 92t75 50l24 10q22 9 30.5 22t8.5 39q0 22 -9.5 31.5t-31.5 9.5q-21 0 -95 -12l-14 75q69 18 123 18q125 0 125 -121q0 -56 -23 -86.5t-68 -49.5l-29 -13q-21 -9 -28 -25t-7 -48v-14h155v-81h-257z" />
    <glyph glyph-name="threesuperior" unicode="&#xb3;" horiz-adv-x="308" 
d="M13 397l18 73q54 -15 91 -15q30 0 42 12.5t12 37.5q2 32 -12 45.5t-57 14.5l-40 1v75l44 2q37 1 47.5 12.5t10.5 40.5q0 41 -42 41q-38 0 -94 -16l-15 71q58 26 125 26t97.5 -28t30.5 -92q0 -31 -12.5 -56.5t-31.5 -34.5q51 -27 51 -101q0 -69 -34.5 -100.5t-110.5 -31.5
q-69 0 -120 23z" />
    <glyph glyph-name="acute" unicode="&#xb4;" horiz-adv-x="277" 
d="M198 794l-92 -154h-92l69 154h115z" />
    <glyph glyph-name="mu" unicode="&#xb5;" horiz-adv-x="523" 
d="M60 503h131v-341q0 -63 48 -63q44 0 89 41v363h132v-503h-116l-8 43h-2q-50 -48 -102 -48q-24 0 -44 8q3 -48 3 -84v-116h-131v700z" />
    <glyph glyph-name="paragraph" unicode="&#xb6;" horiz-adv-x="603" 
d="M452 0v697h81v-697h-81zM305 0v299h-73q-163 0 -163 159v83q0 156 163 156h157v-697h-84z" />
    <glyph glyph-name="periodcentered" unicode="&#xb7;" horiz-adv-x="244" 
d="M55 257v133h135v-133h-135z" />
    <glyph glyph-name="cedilla" unicode="&#xb8;" horiz-adv-x="395" 
d="M102 -226l14 57q41 -11 66 -11q41 0 41 23q0 13 -12.5 22.5t-27.5 15.5t-27.5 19.5t-12.5 33.5q0 32 30 64h68q-28 -25 -28 -51q0 -12 13 -21t29 -15.5t29.5 -24t13.5 -43.5q0 -45 -26 -64t-84 -19q-17 0 -38.5 3.5t-34.5 6.5z" />
    <glyph glyph-name="onesuperior" unicode="&#xb9;" horiz-adv-x="233" 
d="M76 380v351h-58v81h160v-432h-102z" />
    <glyph glyph-name="ordmasculine" unicode="&#xba;" horiz-adv-x="326" 
d="M163 258q-82 0 -110 37.5t-28 121.5q0 85 28.5 126.5t109.5 41.5q80 0 109 -41.5t29 -126.5q0 -83 -28.5 -121t-109.5 -38zM163 337q21 0 29 17.5t8 64.5q0 86 -37 86q-21 0 -29.5 -21t-8.5 -65q0 -47 8 -64.5t30 -17.5z" />
    <glyph glyph-name="guillemotright" unicode="&#xbb;" horiz-adv-x="532" 
d="M272 254l-100 -200h-107l98 200l-99 199h108zM474 254l-100 -200h-107l98 200l-99 199h108z" />
    <glyph glyph-name="onequarter" unicode="&#xbc;" horiz-adv-x="725" 
d="M76 265v351h-58v81h160v-432h-102zM424 106l-10 73l115 259l91 -32l-43 -94l-61 -125h80l11 79h87v-266h-102v106h-168zM123 -22l344 740h93l-344 -740h-93z" />
    <glyph glyph-name="onehalf" unicode="&#xbd;" horiz-adv-x="757" 
d="M76 265v351h-58v81h160v-432h-102zM474 0v103q0 64 21 92t75 50l24 10q22 9 30.5 22t8.5 39q0 22 -10 31.5t-31 9.5t-95 -12l-14 75q69 18 123 18q125 0 125 -121q0 -56 -23 -86.5t-68 -49.5l-29 -13q-21 -9 -28 -25t-7 -48v-14h155v-81h-257zM123 -22l344 740h93
l-344 -740h-93z" />
    <glyph glyph-name="threequarters" unicode="&#xbe;" horiz-adv-x="790" 
d="M13 282l18 73q54 -15 91 -15q30 0 42 12.5t12 37.5q2 32 -12 45.5t-57 14.5l-40 1v75l44 2q37 1 47.5 12.5t10.5 40.5q0 41 -42 41q-38 0 -94 -16l-15 71q58 26 125 26t97.5 -28t30.5 -92q0 -31 -12.5 -56.5t-31.5 -34.5q51 -27 51 -101q0 -69 -34.5 -100.5t-110.5 -31.5
q-69 0 -120 23zM489 106l-10 73l115 259l91 -32l-42 -94l-61 -125h79l11 79h88v-266h-102v106h-169zM188 -22l344 740h93l-344 -740h-93z" />
    <glyph glyph-name="questiondown" unicode="&#xbf;" horiz-adv-x="414" 
d="M285 303v-63q0 -42 -9 -71t-20.5 -44.5t-37.5 -42.5l-29 -30q-31 -32 -31 -80q0 -40 19.5 -55t62.5 -15q55 0 126 21l20 -97q-93 -31 -175 -31q-91 0 -137 41.5t-46 134.5q0 52 14.5 83.5t41.5 59.5l31 33q24 25 32 46t8 60v50h130zM285 501v-113h-130v113h130z" />
    <glyph glyph-name="Agrave" unicode="&#xc0;" 
d="M13 0l151 697h201l150 -697h-134l-32 157h-174l-31 -157h-131zM189 254h145l-68 337h-5zM221 748l-92 154h116l68 -154h-92z" />
    <glyph glyph-name="Aacute" unicode="&#xc1;" 
d="M13 0l151 697h201l150 -697h-134l-32 157h-174l-31 -157h-131zM189 254h145l-68 337h-5zM398 902l-92 -154h-92l69 154h115z" />
    <glyph glyph-name="Acircumflex" unicode="&#xc2;" 
d="M13 0l151 697h201l150 -697h-134l-32 157h-174l-31 -157h-131zM189 254h145l-68 337h-5zM107 748l113 154h90l113 -154h-98l-61 85l-61 -85h-96z" />
    <glyph glyph-name="Atilde" unicode="&#xc3;" 
d="M13 0l151 697h201l150 -697h-134l-32 157h-174l-31 -157h-131zM189 254h145l-68 337h-5zM140 760l-35 47q35 58 97 58q32 0 71.5 -22t64.5 -22q27 0 56 36l35 -49q-37 -65 -98 -65q-31 0 -69 22t-64 22q-25 0 -58 -27z" />
    <glyph glyph-name="Adieresis" unicode="&#xc4;" 
d="M13 0l151 697h201l150 -697h-134l-32 157h-174l-31 -157h-131zM189 254h145l-68 337h-5zM229 748h-116v109h116v-109zM413 748h-115v109h115v-109z" />
    <glyph glyph-name="Aring" unicode="&#xc5;" 
d="M13 0l151 697h201l150 -697h-134l-32 157h-174l-31 -157h-131zM189 254h145l-68 337h-5zM154 846q0 48 29.5 76.5t79.5 28.5t79.5 -28.5t29.5 -76.5t-29.5 -76.5t-79.5 -28.5t-79.5 28.5t-29.5 76.5zM216 846q0 -23 12.5 -36.5t34.5 -13.5t35 13.5t13 36.5t-13 36.5
t-35 13.5t-34.5 -13.5t-12.5 -36.5z" />
    <glyph glyph-name="AE" unicode="&#xc6;" horiz-adv-x="715" 
d="M3 0l178 697h496v-110h-276l31 -172h195v-106h-177l35 -199h197v-110h-309l-25 157h-176l-39 -157h-130zM195 256h140l-52 335h-6z" />
    <glyph glyph-name="Ccedilla" unicode="&#xc7;" horiz-adv-x="477" 
d="M174 -214l14 57q41 -11 66 -11q41 0 41 23q0 13 -12.5 22.5t-27.5 15.5t-27.5 19.5t-12.5 33.5q0 21 17 49q-101 12 -145.5 91t-44.5 260q0 193 54 276.5t194 83.5q95 0 157 -22l-18 -101q-75 13 -120 13q-53 0 -79 -16.5t-40.5 -71t-14.5 -162.5q0 -107 13.5 -159
t40 -69t81.5 -17q35 0 122 17l19 -102q-71 -24 -155 -25q-11 -17 -11 -32q0 -12 13 -21t29 -15.5t29.5 -24t13.5 -43.5q0 -45 -26 -64t-84 -19q-17 0 -38.5 3.5t-34.5 6.5z" />
    <glyph glyph-name="Egrave" unicode="&#xc8;" horiz-adv-x="489" 
d="M69 0v697h382v-110h-249v-172h199v-106h-199v-199h254v-110h-387zM217 748l-92 154h116l68 -154h-92z" />
    <glyph glyph-name="Eacute" unicode="&#xc9;" horiz-adv-x="489" 
d="M69 0v697h382v-110h-249v-172h199v-106h-199v-199h254v-110h-387zM394 902l-92 -154h-92l69 154h115z" />
    <glyph glyph-name="Ecircumflex" unicode="&#xca;" horiz-adv-x="489" 
d="M69 0v697h382v-110h-249v-172h199v-106h-199v-199h254v-110h-387zM103 748l113 154h90l113 -154h-98l-61 85l-61 -85h-96z" />
    <glyph glyph-name="Edieresis" unicode="&#xcb;" horiz-adv-x="489" 
d="M69 0v697h382v-110h-249v-172h199v-106h-199v-199h254v-110h-387zM226 748h-116v109h116v-109zM410 748h-115v109h115v-109z" />
    <glyph glyph-name="Igrave" unicode="&#xcc;" horiz-adv-x="270" 
d="M69 0v697h133v-697h-133zM92 748l-92 154h116l68 -154h-92z" />
    <glyph glyph-name="Iacute" unicode="&#xcd;" horiz-adv-x="270" 
d="M69 0v697h133v-697h-133zM269 902l-92 -154h-92l69 154h115z" />
    <glyph glyph-name="Icircumflex" unicode="&#xce;" horiz-adv-x="270" 
d="M69 0v697h133v-697h-133zM-23 748l113 154h90l113 -154h-98l-61 85l-61 -85h-96z" />
    <glyph glyph-name="Idieresis" unicode="&#xcf;" horiz-adv-x="270" 
d="M69 0v697h133v-697h-133zM100 748h-116v109h116v-109zM284 748h-115v109h115v-109z" />
    <glyph glyph-name="Eth" unicode="&#xd0;" horiz-adv-x="566" 
d="M11 317v77h58v303h150q77 0 127.5 -10t86.5 -31.5t55 -63.5t27.5 -98.5t8.5 -143.5q0 -74 -4.5 -125t-18 -92t-34.5 -65t-56 -40t-80.5 -22t-110.5 -6h-151v317h-58zM202 110h27q56 0 84 6.5t48 32.5t25.5 71.5t5.5 130.5q0 84 -6.5 130t-27.5 70.5t-47.5 30t-80.5 5.5
h-28v-193h95v-77h-95v-207z" />
    <glyph glyph-name="Ntilde" unicode="&#xd1;" horiz-adv-x="618" 
d="M69 0v697h168q77 -203 125 -335t58 -163l9 -31h3q-6 129 -6 254v275h123v-697h-168q-78 204 -126 336.5t-57 162.5l-8 30h-4q5 -139 6 -266l1 -263h-124zM189 760l-35 47q35 58 97 58q32 0 71.5 -22t64.5 -22q27 0 56 36l35 -49q-37 -65 -98 -65q-32 0 -70 22t-63 22
t-58 -27z" />
    <glyph glyph-name="Ograve" unicode="&#xd2;" horiz-adv-x="570" 
d="M42 347q0 194 54 278t192 84t189 -83t51 -279q0 -194 -53.5 -276.5t-192.5 -82.5q-138 0 -189 82t-51 277zM285 98q65 0 87.5 53.5t22.5 195.5t-22.5 197t-87.5 55q-64 0 -87 -55t-23 -197q0 -141 22.5 -195t87.5 -54zM244 748l-92 154h116l68 -154h-92z" />
    <glyph glyph-name="Oacute" unicode="&#xd3;" horiz-adv-x="570" 
d="M42 347q0 194 54 278t192 84t189 -83t51 -279q0 -194 -53.5 -276.5t-192.5 -82.5q-138 0 -189 82t-51 277zM285 98q65 0 87.5 53.5t22.5 195.5t-22.5 197t-87.5 55q-64 0 -87 -55t-23 -197q0 -141 22.5 -195t87.5 -54zM421 902l-92 -154h-92l69 154h115z" />
    <glyph glyph-name="Ocircumflex" unicode="&#xd4;" horiz-adv-x="570" 
d="M42 347q0 194 54 278t192 84t189 -83t51 -279q0 -194 -53.5 -276.5t-192.5 -82.5q-138 0 -189 82t-51 277zM285 98q65 0 87.5 53.5t22.5 195.5t-22.5 197t-87.5 55q-64 0 -87 -55t-23 -197q0 -141 22.5 -195t87.5 -54zM129 748l113 154h90l113 -154h-98l-61 85l-61 -85
h-96z" />
    <glyph glyph-name="Otilde" unicode="&#xd5;" horiz-adv-x="570" 
d="M42 347q0 194 54 278t192 84t189 -83t51 -279q0 -194 -53.5 -276.5t-192.5 -82.5q-138 0 -189 82t-51 277zM285 98q65 0 87.5 53.5t22.5 195.5t-22.5 197t-87.5 55q-64 0 -87 -55t-23 -197q0 -141 22.5 -195t87.5 -54zM163 760l-35 47q35 58 97 58q32 0 71.5 -22
t64.5 -22q27 0 56 36l35 -49q-37 -65 -98 -65q-32 0 -70 22t-63 22t-58 -27z" />
    <glyph glyph-name="Odieresis" unicode="&#xd6;" horiz-adv-x="570" 
d="M42 347q0 194 54 278t192 84t189 -83t51 -279q0 -194 -53.5 -276.5t-192.5 -82.5q-138 0 -189 82t-51 277zM285 98q65 0 87.5 53.5t22.5 195.5t-22.5 197t-87.5 55q-64 0 -87 -55t-23 -197q0 -141 22.5 -195t87.5 -54zM252 748h-116v109h116v-109zM436 748h-115v109h115
v-109z" />
    <glyph glyph-name="multiply" unicode="&#xd7;" horiz-adv-x="515" 
d="M109 91l-73 75l148 148l-149 150l73 74l151 -150l147 149l73 -74l-148 -149l147 -147l-71 -75l-148 149z" />
    <glyph glyph-name="Oslash" unicode="&#xd8;" horiz-adv-x="570" 
d="M42 347q0 194 54 278t192 84q88 0 139 -33l37 64l53 -29l-44 -80q55 -78 55 -284q0 -194 -53.5 -276.5t-192.5 -82.5q-95 0 -148 38l-37 -68l-53 29l48 84q-50 78 -50 276zM285 95q65 0 88.5 55.5t23.5 196.5q0 98 -11 152q-37 -82 -79 -166l-100 -202q24 -36 78 -36z
M181 205q41 87 80 164l99 199q-25 34 -75 34q-65 0 -88.5 -57t-23.5 -198q0 -94 8 -142z" />
    <glyph glyph-name="Ugrave" unicode="&#xd9;" horiz-adv-x="580" 
d="M63 187v510h133v-511q0 -88 93 -88q94 0 94 88v511h133v-510q0 -199 -227 -199q-226 0 -226 199zM247 748l-92 154h116l68 -154h-92z" />
    <glyph glyph-name="Uacute" unicode="&#xda;" horiz-adv-x="580" 
d="M63 187v510h133v-511q0 -88 93 -88q94 0 94 88v511h133v-510q0 -199 -227 -199q-226 0 -226 199zM424 902l-92 -154h-92l69 154h115z" />
    <glyph glyph-name="Ucircumflex" unicode="&#xdb;" horiz-adv-x="580" 
d="M63 187v510h133v-511q0 -88 93 -88q94 0 94 88v511h133v-510q0 -199 -227 -199q-226 0 -226 199zM132 748l113 154h90l113 -154h-98l-61 85l-61 -85h-96z" />
    <glyph glyph-name="Udieresis" unicode="&#xdc;" horiz-adv-x="580" 
d="M63 187v510h133v-511q0 -88 93 -88q94 0 94 88v511h133v-510q0 -199 -227 -199q-226 0 -226 199zM255 748h-116v109h116v-109zM439 748h-115v109h115v-109z" />
    <glyph glyph-name="Yacute" unicode="&#xdd;" horiz-adv-x="506" 
d="M185 0v307l-191 390h144l80 -172q29 -70 34 -83h3q13 34 34 81l83 174h141l-195 -391v-306h-133zM388 902l-92 -154h-92l69 154h115z" />
    <glyph glyph-name="Thorn" unicode="&#xde;" horiz-adv-x="533" 
d="M69 0v697h133v-102h68q124 0 175.5 -49t51.5 -169q0 -227 -228 -227h-67v-150h-133zM202 260h61q57 0 80.5 26.5t23.5 91.5q0 62 -21.5 84t-82.5 22h-61v-224z" />
    <glyph glyph-name="germandbls" unicode="&#xdf;" horiz-adv-x="558" 
d="M63 0v480q0 92 45.5 143t158.5 51q91 0 141 -39t50 -104q0 -39 -25.5 -84.5t-25.5 -72.5q0 -22 19 -43.5t41.5 -39t41.5 -56t19 -90.5q0 -82 -35 -116.5t-129 -34.5q-69 0 -116 17l22 104q44 -11 70 -11q32 0 44 13t12 40q0 23 -12 41t-29.5 31.5t-35 28.5t-29.5 40
t-12 57q0 36 25.5 85.5t25.5 74.5q0 51 -64 51q-40 0 -55 -20.5t-15 -59.5v-486h-132z" />
    <glyph glyph-name="agrave" unicode="&#xe0;" horiz-adv-x="504" 
d="M443 0h-112l-8 45h-2q-71 -54 -150 -54q-131 0 -131 145v8q0 79 38.5 116.5t117.5 46.5q45 5 119 7v16q0 47 -13.5 62.5t-54.5 15.5q-78 0 -165 -30l-24 94q105 40 206 40q90 0 134.5 -39.5t44.5 -146.5v-326zM315 136v94q-60 -2 -90 -8q-58 -11 -58 -72q0 -57 51 -57
q50 0 97 43zM212 577l-92 154h116l68 -154h-92z" />
    <glyph glyph-name="aacute" unicode="&#xe1;" horiz-adv-x="504" 
d="M443 0h-112l-8 45h-2q-71 -54 -150 -54q-131 0 -131 145v8q0 79 38.5 116.5t117.5 46.5q45 5 119 7v16q0 47 -13.5 62.5t-54.5 15.5q-78 0 -165 -30l-24 94q105 40 206 40q90 0 134.5 -39.5t44.5 -146.5v-326zM315 136v94q-60 -2 -90 -8q-58 -11 -58 -72q0 -57 51 -57
q50 0 97 43zM389 731l-92 -154h-92l69 154h115z" />
    <glyph glyph-name="acircumflex" unicode="&#xe2;" horiz-adv-x="504" 
d="M443 0h-112l-8 45h-2q-71 -54 -150 -54q-131 0 -131 145v8q0 79 38.5 116.5t117.5 46.5q45 5 119 7v16q0 47 -13.5 62.5t-54.5 15.5q-78 0 -165 -30l-24 94q105 40 206 40q90 0 134.5 -39.5t44.5 -146.5v-326zM98 577l113 154h90l113 -154h-98l-61 85l-61 -85h-96z
M315 136v94q-60 -2 -90 -8q-58 -11 -58 -72q0 -57 51 -57q50 0 97 43z" />
    <glyph glyph-name="atilde" unicode="&#xe3;" horiz-adv-x="504" 
d="M443 0h-112l-8 45h-2q-71 -54 -150 -54q-131 0 -131 145v8q0 79 38.5 116.5t117.5 46.5q45 5 119 7v16q0 47 -13.5 62.5t-54.5 15.5q-78 0 -165 -30l-24 94q105 40 206 40q90 0 134.5 -39.5t44.5 -146.5v-326zM131 589l-35 47q35 58 97 58q32 0 71.5 -22t64.5 -22
q27 0 56 36l35 -49q-37 -65 -98 -65q-32 0 -69.5 22t-63.5 22q-25 0 -58 -27zM315 136v94q-60 -2 -90 -8q-58 -11 -58 -72q0 -57 51 -57q50 0 97 43z" />
    <glyph glyph-name="adieresis" unicode="&#xe4;" horiz-adv-x="504" 
d="M443 0h-112l-8 45h-2q-71 -54 -150 -54q-131 0 -131 145v8q0 79 38.5 116.5t117.5 46.5q45 5 119 7v16q0 47 -13.5 62.5t-54.5 15.5q-78 0 -165 -30l-24 94q105 40 206 40q90 0 134.5 -39.5t44.5 -146.5v-326zM315 136v94q-60 -2 -90 -8q-58 -11 -58 -72q0 -57 51 -57
q50 0 97 43zM220 577h-116v109h116v-109zM404 577h-115v109h115v-109z" />
    <glyph glyph-name="aring" unicode="&#xe5;" horiz-adv-x="504" 
d="M443 0h-112l-8 45h-2q-71 -54 -150 -54q-131 0 -131 145v8q0 79 38.5 116.5t117.5 46.5q45 5 119 7v16q0 47 -13.5 62.5t-54.5 15.5q-78 0 -165 -30l-24 94q105 40 206 40q90 0 134.5 -39.5t44.5 -146.5v-326zM145 675q0 48 29.5 76.5t79.5 28.5t79.5 -28.5t29.5 -76.5
t-29.5 -76.5t-79.5 -28.5t-79.5 28.5t-29.5 76.5zM315 136v94q-60 -2 -90 -8q-58 -11 -58 -72q0 -57 51 -57q50 0 97 43zM207 675q0 -23 12.5 -36.5t34.5 -13.5t35 13.5t13 36.5t-13 36.5t-35 13.5t-34.5 -13.5t-12.5 -36.5z" />
    <glyph glyph-name="ae" unicode="&#xe6;" horiz-adv-x="759" 
d="M266 512q87 0 122 -48q41 49 143 49q58 0 98.5 -16t59 -43t26 -51.5t7.5 -51.5q0 -79 -28.5 -107t-113.5 -28q-76 0 -135 16v-7q1 -74 22 -103t75 -29q62 0 147 26l21 -93q-24 -12 -75 -23.5t-112 -11.5q-127 0 -173 71q-71 -71 -175 -71q-135 0 -135 145v8
q0 79 38.5 116.5t119.5 46.5q41 5 119 7v16q0 47 -13.5 62.5t-54.5 15.5q-81 0 -166 -30l-25 94q35 13 95.5 26.5t112.5 13.5zM217 93q66 0 104 52q-7 44 -7 85q-62 -2 -88 -8q-59 -11 -59 -72q0 -57 50 -57zM448 319q45 -15 96 -15q29 0 39.5 11.5t10.5 38.5q0 65 -66 65
q-37 0 -57 -22.5t-23 -77.5z" />
    <glyph glyph-name="ccedilla" unicode="&#xe7;" horiz-adv-x="421" 
d="M140 -214l14 57q41 -11 66 -11q41 0 41 23q0 13 -12.5 22.5t-27.5 15.5t-27.5 19.5t-12.5 33.5q0 24 17 48q-89 11 -124 73.5t-35 182.5q0 129 46.5 195.5t164.5 66.5q77 0 138 -21l-19 -100q-54 13 -96 13q-57 0 -79.5 -36t-22.5 -118q0 -87 21.5 -119t78.5 -32
q37 0 99 15l23 -99q-56 -21 -131 -24q-11 -17 -11 -32q0 -12 13 -21t29 -15.5t29.5 -24t13.5 -43.5q0 -45 -26 -64t-84 -19q-17 0 -38.5 3.5t-34.5 6.5z" />
    <glyph glyph-name="egrave" unicode="&#xe8;" horiz-adv-x="484" 
d="M39 251q0 133 46 198.5t171 65.5q58 0 98.5 -16.5t59.5 -43.5t26 -52t7 -52q0 -80 -27.5 -107.5t-116.5 -27.5q-75 0 -133 16v-7q1 -74 22 -103t75 -29q63 0 147 26l21 -93q-24 -12 -75.5 -23.5t-112.5 -11.5q-119 0 -163.5 60.5t-44.5 199.5zM213 577l-92 154h116
l68 -154h-92zM173 319q45 -15 96 -15q31 0 40.5 12t9.5 38q0 65 -66 65q-37 0 -57 -22.5t-23 -77.5z" />
    <glyph glyph-name="eacute" unicode="&#xe9;" horiz-adv-x="484" 
d="M39 251q0 133 46 198.5t171 65.5q58 0 98.5 -16.5t59.5 -43.5t26 -52t7 -52q0 -80 -27.5 -107.5t-116.5 -27.5q-75 0 -133 16v-7q1 -74 22 -103t75 -29q63 0 147 26l21 -93q-24 -12 -75.5 -23.5t-112.5 -11.5q-119 0 -163.5 60.5t-44.5 199.5zM390 731l-92 -154h-92
l69 154h115zM173 319q45 -15 96 -15q31 0 40.5 12t9.5 38q0 65 -66 65q-37 0 -57 -22.5t-23 -77.5z" />
    <glyph glyph-name="ecircumflex" unicode="&#xea;" horiz-adv-x="484" 
d="M39 251q0 133 46 198.5t171 65.5q58 0 98.5 -16.5t59.5 -43.5t26 -52t7 -52q0 -80 -27.5 -107.5t-116.5 -27.5q-75 0 -133 16v-7q1 -74 22 -103t75 -29q63 0 147 26l21 -93q-24 -12 -75.5 -23.5t-112.5 -11.5q-119 0 -163.5 60.5t-44.5 199.5zM98 577l113 154h90
l113 -154h-98l-61 85l-61 -85h-96zM173 319q45 -15 96 -15q31 0 40.5 12t9.5 38q0 65 -66 65q-37 0 -57 -22.5t-23 -77.5z" />
    <glyph glyph-name="edieresis" unicode="&#xeb;" horiz-adv-x="484" 
d="M39 251q0 133 46 198.5t171 65.5q58 0 98.5 -16.5t59.5 -43.5t26 -52t7 -52q0 -80 -27.5 -107.5t-116.5 -27.5q-75 0 -133 16v-7q1 -74 22 -103t75 -29q63 0 147 26l21 -93q-24 -12 -75.5 -23.5t-112.5 -11.5q-119 0 -163.5 60.5t-44.5 199.5zM173 319q45 -15 96 -15
q31 0 40.5 12t9.5 38q0 65 -66 65q-37 0 -57 -22.5t-23 -77.5zM221 577h-116v109h116v-109zM405 577h-115v109h115v-109z" />
    <glyph glyph-name="igrave" unicode="&#xec;" horiz-adv-x="265" 
d="M67 0v503h131v-503h-131zM92 577l-92 154h116l68 -154h-92z" />
    <glyph glyph-name="iacute" unicode="&#xed;" horiz-adv-x="265" 
d="M67 0v503h131v-503h-131zM269 731l-92 -154h-92l69 154h115z" />
    <glyph glyph-name="icircumflex" unicode="&#xee;" horiz-adv-x="265" 
d="M67 0v503h131v-503h-131zM-23 577l113 154h90l113 -154h-98l-61 85l-61 -85h-96z" />
    <glyph glyph-name="idieresis" unicode="&#xef;" horiz-adv-x="265" 
d="M67 0v503h131v-503h-131zM100 577h-116v109h116v-109zM284 577h-115v109h115v-109z" />
    <glyph glyph-name="eth" unicode="&#xf0;" horiz-adv-x="502" 
d="M393 627l-47 -23q69 -64 92.5 -153t23.5 -215q-1 -126 -46.5 -187t-168.5 -61q-119 0 -163.5 61t-44.5 188q0 246 186 246q45 0 83 -15q-18 50 -64 87l-111 -54l-26 51l79 39q-41 19 -77 29l34 87q89 -25 150 -63l74 36zM330 236q0 98 -11 130q-24 13 -69 13
q-79 0 -79 -142q0 -77 17 -109t61 -32q45 0 63 31.5t18 108.5z" />
    <glyph glyph-name="ntilde" unicode="&#xf1;" horiz-adv-x="530" 
d="M63 0v503h116l8 -45h2q68 54 149 54q129 0 129 -148v-364h-131v340q0 64 -49 64q-45 0 -92 -43v-361h-132zM143 589l-35 47q35 58 97 58q32 0 71.5 -22t64.5 -22q27 0 56 36l35 -49q-37 -65 -98 -65q-32 0 -69.5 22t-63.5 22q-25 0 -58 -27z" />
    <glyph glyph-name="ograve" unicode="&#xf2;" horiz-adv-x="503" 
d="M247 -12q-122 0 -165 60t-43 196q0 137 46.5 204t168.5 67t166 -66.5t44 -204.5q0 -134 -46.5 -195t-170.5 -61zM251 96q47 0 64 31.5t17 118.5q0 86 -17.5 123.5t-63.5 37.5q-45 0 -62.5 -37.5t-17.5 -123.5q0 -87 17 -118.5t63 -31.5zM209 577l-92 154h116l68 -154h-92
z" />
    <glyph glyph-name="oacute" unicode="&#xf3;" horiz-adv-x="503" 
d="M247 -12q-122 0 -165 60t-43 196q0 137 46.5 204t168.5 67t166 -66.5t44 -204.5q0 -134 -46.5 -195t-170.5 -61zM251 96q47 0 64 31.5t17 118.5q0 86 -17.5 123.5t-63.5 37.5q-45 0 -62.5 -37.5t-17.5 -123.5q0 -87 17 -118.5t63 -31.5zM386 731l-92 -154h-92l69 154h115
z" />
    <glyph glyph-name="ocircumflex" unicode="&#xf4;" horiz-adv-x="503" 
d="M247 -12q-122 0 -165 60t-43 196q0 137 46.5 204t168.5 67t166 -66.5t44 -204.5q0 -134 -46.5 -195t-170.5 -61zM251 96q47 0 64 31.5t17 118.5q0 86 -17.5 123.5t-63.5 37.5q-45 0 -62.5 -37.5t-17.5 -123.5q0 -87 17 -118.5t63 -31.5zM95 577l113 154h90l113 -154h-98
l-61 85l-61 -85h-96z" />
    <glyph glyph-name="otilde" unicode="&#xf5;" horiz-adv-x="503" 
d="M247 -12q-122 0 -165 60t-43 196q0 137 46.5 204t168.5 67t166 -66.5t44 -204.5q0 -134 -46.5 -195t-170.5 -61zM251 96q47 0 64 31.5t17 118.5q0 86 -17.5 123.5t-63.5 37.5q-45 0 -62.5 -37.5t-17.5 -123.5q0 -87 17 -118.5t63 -31.5zM128 589l-35 47q35 58 97 58
q32 0 71.5 -22t64.5 -22q27 0 56 36l35 -49q-37 -65 -98 -65q-31 0 -69 22t-64 22q-25 0 -58 -27z" />
    <glyph glyph-name="odieresis" unicode="&#xf6;" horiz-adv-x="503" 
d="M247 -12q-122 0 -165 60t-43 196q0 137 46.5 204t168.5 67t166 -66.5t44 -204.5q0 -134 -46.5 -195t-170.5 -61zM251 96q47 0 64 31.5t17 118.5q0 86 -17.5 123.5t-63.5 37.5q-45 0 -62.5 -37.5t-17.5 -123.5q0 -87 17 -118.5t63 -31.5zM217 577h-116v109h116v-109z
M401 577h-115v109h115v-109z" />
    <glyph glyph-name="divide" unicode="&#xf7;" horiz-adv-x="515" 
d="M191 437v111h133v-111h-133zM191 78v111h133v-111h-133zM48 263v101h419v-101h-419z" />
    <glyph glyph-name="oslash" unicode="&#xf8;" horiz-adv-x="503" 
d="M247 -12q-75 0 -121 23l-35 -53l-50 34l39 58q-41 55 -41 194q0 137 46.5 204t168.5 67q76 0 121 -27l37 56l51 -33l-43 -64q44 -60 44 -203q0 -134 -46.5 -195t-170.5 -61zM173 164q16 32 73 121l62 97q-20 27 -57 27q-45 0 -64 -39t-19 -124q0 -56 5 -82zM251 94
q47 0 65.5 33t18.5 119q0 59 -8 91q-7 -23 -79 -137l-54 -85q18 -21 57 -21z" />
    <glyph glyph-name="ugrave" unicode="&#xf9;" horiz-adv-x="530" 
d="M62 503h132v-341q0 -34 12 -48.5t38 -14.5q44 0 91 43v361h132v-503h-116l-8 45h-2q-71 -54 -149 -54q-130 0 -130 149v363zM221 577l-92 154h116l68 -154h-92z" />
    <glyph glyph-name="uacute" unicode="&#xfa;" horiz-adv-x="530" 
d="M62 503h132v-341q0 -34 12 -48.5t38 -14.5q44 0 91 43v361h132v-503h-116l-8 45h-2q-71 -54 -149 -54q-130 0 -130 149v363zM398 731l-92 -154h-92l69 154h115z" />
    <glyph glyph-name="ucircumflex" unicode="&#xfb;" horiz-adv-x="530" 
d="M62 503h132v-341q0 -34 12 -48.5t38 -14.5q44 0 91 43v361h132v-503h-116l-8 45h-2q-71 -54 -149 -54q-130 0 -130 149v363zM107 577l113 154h90l113 -154h-98l-61 85l-61 -85h-96z" />
    <glyph glyph-name="udieresis" unicode="&#xfc;" horiz-adv-x="530" 
d="M62 503h132v-341q0 -34 12 -48.5t38 -14.5q44 0 91 43v361h132v-503h-116l-8 45h-2q-71 -54 -149 -54q-130 0 -130 149v363zM229 577h-116v109h116v-109zM413 577h-115v109h115v-109z" />
    <glyph glyph-name="yacute" unicode="&#xfd;" horiz-adv-x="527" 
d="M189 0q-129 0 -129 149v354h131v-333q0 -62 49 -62t92 39v356h132v-514q0 -92 -40.5 -137t-113.5 -62q-65 -14 -142 -23l-18 99q81 14 122 27q34 10 49.5 31t15.5 65v60h-2q-61 -49 -146 -49zM396 731l-92 -154h-92l69 154h115z" />
    <glyph glyph-name="thorn" unicode="&#xfe;" horiz-adv-x="514" 
d="M63 722h132v-158q0 -24 -0.5 -48t-1.5 -38.5t-1 -15.5h2q64 50 134 50q74 0 110.5 -50.5t36.5 -182.5q0 -156 -45 -222t-158 -66q-38 0 -80 6q3 -39 3 -84v-136h-132v945zM259 99q46 0 65 31.5t19 134.5q0 85 -14 112t-45 27q-45 0 -89 -44v-250q25 -11 64 -11z" />
    <glyph glyph-name="ydieresis" unicode="&#xff;" horiz-adv-x="527" 
d="M189 0q-129 0 -129 149v354h131v-333q0 -62 49 -62t92 39v356h132v-514q0 -92 -40.5 -137t-113.5 -62q-65 -14 -142 -23l-18 99q81 14 122 27q34 10 49.5 31t15.5 65v60h-2q-61 -49 -146 -49zM227 577h-116v109h116v-109zM411 577h-115v109h115v-109z" />
    <glyph glyph-name="Amacron" unicode="&#x100;" 
d="M13 0l151 697h201l150 -697h-134l-32 157h-174l-31 -157h-131zM189 254h145l-68 337h-5zM404 748h-280v79h280v-79z" />
    <glyph glyph-name="amacron" unicode="&#x101;" horiz-adv-x="504" 
d="M443 0h-112l-8 45h-2q-71 -54 -150 -54q-131 0 -131 145v8q0 79 38.5 116.5t117.5 46.5q45 5 119 7v16q0 47 -13.5 62.5t-54.5 15.5q-78 0 -165 -30l-24 94q105 40 206 40q90 0 134.5 -39.5t44.5 -146.5v-326zM395 577h-280v79h280v-79zM315 136v94q-60 -2 -90 -8
q-58 -11 -58 -72q0 -57 51 -57q50 0 97 43z" />
    <glyph glyph-name="Abreve" unicode="&#x102;" 
d="M13 0l151 697h201l150 -697h-134l-32 157h-174l-31 -157h-131zM189 254h145l-68 337h-5zM111 893h80q5 -76 72 -76t73 76h81q-15 -150 -154 -150q-144 0 -152 150z" />
    <glyph glyph-name="abreve" unicode="&#x103;" horiz-adv-x="504" 
d="M443 0h-112l-8 45h-2q-71 -54 -150 -54q-131 0 -131 145v8q0 79 38.5 116.5t117.5 46.5q45 5 119 7v16q0 47 -13.5 62.5t-54.5 15.5q-78 0 -165 -30l-24 94q105 40 206 40q90 0 134.5 -39.5t44.5 -146.5v-326zM103 722h80q5 -76 72 -76t73 76h81q-15 -150 -154 -150
q-144 0 -152 150zM315 136v94q-60 -2 -90 -8q-58 -11 -58 -72q0 -57 51 -57q50 0 97 43z" />
    <glyph glyph-name="Aogonek" unicode="&#x104;" 
d="M485 -223h-3q-79 0 -120.5 25t-41.5 85q0 65 61 114l-32 156h-174l-31 -157h-131l151 697h201l150 -697h-45q-63 -48 -63 -96q0 -23 15 -34.5t61 -11.5h2v-81zM189 254h145l-68 337h-5z" />
    <glyph glyph-name="aogonek" unicode="&#x105;" horiz-adv-x="504" 
d="M432 -223h-3q-79 0 -120.5 25t-41.5 85q0 66 63 116l-7 42h-2q-71 -54 -150 -54q-131 0 -131 145v8q0 79 38.5 116.5t117.5 46.5q45 5 119 7v16q0 47 -13.5 62.5t-54.5 15.5q-78 0 -165 -30l-24 94q105 40 206 40q90 0 134.5 -39.5t44.5 -146.5v-326h-26q-63 -48 -63 -96
q0 -23 15 -34.5t61 -11.5h2v-81zM315 136v94q-60 -2 -90 -8q-58 -11 -58 -72q0 -57 51 -57q50 0 97 43z" />
    <glyph glyph-name="Cacute" unicode="&#x106;" horiz-adv-x="477" 
d="M432 118l19 -102q-77 -25 -163 -25q-89 0 -141 30.5t-78.5 108.5t-26.5 216q0 193 54 276.5t194 83.5q95 0 157 -22l-18 -101q-75 13 -120 13q-53 0 -79 -16.5t-40.5 -71t-14.5 -162.5q0 -107 13.5 -159t40 -69t81.5 -17q35 0 122 17zM417 902l-92 -154h-92l69 154h115z
" />
    <glyph glyph-name="cacute" unicode="&#x107;" horiz-adv-x="421" 
d="M39 250q0 129 46.5 195.5t164.5 66.5q77 0 138 -21l-19 -100q-54 13 -96 13q-57 0 -79.5 -36t-22.5 -118q0 -87 21.5 -119t78.5 -32q37 0 99 15l23 -99q-65 -24 -149 -24q-117 0 -161 63t-44 196zM379 731l-92 -154h-92l69 154h115z" />
    <glyph glyph-name="Ccircumflex" unicode="&#x108;" horiz-adv-x="477" 
d="M432 118l19 -102q-77 -25 -163 -25q-89 0 -141 30.5t-78.5 108.5t-26.5 216q0 193 54 276.5t194 83.5q95 0 157 -22l-18 -101q-75 13 -120 13q-53 0 -79 -16.5t-40.5 -71t-14.5 -162.5q0 -107 13.5 -159t40 -69t81.5 -17q35 0 122 17zM125 748l113 154h90l113 -154h-98
l-61 85l-61 -85h-96z" />
    <glyph glyph-name="ccircumflex" unicode="&#x109;" horiz-adv-x="421" 
d="M39 250q0 129 46.5 195.5t164.5 66.5q77 0 138 -21l-19 -100q-54 13 -96 13q-57 0 -79.5 -36t-22.5 -118q0 -87 21.5 -119t78.5 -32q37 0 99 15l23 -99q-65 -24 -149 -24q-117 0 -161 63t-44 196zM87 577l113 154h90l113 -154h-98l-61 85l-61 -85h-96z" />
    <glyph glyph-name="Cdotaccent" unicode="&#x10a;" horiz-adv-x="477" 
d="M432 118l19 -102q-77 -25 -163 -25q-89 0 -141 30.5t-78.5 108.5t-26.5 216q0 193 54 276.5t194 83.5q95 0 157 -22l-18 -101q-75 13 -120 13q-53 0 -79 -16.5t-40.5 -71t-14.5 -162.5q0 -107 13.5 -159t40 -69t81.5 -17q35 0 122 17zM346 748h-130v102h130v-102z" />
    <glyph glyph-name="cdotaccent" unicode="&#x10b;" horiz-adv-x="421" 
d="M39 250q0 129 46.5 195.5t164.5 66.5q77 0 138 -21l-19 -100q-54 13 -96 13q-57 0 -79.5 -36t-22.5 -118q0 -87 21.5 -119t78.5 -32q37 0 99 15l23 -99q-65 -24 -149 -24q-117 0 -161 63t-44 196zM309 577h-130v102h130v-102z" />
    <glyph glyph-name="Ccaron" unicode="&#x10c;" horiz-adv-x="477" 
d="M432 118l19 -102q-77 -25 -163 -25q-89 0 -141 30.5t-78.5 108.5t-26.5 216q0 193 54 276.5t194 83.5q95 0 157 -22l-18 -101q-75 13 -120 13q-53 0 -79 -16.5t-40.5 -71t-14.5 -162.5q0 -107 13.5 -159t40 -69t81.5 -17q35 0 122 17zM238 748l-112 154h99l60 -85l61 85
h96l-113 -154h-91z" />
    <glyph glyph-name="ccaron" unicode="&#x10d;" horiz-adv-x="421" 
d="M39 250q0 129 46.5 195.5t164.5 66.5q77 0 138 -21l-19 -100q-54 13 -96 13q-57 0 -79.5 -36t-22.5 -118q0 -87 21.5 -119t78.5 -32q37 0 99 15l23 -99q-65 -24 -149 -24q-117 0 -161 63t-44 196zM200 577l-112 154h99l60 -85l61 85h96l-113 -154h-91z" />
    <glyph glyph-name="Dcaron" unicode="&#x10e;" horiz-adv-x="566" 
d="M220 0h-151v697h150q77 0 127.5 -10t86.5 -31.5t55 -63.5t27.5 -98.5t8.5 -143.5q0 -74 -4.5 -125t-18 -92t-34.5 -65t-56 -40t-80.5 -22t-110.5 -6zM202 110h27q56 0 84 6.5t48 32.5t25.5 71.5t5.5 130.5q0 84 -6.5 130t-27.5 70.5t-47.5 30t-80.5 5.5h-28v-477z
M225 748l-112 154h99l60 -85l61 85h96l-113 -154h-91z" />
    <glyph glyph-name="dcaron" unicode="&#x10f;" horiz-adv-x="597" 
d="M39 224q0 111 24.5 176t65 88.5t103.5 23.5q44 0 87 -13h3q-3 38 -3 98v125h132v-722h-116l-7 45h-3q-71 -54 -139 -54q-74 0 -110.5 50.5t-36.5 182.5zM319 142v251q-31 11 -64 11q-30 0 -46.5 -10.5t-27 -48t-10.5 -108.5q0 -84 14.5 -111t45.5 -27q43 0 88 43z
M584 548h-95q31 71 32 175h98q0 -105 -35 -175z" />
    <glyph glyph-name="Dcroat" unicode="&#x110;" horiz-adv-x="566" 
d="M11 317v77h58v303h150q77 0 127.5 -10t86.5 -31.5t55 -63.5t27.5 -98.5t8.5 -143.5q0 -74 -4.5 -125t-18 -92t-34.5 -65t-56 -40t-80.5 -22t-110.5 -6h-151v317h-58zM202 110h27q56 0 84 6.5t48 32.5t25.5 71.5t5.5 130.5q0 84 -6.5 130t-27.5 70.5t-47.5 30t-80.5 5.5
h-28v-193h95v-77h-95v-207z" />
    <glyph glyph-name="dcroat" unicode="&#x111;" horiz-adv-x="514" 
d="M210 572v78h109v72h132v-72h40v-78h-40v-572h-116l-7 45h-3q-71 -54 -139 -54q-74 0 -110.5 50.5t-36.5 182.5q0 111 24.5 176t65 88.5t103.5 23.5q44 0 87 -13h3q-3 28 -3 73h-109zM319 142v251q-31 11 -64 11q-30 0 -46.5 -10.5t-27 -48t-10.5 -108.5q0 -84 14.5 -111
t45.5 -27q43 0 88 43z" />
    <glyph glyph-name="Emacron" unicode="&#x112;" horiz-adv-x="489" 
d="M69 0v697h382v-110h-249v-172h199v-106h-199v-199h254v-110h-387zM400 748h-280v79h280v-79z" />
    <glyph glyph-name="emacron" unicode="&#x113;" horiz-adv-x="484" 
d="M39 251q0 133 46 198.5t171 65.5q58 0 98.5 -16.5t59.5 -43.5t26 -52t7 -52q0 -80 -27.5 -107.5t-116.5 -27.5q-75 0 -133 16v-7q1 -74 22 -103t75 -29q63 0 147 26l21 -93q-24 -12 -75.5 -23.5t-112.5 -11.5q-119 0 -163.5 60.5t-44.5 199.5zM396 577h-280v79h280v-79z
M173 319q45 -15 96 -15q31 0 40.5 12t9.5 38q0 65 -66 65q-37 0 -57 -22.5t-23 -77.5z" />
    <glyph glyph-name="Ebreve" unicode="&#x114;" horiz-adv-x="490" 
d="M69 0v697h382v-110h-249v-172h199v-106h-199v-199h254v-110h-387zM111 893h80q5 -76 72 -76t73 76h81q-15 -150 -154 -150q-144 0 -152 150z" />
    <glyph glyph-name="ebreve" unicode="&#x115;" horiz-adv-x="484" 
d="M39 251q0 133 46 198.5t171 65.5q58 0 98.5 -16.5t59.5 -43.5t26 -52t7 -52q0 -80 -27.5 -107.5t-116.5 -27.5q-75 0 -133 16v-7q1 -74 22 -103t75 -29q63 0 147 26l21 -93q-24 -12 -75.5 -23.5t-112.5 -11.5q-119 0 -163.5 60.5t-44.5 199.5zM103 722h80q5 -76 72 -76
t73 76h81q-15 -150 -154 -150q-144 0 -152 150zM173 319q45 -15 96 -15q31 0 40.5 12t9.5 38q0 65 -66 65q-37 0 -57 -22.5t-23 -77.5z" />
    <glyph glyph-name="Edotaccent" unicode="&#x116;" horiz-adv-x="489" 
d="M69 0v697h382v-110h-249v-172h199v-106h-199v-199h254v-110h-387zM324 748h-130v102h130v-102z" />
    <glyph glyph-name="edotaccent" unicode="&#x117;" horiz-adv-x="484" 
d="M39 251q0 133 46 198.5t171 65.5q58 0 98.5 -16.5t59.5 -43.5t26 -52t7 -52q0 -80 -27.5 -107.5t-116.5 -27.5q-75 0 -133 16v-7q1 -74 22 -103t75 -29q63 0 147 26l21 -93q-24 -12 -75.5 -23.5t-112.5 -11.5q-119 0 -163.5 60.5t-44.5 199.5zM173 319q45 -15 96 -15
q31 0 40.5 12t9.5 38q0 65 -66 65q-37 0 -57 -22.5t-23 -77.5zM319 577h-130v102h130v-102z" />
    <glyph glyph-name="Eogonek" unicode="&#x118;" horiz-adv-x="489" 
d="M69 0v697h382v-110h-249v-172h199v-106h-199v-199h254v-110h-63q-62 -47 -62 -95q-1 -23 14 -35t61 -12h2v-81h-3q-79 0 -120.5 25.5t-41.5 84.5q0 65 64 113h-238z" />
    <glyph glyph-name="eogonek" unicode="&#x119;" horiz-adv-x="484" 
d="M39 251q0 133 46 198.5t171 65.5q58 0 98.5 -16.5t59.5 -43.5t26 -52t7 -52q0 -80 -27.5 -107.5t-116.5 -27.5q-75 0 -133 16v-7q1 -74 22 -103t75 -29q63 0 147 26l21 -93q-47 -28 -69.5 -60t-22.5 -59q0 -24 14 -36.5t57 -12.5h16v-81h-14q-160 0 -160 111q0 58 48 106
q-27 -3 -57 -3q-119 0 -163.5 60.5t-44.5 199.5zM173 319q45 -15 96 -15q31 0 40.5 12t9.5 38q0 65 -66 65q-37 0 -57 -22.5t-23 -77.5z" />
    <glyph glyph-name="Ecaron" unicode="&#x11a;" horiz-adv-x="489" 
d="M69 0v697h382v-110h-249v-172h199v-106h-199v-199h254v-110h-387zM215 748l-112 154h99l60 -85l61 85h96l-113 -154h-91z" />
    <glyph glyph-name="ecaron" unicode="&#x11b;" horiz-adv-x="484" 
d="M39 251q0 133 46 198.5t171 65.5q58 0 98.5 -16.5t59.5 -43.5t26 -52t7 -52q0 -80 -27.5 -107.5t-116.5 -27.5q-75 0 -133 16v-7q1 -74 22 -103t75 -29q63 0 147 26l21 -93q-24 -12 -75.5 -23.5t-112.5 -11.5q-119 0 -163.5 60.5t-44.5 199.5zM211 577l-112 154h99
l60 -85l61 85h96l-113 -154h-91zM173 319q45 -15 96 -15q31 0 40.5 12t9.5 38q0 65 -66 65q-37 0 -57 -22.5t-23 -77.5z" />
    <glyph glyph-name="Gcircumflex" unicode="&#x11c;" horiz-adv-x="532" 
d="M42 351q0 190 54 272.5t193 82.5q97 0 177 -25l-18 -102q-109 17 -145 17q-49 0 -74.5 -16.5t-39.5 -70t-14 -158.5q0 -108 13.5 -162.5t38.5 -71t75 -16.5q28 0 54 6v275h127v-358q-82 -33 -195 -33q-90 0 -141.5 31t-78 110t-26.5 219zM129 748l113 154h90l113 -154
h-98l-61 85l-61 -85h-96z" />
    <glyph glyph-name="gcircumflex" unicode="&#x11d;" horiz-adv-x="514" 
d="M156 -233l-19 99q79 13 122 27q34 10 49.5 31.5t15.5 67.5v57h-2q-64 -49 -137 -49t-109.5 49t-36.5 175q0 164 48.5 226t154.5 62q109 0 209 -40v-483q0 -93 -40.5 -137.5t-113.5 -61.5q-66 -15 -141 -23zM171 242q0 -82 14.5 -108t45.5 -26q48 0 88 40v245
q-25 11 -64 11q-22 0 -36 -5.5t-25.5 -22t-17 -49.5t-5.5 -85zM104 577l113 154h90l113 -154h-98l-61 85l-61 -85h-96z" />
    <glyph glyph-name="Gbreve" unicode="&#x11e;" horiz-adv-x="532" 
d="M42 351q0 190 54 272.5t193 82.5q97 0 177 -25l-18 -102q-109 17 -145 17q-49 0 -74.5 -16.5t-39.5 -70t-14 -158.5q0 -108 13.5 -162.5t38.5 -71t75 -16.5q28 0 54 6v275h127v-358q-82 -33 -195 -33q-90 0 -141.5 31t-78 110t-26.5 219zM134 893h80q5 -76 72 -76t73 76
h81q-15 -150 -154 -150q-144 0 -152 150z" />
    <glyph glyph-name="gbreve" unicode="&#x11f;" horiz-adv-x="514" 
d="M156 -233l-19 99q79 13 122 27q34 10 49.5 31.5t15.5 67.5v57h-2q-64 -49 -137 -49t-109.5 49t-36.5 175q0 164 48.5 226t154.5 62q109 0 209 -40v-483q0 -93 -40.5 -137.5t-113.5 -61.5q-66 -15 -141 -23zM171 242q0 -82 14.5 -108t45.5 -26q48 0 88 40v245
q-25 11 -64 11q-22 0 -36 -5.5t-25.5 -22t-17 -49.5t-5.5 -85zM109 722h80q5 -76 72 -76t73 76h81q-15 -150 -154 -150q-144 0 -152 150z" />
    <glyph glyph-name="Gdotaccent" unicode="&#x120;" horiz-adv-x="532" 
d="M42 351q0 190 54 272.5t193 82.5q97 0 177 -25l-18 -102q-109 17 -145 17q-49 0 -74.5 -16.5t-39.5 -70t-14 -158.5q0 -108 13.5 -162.5t38.5 -71t75 -16.5q28 0 54 6v275h127v-358q-82 -33 -195 -33q-90 0 -141.5 31t-78 110t-26.5 219zM350 748h-130v102h130v-102z" />
    <glyph glyph-name="gdotaccent" unicode="&#x121;" horiz-adv-x="514" 
d="M156 -233l-19 99q79 13 122 27q34 10 49.5 31.5t15.5 67.5v57h-2q-64 -49 -137 -49t-109.5 49t-36.5 175q0 164 48.5 226t154.5 62q109 0 209 -40v-483q0 -93 -40.5 -137.5t-113.5 -61.5q-66 -15 -141 -23zM171 242q0 -82 14.5 -108t45.5 -26q48 0 88 40v245
q-25 11 -64 11q-22 0 -36 -5.5t-25.5 -22t-17 -49.5t-5.5 -85zM325 577h-130v102h130v-102z" />
    <glyph glyph-name="uni0122" unicode="&#x122;" horiz-adv-x="532" 
d="M42 351q0 190 54 272.5t193 82.5q97 0 177 -25l-18 -102q-109 17 -145 17q-49 0 -74.5 -16.5t-39.5 -70t-14 -158.5q0 -108 13.5 -162.5t38.5 -71t75 -16.5q28 0 54 6v275h127v-358q-82 -33 -195 -33q-90 0 -141.5 31t-78 110t-26.5 219zM304 -222h-95q21 61 24 153h97
q0 -95 -26 -153z" />
    <glyph glyph-name="uni0123" unicode="&#x123;" horiz-adv-x="514" 
d="M156 -233l-19 99q79 13 122 27q34 10 49.5 31.5t15.5 67.5v57h-2q-64 -49 -137 -49t-109.5 49t-36.5 175q0 164 48.5 226t154.5 62q109 0 209 -40v-483q0 -93 -40.5 -137.5t-113.5 -61.5q-66 -15 -141 -23zM171 242q0 -82 14.5 -108t45.5 -26q48 0 88 40v245
q-25 11 -64 11q-22 0 -36 -5.5t-25.5 -22t-17 -49.5t-5.5 -85zM247 752h95q-31 -69 -32 -175h-97q0 109 34 175z" />
    <glyph glyph-name="Hcircumflex" unicode="&#x124;" horiz-adv-x="592" 
d="M69 0v697h133v-281h188v281h133v-697h-133v306h-188v-306h-133zM139 748l113 154h90l113 -154h-98l-61 85l-61 -85h-96z" />
    <glyph glyph-name="hcircumflex" unicode="&#x125;" horiz-adv-x="527" 
d="M63 0v722h132v-163l-3 -97h3q61 50 143 50q129 0 129 -148v-364h-131v340q0 64 -49 64q-45 0 -92 -43v-361h-132zM105 754l113 154h90l113 -154h-98l-61 85l-61 -85h-96z" />
    <glyph glyph-name="Hbar" unicode="&#x126;" horiz-adv-x="592" 
d="M21 516v78h48v103h133v-103h188v103h133v-103h41v-78h-41v-516h-133v306h-188v-306h-133v516h-48zM202 416h188v100h-188v-100z" />
    <glyph glyph-name="hbar" unicode="&#x127;" horiz-adv-x="527" 
d="M7 568v78h56v76h132v-76h93v-78h-93v-9l-3 -97h3q61 50 143 50q129 0 129 -148v-364h-131v340q0 64 -49 64q-45 0 -92 -43v-361h-132v568h-56z" />
    <glyph glyph-name="Itilde" unicode="&#x128;" horiz-adv-x="270" 
d="M69 0v697h133v-697h-133zM11 760l-35 47q35 58 97 58q32 0 71.5 -22t64.5 -22q27 0 56 36l35 -49q-37 -65 -98 -65q-32 0 -70 22t-63 22t-58 -27z" />
    <glyph glyph-name="itilde" unicode="&#x129;" horiz-adv-x="265" 
d="M67 0v503h131v-503h-131zM10 589l-35 47q35 58 97 58q32 0 71.5 -22t64.5 -22q27 0 56 36l35 -49q-37 -65 -98 -65q-31 0 -69 22t-64 22q-25 0 -58 -27z" />
    <glyph glyph-name="Imacron" unicode="&#x12a;" horiz-adv-x="270" 
d="M69 0v697h133v-697h-133zM275 748h-280v79h280v-79z" />
    <glyph glyph-name="imacron" unicode="&#x12b;" horiz-adv-x="265" 
d="M67 0v503h131v-503h-131zM274 577h-280v79h280v-79z" />
    <glyph glyph-name="Ibreve" unicode="&#x12c;" horiz-adv-x="270" 
d="M69 0v697h133v-697h-133zM-18 893h80q5 -76 72 -76t73 76h81q-15 -150 -154 -150q-144 0 -152 150z" />
    <glyph glyph-name="ibreve" unicode="&#x12d;" horiz-adv-x="265" 
d="M67 0v503h131v-503h-131zM-18 722h80q5 -76 72 -76t73 76h81q-15 -150 -154 -150q-144 0 -152 150z" />
    <glyph glyph-name="Iogonek" unicode="&#x12e;" horiz-adv-x="270" 
d="M69 0v697h133v-697h-17q-63 -48 -63 -96q0 -23 15 -34.5t61 -11.5h2v-81h-3q-79 0 -120.5 25t-41.5 85q0 63 59 113h-25z" />
    <glyph glyph-name="iogonek" unicode="&#x12f;" horiz-adv-x="265" 
d="M67 0v503h131v-503q-63 -48 -63 -96q0 -23 15 -34.5t61 -11.5h2v-81h-3q-79 0 -120.5 25t-41.5 85q0 63 59 113h-40zM64 589v108h137v-108h-137z" />
    <glyph glyph-name="Idotaccent" unicode="&#x130;" horiz-adv-x="270" 
d="M69 0v697h133v-697h-133zM199 748h-130v102h130v-102z" />
    <glyph glyph-name="dotlessi" unicode="&#x131;" horiz-adv-x="265" 
d="M67 0v503h131v-503h-131z" />
    <glyph glyph-name="IJ" unicode="&#x132;" horiz-adv-x="676" 
d="M69 0v697h133v-697h-133zM282 10l17 101q60 -10 105 -10q41 0 58.5 19.5t17.5 62.5v514h133v-516q0 -190 -191 -190q-77 0 -140 19z" />
    <glyph glyph-name="ij" unicode="&#x133;" horiz-adv-x="532" 
d="M239 -228l-20 100q6 1 29 6t36 9q33 10 41.5 34t8.5 77v505h132v-509q0 -104 -33 -147.5t-108 -59.5q-31 -6 -86 -15zM67 0v503h131v-503h-131zM332 589v108h137v-108h-137zM64 589v108h137v-108h-137z" />
    <glyph glyph-name="Jcircumflex" unicode="&#x134;" horiz-adv-x="406" 
d="M12 10l17 101q60 -10 105 -10q41 0 58.5 19.5t17.5 62.5v514h133v-516q0 -190 -191 -190q-77 0 -140 19zM119 748l113 154h90l113 -154h-98l-61 85l-61 -85h-96z" />
    <glyph glyph-name="jcircumflex" unicode="&#x135;" horiz-adv-x="267" 
d="M-26 -228l-20 100q6 1 29 6t36 9q33 10 41.5 34t8.5 77v505h132v-509q0 -104 -33 -147.5t-108 -59.5q-31 -6 -86 -15zM-21 577l113 154h90l113 -154h-98l-61 85l-61 -85h-96z" />
    <glyph glyph-name="uni0136" unicode="&#x136;" horiz-adv-x="556" 
d="M69 0v697h133v-290q19 0 56 -7l136 297h138l-164 -340q44 -42 79 -118l116 -239h-144l-95 199q-27 57 -53 77t-69 22v-298h-133zM312 -222h-95q21 61 24 153h97q0 -95 -26 -153z" />
    <glyph glyph-name="uni0137" unicode="&#x137;" horiz-adv-x="520" 
d="M63 0v722h132v-394q32 0 55 -7l113 182h143l-149 -226q37 -32 63 -81l107 -196h-143l-80 149q-23 42 -43.5 56t-65.5 15v-220h-132zM306 -222h-95q21 61 24 153h97q0 -95 -26 -153z" />
    <glyph glyph-name="Lacute" unicode="&#x139;" horiz-adv-x="436" 
d="M69 0v697h133v-587h215v-110h-348zM269 904l-92 -154h-92l69 154h115z" />
    <glyph glyph-name="lacute" unicode="&#x13a;" horiz-adv-x="288" 
d="M262 103l13 -100q-38 -12 -96 -12q-61 0 -88.5 30.5t-27.5 115.5v585h132v-579q0 -27 7.5 -35.5t24.5 -8.5q21 0 35 4zM264 927l-92 -154h-92l69 154h115z" />
    <glyph glyph-name="uni013B" unicode="&#x13b;" horiz-adv-x="436" 
d="M69 0v697h133v-587h215v-110h-348zM269 -222h-95q21 61 24 153h97q0 -95 -26 -153z" />
    <glyph glyph-name="uni013C" unicode="&#x13c;" horiz-adv-x="288" 
d="M262 103l13 -100q-38 -12 -96 -12q-61 0 -88.5 30.5t-27.5 115.5v585h132v-579q0 -27 7.5 -35.5t24.5 -8.5q21 0 35 4zM184 -222h-95q21 61 24 153h97q0 -95 -26 -153z" />
    <glyph glyph-name="Lcaron" unicode="&#x13d;" horiz-adv-x="436" 
d="M69 0v697h133v-587h215v-110h-348zM361 522h-95q31 71 32 175h97q0 -102 -34 -175z" />
    <glyph glyph-name="lcaron" unicode="&#x13e;" horiz-adv-x="353" 
d="M335 547h-95q29 68 32 175h97q0 -102 -34 -175zM262 103l13 -100q-38 -12 -96 -12q-61 0 -88.5 30.5t-27.5 115.5v585h132v-579q0 -27 7.5 -35.5t24.5 -8.5q21 0 35 4z" />
    <glyph glyph-name="Ldot" unicode="&#x13f;" horiz-adv-x="436" 
d="M69 0v697h133v-587h215v-110h-348zM394 313h-107v106h107v-106z" />
    <glyph glyph-name="ldot" unicode="&#x140;" horiz-adv-x="314" 
d="M338 319h-99v98h99v-98zM262 103l13 -100q-38 -12 -96 -12q-61 0 -88.5 30.5t-27.5 115.5v585h132v-579q0 -27 7.5 -35.5t24.5 -8.5q21 0 35 4z" />
    <glyph glyph-name="Lslash" unicode="&#x141;" horiz-adv-x="442" 
d="M21 232v94l54 22v349h133v-293l129 55v-94l-129 -55v-200h215v-110h-348v254z" />
    <glyph glyph-name="lslash" unicode="&#x142;" horiz-adv-x="293" 
d="M17 253v94l51 22v353h132v-297l76 33v-93l-76 -33v-189q0 -27 7.5 -35.5t24.5 -8.5q21 0 35 4l13 -100q-38 -12 -96 -12q-61 0 -88.5 30.5t-27.5 115.5v138z" />
    <glyph glyph-name="Nacute" unicode="&#x143;" horiz-adv-x="618" 
d="M69 0v697h168q77 -203 125 -335t58 -163l9 -31h3q-6 129 -6 254v275h123v-697h-168q-78 204 -126 336.5t-57 162.5l-8 30h-4q5 -139 6 -266l1 -263h-124zM447 902l-92 -154h-92l69 154h115z" />
    <glyph glyph-name="nacute" unicode="&#x144;" horiz-adv-x="530" 
d="M63 0v503h116l8 -45h2q68 54 149 54q129 0 129 -148v-364h-131v340q0 64 -49 64q-45 0 -92 -43v-361h-132zM401 731l-92 -154h-92l69 154h115z" />
    <glyph glyph-name="uni0145" unicode="&#x145;" horiz-adv-x="618" 
d="M69 0v697h168q77 -203 125 -335t58 -163l9 -31h3q-6 129 -6 254v275h123v-697h-168q-78 204 -126 336.5t-57 162.5l-8 30h-4q5 -139 6 -266l1 -263h-124zM332 -222h-95q21 61 24 153h97q0 -95 -26 -153z" />
    <glyph glyph-name="uni0146" unicode="&#x146;" horiz-adv-x="530" 
d="M63 0v503h116l8 -45h2q68 54 149 54q129 0 129 -148v-364h-131v340q0 64 -49 64q-45 0 -92 -43v-361h-132zM289 -222h-95q21 61 24 153h97q0 -95 -26 -153z" />
    <glyph glyph-name="Ncaron" unicode="&#x147;" horiz-adv-x="618" 
d="M69 0v697h168q77 -203 125 -335t58 -163l9 -31h3q-6 129 -6 254v275h123v-697h-168q-78 204 -126 336.5t-57 162.5l-8 30h-4q5 -139 6 -266l1 -263h-124zM268 748l-112 154h99l60 -85l61 85h96l-113 -154h-91z" />
    <glyph glyph-name="ncaron" unicode="&#x148;" horiz-adv-x="530" 
d="M63 0v503h116l8 -45h2q68 54 149 54q129 0 129 -148v-364h-131v340q0 64 -49 64q-45 0 -92 -43v-361h-132zM222 577l-112 154h99l60 -85l61 85h96l-113 -154h-91z" />
    <glyph glyph-name="napostrophe" unicode="&#x149;" horiz-adv-x="530" 
d="M63 0v503h116l8 -45h2q68 54 149 54q129 0 129 -148v-364h-131v340q0 64 -49 64q-45 0 -92 -43v-361h-132zM143 577h-95q31 71 32 175h97q0 -102 -34 -175z" />
    <glyph glyph-name="Eng" unicode="&#x14a;" horiz-adv-x="616" 
d="M321 -203l-19 100q8 2 30 7t34 8q33 10 47.5 28t14.5 60h-48q-78 204 -126 336.5t-56 162.5l-9 30h-4q5 -139 6 -266l1 -263h-124v697h168q77 -203 125 -335t57 -163l10 -31h3q-6 129 -6 254v275h123v-629h1v-67q0 -93 -33 -133t-108 -56q-37 -8 -87 -15z" />
    <glyph glyph-name="eng" unicode="&#x14b;" horiz-adv-x="527" 
d="M240 -203l-19 100q8 2 30 7t34 8q33 10 47.5 28t14.5 60h-11v340q0 64 -49 64q-45 0 -92 -43v-361h-132v503h116l8 -45h2q68 54 149 54q129 0 129 -148v-296h1v-67q0 -93 -33 -133t-108 -56q-37 -8 -87 -15z" />
    <glyph glyph-name="Omacron" unicode="&#x14c;" horiz-adv-x="570" 
d="M42 347q0 194 54 278t192 84t189 -83t51 -279q0 -194 -53.5 -276.5t-192.5 -82.5q-138 0 -189 82t-51 277zM285 98q65 0 87.5 53.5t22.5 195.5t-22.5 197t-87.5 55q-64 0 -87 -55t-23 -197q0 -141 22.5 -195t87.5 -54zM427 748h-280v79h280v-79z" />
    <glyph glyph-name="omacron" unicode="&#x14d;" horiz-adv-x="503" 
d="M247 -12q-122 0 -165 60t-43 196q0 137 46.5 204t168.5 67t166 -66.5t44 -204.5q0 -134 -46.5 -195t-170.5 -61zM251 96q47 0 64 31.5t17 118.5q0 86 -17.5 123.5t-63.5 37.5q-45 0 -62.5 -37.5t-17.5 -123.5q0 -87 17 -118.5t63 -31.5zM392 577h-280v79h280v-79z" />
    <glyph glyph-name="Obreve" unicode="&#x14e;" horiz-adv-x="570" 
d="M42 347q0 194 54 278t192 84t189 -83t51 -279q0 -194 -53.5 -276.5t-192.5 -82.5q-138 0 -189 82t-51 277zM285 98q65 0 87.5 53.5t22.5 195.5t-22.5 197t-87.5 55q-64 0 -87 -55t-23 -197q0 -141 22.5 -195t87.5 -54zM134 893h80q5 -76 72 -76t73 76h81
q-15 -150 -154 -150q-144 0 -152 150z" />
    <glyph glyph-name="obreve" unicode="&#x14f;" horiz-adv-x="503" 
d="M247 -12q-122 0 -165 60t-43 196q0 137 46.5 204t168.5 67t166 -66.5t44 -204.5q0 -134 -46.5 -195t-170.5 -61zM251 96q47 0 64 31.5t17 118.5q0 86 -17.5 123.5t-63.5 37.5q-45 0 -62.5 -37.5t-17.5 -123.5q0 -87 17 -118.5t63 -31.5zM100 722h80q5 -76 72 -76t73 76
h81q-15 -150 -154 -150q-144 0 -152 150z" />
    <glyph glyph-name="Ohungarumlaut" unicode="&#x150;" horiz-adv-x="570" 
d="M42 347q0 194 54 278t192 84t189 -83t51 -279q0 -194 -53.5 -276.5t-192.5 -82.5q-138 0 -189 82t-51 277zM285 98q65 0 87.5 53.5t22.5 195.5t-22.5 197t-87.5 55q-64 0 -87 -55t-23 -197q0 -141 22.5 -195t87.5 -54zM386 748h-63l46 154h90zM245 748h-64l33 154h87z
" />
    <glyph glyph-name="ohungarumlaut" unicode="&#x151;" horiz-adv-x="503" 
d="M247 -12q-122 0 -165 60t-43 196q0 137 46.5 204t168.5 67t166 -66.5t44 -204.5q0 -134 -46.5 -195t-170.5 -61zM251 96q47 0 64 31.5t17 118.5q0 86 -17.5 123.5t-63.5 37.5q-45 0 -62.5 -37.5t-17.5 -123.5q0 -87 17 -118.5t63 -31.5zM352 577h-63l46 154h90zM211 577
h-64l33 154h87z" />
    <glyph glyph-name="OE" unicode="&#x152;" horiz-adv-x="779" 
d="M42 347q0 192 52.5 276.5t178.5 84.5q46 0 85 -14v3h383v-110h-250v-172h200v-106h-200v-199h255v-110h-388v3q-42 -14 -93 -14q-122 0 -172.5 83t-50.5 275zM297 98q34 0 61 15v467q-30 19 -69 19q-68 0 -91 -54.5t-23 -197.5t24 -196t98 -53z" />
    <glyph glyph-name="oe" unicode="&#x153;" horiz-adv-x="774" 
d="M243 -12q-117 0 -160.5 60.5t-43.5 195.5t46 203t159 68q105 0 151 -67q47 67 158 67q56 0 95 -16.5t57 -43.5t25 -52t7 -52q0 -79 -27.5 -107t-113.5 -28q-77 0 -135 16v-7q0 -74 21 -103t76 -29q62 0 147 26l21 -93q-73 -35 -188 -35q-100 0 -146 60q-47 -63 -149 -63z
M250 96q46 0 63 31.5t17 118.5q0 86 -17.5 123.5t-62.5 37.5q-44 0 -61.5 -38t-17.5 -123q0 -87 16.5 -118.5t62.5 -31.5zM464 319q43 -15 96 -15q31 0 40.5 12t9.5 38q0 65 -66 65q-37 0 -57 -22.5t-23 -77.5z" />
    <glyph glyph-name="Racute" unicode="&#x154;" horiz-adv-x="556" 
d="M69 0v697h201q124 0 176 -48t52 -168q0 -133 -98 -176q49 -31 78 -117l67 -188h-140l-54 167q-16 50 -37.5 67.5t-62.5 17.5h-49v-252h-133zM202 362h57q58 0 82 27t24 90t-21.5 85.5t-82.5 22.5h-59v-225zM403 902l-92 -154h-92l69 154h115z" />
    <glyph glyph-name="racute" unicode="&#x155;" horiz-adv-x="371" 
d="M63 0v503h116l7 -45h3q52 52 122 52q30 0 49 -7l-18 -118q-32 7 -55 7q-56 0 -92 -42v-350h-132zM342 731l-92 -154h-92l69 154h115z" />
    <glyph glyph-name="uni0156" unicode="&#x156;" horiz-adv-x="556" 
d="M69 0v697h201q124 0 176 -48t52 -168q0 -133 -98 -176q49 -31 78 -117l67 -188h-140l-54 167q-16 50 -37.5 67.5t-62.5 17.5h-49v-252h-133zM202 362h57q58 0 82 27t24 90t-21.5 85.5t-82.5 22.5h-59v-225zM314 -222h-95q21 61 24 153h97q0 -95 -26 -153z" />
    <glyph glyph-name="uni0157" unicode="&#x157;" horiz-adv-x="371" 
d="M63 0v503h116l7 -45h3q52 52 122 52q30 0 49 -7l-18 -118q-32 7 -55 7q-56 0 -92 -42v-350h-132zM152 -222h-95q21 61 24 153h97q0 -95 -26 -153z" />
    <glyph glyph-name="Rcaron" unicode="&#x158;" horiz-adv-x="556" 
d="M69 0v697h201q124 0 176 -48t52 -168q0 -133 -98 -176q49 -31 78 -117l67 -188h-140l-54 167q-16 50 -37.5 67.5t-62.5 17.5h-49v-252h-133zM202 362h57q58 0 82 27t24 90t-21.5 85.5t-82.5 22.5h-59v-225zM224 748l-112 154h99l60 -85l61 85h96l-113 -154h-91z" />
    <glyph glyph-name="rcaron" unicode="&#x159;" horiz-adv-x="371" 
d="M63 0v503h116l7 -45h3q52 52 122 52q30 0 49 -7l-18 -118q-32 7 -55 7q-56 0 -92 -42v-350h-132zM163 577l-112 154h99l60 -85l61 85h96l-113 -154h-91z" />
    <glyph glyph-name="Sacute" unicode="&#x15a;" horiz-adv-x="488" 
d="M33 21l19 106q124 -26 168 -26q57 0 79 20t22 69q0 39 -17 63.5t-65 45.5l-41 18q-82 35 -119 79t-37 126q0 184 205 184q97 0 178 -25l-22 -103q-85 18 -142 18q-45 0 -67 -16.5t-22 -57.5q0 -37 19 -57t62 -39l34 -16q89 -40 126.5 -84t37.5 -135q0 -109 -48.5 -154.5
t-162.5 -45.5q-110 0 -207 30zM378 902l-92 -154h-92l69 154h115z" />
    <glyph glyph-name="sacute" unicode="&#x15b;" horiz-adv-x="451" 
d="M29 23l19 101q109 -29 171 -29q37 0 51.5 10.5t14.5 37.5q0 23 -12 35.5t-48 23.5l-24 7q-89 26 -125 59t-36 101q0 80 44 111.5t125 31.5q104 0 186 -28l-19 -96q-96 21 -150 21q-58 0 -58 -40q0 -19 12 -31t49 -23l24 -7q92 -27 126.5 -62t34.5 -105q0 -82 -47 -116
t-133 -34q-93 0 -205 32zM359 731l-92 -154h-92l69 154h115z" />
    <glyph glyph-name="Scircumflex" unicode="&#x15c;" horiz-adv-x="488" 
d="M33 21l19 106q124 -26 168 -26q57 0 79 20t22 69q0 39 -17 63.5t-65 45.5l-41 18q-82 35 -119 79t-37 126q0 184 205 184q97 0 178 -25l-22 -103q-85 18 -142 18q-45 0 -67 -16.5t-22 -57.5q0 -37 19 -57t62 -39l34 -16q89 -40 126.5 -84t37.5 -135q0 -109 -48.5 -154.5
t-162.5 -45.5q-110 0 -207 30zM87 748l113 154h90l113 -154h-98l-61 85l-61 -85h-96z" />
    <glyph glyph-name="scircumflex" unicode="&#x15d;" horiz-adv-x="451" 
d="M29 23l19 101q109 -29 171 -29q37 0 51.5 10.5t14.5 37.5q0 23 -12 35.5t-48 23.5l-24 7q-89 26 -125 59t-36 101q0 80 44 111.5t125 31.5q104 0 186 -28l-19 -96q-96 21 -150 21q-58 0 -58 -40q0 -19 12 -31t49 -23l24 -7q92 -27 126.5 -62t34.5 -105q0 -82 -47 -116
t-133 -34q-93 0 -205 32zM67 577l113 154h90l113 -154h-98l-61 85l-61 -85h-96z" />
    <glyph glyph-name="Scedilla" unicode="&#x15e;" horiz-adv-x="488" 
d="M146 -214l14 57q41 -11 66 -11q41 0 41 23q0 13 -12.5 22.5t-27.5 15.5t-27.5 19.5t-12.5 33.5q0 23 16 46q-91 5 -170 29l19 106q124 -26 168 -26q57 0 79 20t22 69q0 39 -17 63.5t-65 45.5l-41 18q-82 35 -119 79t-37 126q0 184 205 184q97 0 178 -25l-22 -103
q-85 18 -142 18q-45 0 -67 -16.5t-22 -57.5q0 -37 19 -57t62 -39l34 -16q89 -40 126.5 -84t37.5 -135q0 -102 -42.5 -148t-140.5 -51q-11 -16 -11 -33q0 -12 13 -21t29 -15.5t29.5 -24t13.5 -43.5q0 -45 -26 -64t-84 -19q-17 0 -38.5 3.5t-34.5 6.5z" />
    <glyph glyph-name="scedilla" unicode="&#x15f;" horiz-adv-x="451" 
d="M128 -214l14 57q41 -11 66 -11q41 0 41 23q0 13 -12.5 22.5t-27.5 15.5t-27.5 19.5t-12.5 33.5q0 22 16 47q-72 6 -156 30l19 101q109 -29 171 -29q37 0 51.5 10.5t14.5 37.5q0 23 -12 35.5t-48 23.5l-24 7q-89 26 -125 59t-36 101q0 80 44 111.5t125 31.5q104 0 186 -28
l-19 -96q-96 21 -150 21q-58 0 -58 -40q0 -19 12 -31t49 -23l24 -7q92 -27 126.5 -62t34.5 -105q0 -144 -164 -149q-11 -18 -11 -33q0 -12 13 -21t29 -15.5t29.5 -24t13.5 -43.5q0 -45 -26 -64t-84 -19q-17 0 -38.5 3.5t-34.5 6.5z" />
    <glyph glyph-name="Scaron" unicode="&#x160;" horiz-adv-x="488" 
d="M33 21l19 106q124 -26 168 -26q57 0 79 20t22 69q0 39 -17 63.5t-65 45.5l-41 18q-82 35 -119 79t-37 126q0 184 205 184q97 0 178 -25l-22 -103q-85 18 -142 18q-45 0 -67 -16.5t-22 -57.5q0 -37 19 -57t62 -39l34 -16q89 -40 126.5 -84t37.5 -135q0 -109 -48.5 -154.5
t-162.5 -45.5q-110 0 -207 30zM199 748l-112 154h99l60 -85l61 85h96l-113 -154h-91z" />
    <glyph glyph-name="scaron" unicode="&#x161;" horiz-adv-x="451" 
d="M29 23l19 101q109 -29 171 -29q37 0 51.5 10.5t14.5 37.5q0 23 -12 35.5t-48 23.5l-24 7q-89 26 -125 59t-36 101q0 80 44 111.5t125 31.5q104 0 186 -28l-19 -96q-96 21 -150 21q-58 0 -58 -40q0 -19 12 -31t49 -23l24 -7q92 -27 126.5 -62t34.5 -105q0 -82 -47 -116
t-133 -34q-93 0 -205 32zM180 577l-112 154h99l60 -85l61 85h96l-113 -154h-91z" />
    <glyph glyph-name="uni0162" unicode="&#x162;" horiz-adv-x="464" 
d="M166 0v587h-149v110h430v-110h-148v-587h-32q-18 -19 -18 -41q0 -12 13 -21t29 -15.5t29.5 -24t13.5 -43.5q0 -45 -26 -64t-84 -19q-17 0 -38.5 3.5t-34.5 6.5l-13 4l14 57q41 -11 66 -11q41 0 41 23q0 13 -12.5 22.5t-27.5 15.5t-27.5 19.5t-12.5 33.5q0 27 21 54h-34z
" />
    <glyph glyph-name="uni0163" unicode="&#x163;" horiz-adv-x="366" 
d="M131 -214l14 57q41 -11 66 -11q41 0 41 23q0 13 -12.5 22.5t-27.5 15.5t-27.5 19.5t-12.5 33.5q0 21 17 49q-57 5 -81 36t-24 109v269h-69v94h70l10 130l121 12v-142h126l-15 -94h-111v-268q0 -26 9 -33.5t32 -7.5q9 0 69 10l17 -99q-32 -13 -88 -17q-13 -17 -13 -35
q0 -12 13 -21t29 -15.5t29.5 -24t13.5 -43.5q0 -45 -26 -64t-84 -19q-17 0 -38.5 3.5t-34.5 6.5z" />
    <glyph glyph-name="Tcaron" unicode="&#x164;" horiz-adv-x="464" 
d="M166 0v587h-149v110h430v-110h-148v-587h-133zM190 748l-112 154h99l60 -85l61 85h96l-113 -154h-91z" />
    <glyph glyph-name="tcaron" unicode="&#x165;" horiz-adv-x="366" 
d="M84 140v269h-69v94h70l10 130l121 12v-142h126l-15 -94h-111v-268q0 -26 9 -33.5t32 -7.5q9 0 69 10l17 -99q-46 -18 -119 -18q-77 0 -108.5 29.5t-31.5 117.5zM356 557h-95q31 71 32 175h97q0 -102 -34 -175z" />
    <glyph glyph-name="Tbar" unicode="&#x166;" horiz-adv-x="464" 
d="M92 389v78h74v120h-149v110h430v-110h-148v-120h74v-78h-74v-389h-133v389h-74z" />
    <glyph glyph-name="tbar" unicode="&#x167;" horiz-adv-x="366" 
d="M27 254v78h57v77h-69v94h70l10 130l121 12v-142h126l-15 -94h-111v-77h92v-78h-92v-113q0 -26 9 -33.5t32 -7.5q9 0 69 10l17 -99q-46 -18 -119 -18q-77 0 -108.5 29.5t-31.5 117.5v114h-57z" />
    <glyph glyph-name="Utilde" unicode="&#x168;" horiz-adv-x="580" 
d="M63 187v510h133v-511q0 -88 93 -88q94 0 94 88v511h133v-510q0 -199 -227 -199q-226 0 -226 199zM166 760l-35 47q35 58 97 58q32 0 71.5 -22t64.5 -22q27 0 56 36l35 -49q-37 -65 -98 -65q-31 0 -69 22t-64 22q-25 0 -58 -27z" />
    <glyph glyph-name="utilde" unicode="&#x169;" horiz-adv-x="530" 
d="M62 503h132v-341q0 -34 12 -48.5t38 -14.5q44 0 91 43v361h132v-503h-116l-8 45h-2q-71 -54 -149 -54q-130 0 -130 149v363zM140 589l-35 47q35 58 97 58q32 0 71.5 -22t64.5 -22q27 0 56 36l35 -49q-37 -65 -98 -65q-31 0 -69 22t-64 22q-25 0 -58 -27z" />
    <glyph glyph-name="Umacron" unicode="&#x16a;" horiz-adv-x="580" 
d="M63 187v510h133v-511q0 -88 93 -88q94 0 94 88v511h133v-510q0 -199 -227 -199q-226 0 -226 199zM430 748h-280v79h280v-79z" />
    <glyph glyph-name="umacron" unicode="&#x16b;" horiz-adv-x="530" 
d="M62 503h132v-341q0 -34 12 -48.5t38 -14.5q44 0 91 43v361h132v-503h-116l-8 45h-2q-71 -54 -149 -54q-130 0 -130 149v363zM404 577h-280v79h280v-79z" />
    <glyph glyph-name="Ubreve" unicode="&#x16c;" horiz-adv-x="580" 
d="M63 187v510h133v-511q0 -88 93 -88q94 0 94 88v511h133v-510q0 -199 -227 -199q-226 0 -226 199zM137 893h80q5 -76 72 -76t73 76h81q-15 -150 -154 -150q-144 0 -152 150z" />
    <glyph glyph-name="ubreve" unicode="&#x16d;" horiz-adv-x="530" 
d="M62 503h132v-341q0 -34 12 -48.5t38 -14.5q44 0 91 43v361h132v-503h-116l-8 45h-2q-71 -54 -149 -54q-130 0 -130 149v363zM111 722h80q5 -76 72 -76t73 76h81q-15 -150 -154 -150q-144 0 -152 150z" />
    <glyph glyph-name="Uring" unicode="&#x16e;" horiz-adv-x="580" 
d="M63 187v510h133v-511q0 -88 93 -88q94 0 94 88v511h133v-510q0 -199 -227 -199q-226 0 -226 199zM180 846q0 48 29.5 76.5t79.5 28.5t79.5 -28.5t29.5 -76.5t-29.5 -76.5t-79.5 -28.5t-79.5 28.5t-29.5 76.5zM242 846q0 -23 12.5 -36.5t34.5 -13.5t35 13.5t13 36.5
t-13 36.5t-35 13.5t-34.5 -13.5t-12.5 -36.5z" />
    <glyph glyph-name="uring" unicode="&#x16f;" horiz-adv-x="530" 
d="M62 503h132v-341q0 -34 12 -48.5t38 -14.5q44 0 91 43v361h132v-503h-116l-8 45h-2q-71 -54 -149 -54q-130 0 -130 149v363zM154 675q0 48 29.5 76.5t79.5 28.5t79.5 -28.5t29.5 -76.5t-29.5 -76.5t-79.5 -28.5t-79.5 28.5t-29.5 76.5zM216 675q0 -23 12.5 -36.5
t34.5 -13.5t35 13.5t13 36.5t-13 36.5t-35 13.5t-34.5 -13.5t-12.5 -36.5z" />
    <glyph glyph-name="Uhungarumlaut" unicode="&#x170;" horiz-adv-x="580" 
d="M63 187v510h133v-511q0 -88 93 -88q94 0 94 88v511h133v-510q0 -199 -227 -199q-226 0 -226 199zM389 748h-63l46 154h90zM248 748h-64l33 154h87z" />
    <glyph glyph-name="uhungarumlaut" unicode="&#x171;" horiz-adv-x="530" 
d="M62 503h132v-341q0 -34 12 -48.5t38 -14.5q44 0 91 43v361h132v-503h-116l-8 45h-2q-71 -54 -149 -54q-130 0 -130 149v363zM363 577h-63l46 154h90zM222 577h-64l33 154h87z" />
    <glyph glyph-name="Uogonek" unicode="&#x172;" horiz-adv-x="580" 
d="M63 187v510h133v-511q0 -88 93 -88q94 0 94 88v511h133v-510q0 -179 -181 -196q-51 -43 -51 -86q0 -23 15 -35t61 -12h2v-81h-3q-79 0 -120.5 25.5t-41.5 84.5q0 58 48 103q-182 17 -182 197z" />
    <glyph glyph-name="uogonek" unicode="&#x173;" horiz-adv-x="530" 
d="M482 -223h-3q-79 0 -120.5 25t-41.5 85q0 63 59 113h-25l-8 45h-2q-71 -54 -149 -54q-130 0 -130 149v363h132v-341q0 -34 12 -48.5t38 -14.5q44 0 91 43v361h132v-503q-63 -48 -63 -96q0 -23 15 -34.5t61 -11.5h2v-81z" />
    <glyph glyph-name="Wcircumflex" unicode="&#x174;" horiz-adv-x="776" 
d="M134 0l-116 697h127l57 -374q18 -118 22 -184h5q7 78 25 181l67 367h140l68 -370q12 -68 25 -178h4q4 66 21 183l56 375h124l-115 -697h-163l-60 340q-23 122 -29 195h-4q-7 -82 -31 -199l-61 -336h-162zM233 748l113 154h90l113 -154h-98l-61 85l-61 -85h-96z" />
    <glyph glyph-name="wcircumflex" unicode="&#x175;" horiz-adv-x="753" 
d="M121 0l-106 503h134l37 -201l31 -187h5q27 116 45 187l50 196h124l50 -197l43 -186h4q17 100 32 182l38 206h130l-104 -503h-174l-61 254l-19 92h-5q-13 -60 -20 -92l-62 -254h-172zM221 577l113 154h90l113 -154h-98l-61 85l-61 -85h-96z" />
    <glyph glyph-name="Ycircumflex" unicode="&#x176;" horiz-adv-x="506" 
d="M185 0v307l-191 390h144l80 -172q29 -70 34 -83h3q13 34 34 81l83 174h141l-195 -391v-306h-133zM97 748l113 154h90l113 -154h-98l-61 85l-61 -85h-96z" />
    <glyph glyph-name="ycircumflex" unicode="&#x177;" horiz-adv-x="527" 
d="M189 0q-129 0 -129 149v354h131v-333q0 -62 49 -62t92 39v356h132v-514q0 -92 -40.5 -137t-113.5 -62q-65 -14 -142 -23l-18 99q81 14 122 27q34 10 49.5 31t15.5 65v60h-2q-61 -49 -146 -49zM104 577l113 154h90l113 -154h-98l-61 85l-61 -85h-96z" />
    <glyph glyph-name="Ydieresis" unicode="&#x178;" horiz-adv-x="506" 
d="M185 0v307l-191 390h144l80 -172q29 -70 34 -83h3q13 34 34 81l83 174h141l-195 -391v-306h-133zM219 748h-116v109h116v-109zM403 748h-115v109h115v-109z" />
    <glyph glyph-name="Zacute" unicode="&#x179;" horiz-adv-x="493" 
d="M28 0v61l258 526h-235v110h398v-57l-257 -530h267v-110h-431zM385 902l-92 -154h-92l69 154h115z" />
    <glyph glyph-name="zacute" unicode="&#x17a;" horiz-adv-x="445" 
d="M38 0v59l194 336h-176v108h347v-56l-196 -339h210v-108h-379zM364 731l-92 -154h-92l69 154h115z" />
    <glyph glyph-name="Zdotaccent" unicode="&#x17b;" horiz-adv-x="493" 
d="M28 0v61l258 526h-235v110h398v-57l-257 -530h267v-110h-431zM315 748h-130v102h130v-102z" />
    <glyph glyph-name="zdotaccent" unicode="&#x17c;" horiz-adv-x="445" 
d="M38 0v59l194 336h-176v108h347v-56l-196 -339h210v-108h-379zM293 577h-130v102h130v-102z" />
    <glyph glyph-name="Zcaron" unicode="&#x17d;" horiz-adv-x="493" 
d="M28 0v61l258 526h-235v110h398v-57l-257 -530h267v-110h-431zM206 748l-112 154h99l60 -85l61 85h96l-113 -154h-91z" />
    <glyph glyph-name="zcaron" unicode="&#x17e;" horiz-adv-x="445" 
d="M38 0v59l194 336h-176v108h347v-56l-196 -339h210v-108h-379zM185 577l-112 154h99l60 -85l61 85h96l-113 -154h-91z" />
    <glyph glyph-name="longs" unicode="&#x17f;" horiz-adv-x="351" 
d="M83 0v409h-68v94h68v48q0 93 37 123.5t114 30.5q80 0 142 -14l-17 -96q-54 7 -91 7q-31 0 -42 -11t-11 -50v-541h-132z" />
    <glyph glyph-name="uni018F" unicode="&#x18f;" horiz-adv-x="543" 
d="M501 347q0 -190 -52 -274.5t-189 -84.5q-67 0 -112.5 19t-67 53t-30 69.5t-8.5 81.5q0 103 32 136t132 33q90 0 165 -27v16q0 131 -28 180t-96 49q-57 0 -177 -40l-22 99q113 49 218 49q135 0 185 -83.5t50 -275.5zM367 255q-62 26 -126 26q-45 0 -58 -15.5t-13 -65.5
q0 -108 89 -108q55 0 79.5 40.5t28.5 122.5z" />
    <glyph glyph-name="florin" unicode="&#x192;" horiz-adv-x="435" 
d="M280 409l-27 -390q-5 -75 -22.5 -116t-46.5 -59.5t-87 -31.5q-33 -7 -87 -15l-12 100q5 1 29 6t37 9q32 10 42.5 34t14.5 77l27 386h-68l7 94h68l3 48q7 96 42 125t120 29q74 0 142 -18l-25 -95q-75 10 -91 10q-30 0 -41.5 -11t-14.5 -50l-3 -38h108l-22 -94h-93z" />
    <glyph glyph-name="uni01A0" unicode="&#x1a0;" horiz-adv-x="590" 
d="M45 347q0 194 54 278t192 84q100 0 153 -43q49 29 23 119h93q38 -145 -65 -188q36 -80 36 -250q0 -194 -53.5 -276.5t-192.5 -82.5q-138 0 -189 82t-51 277zM288 98q65 0 87.5 53.5t22.5 195.5t-22.5 197t-87.5 55q-64 0 -87 -55t-23 -197q0 -141 22.5 -195t87.5 -54z
" />
    <glyph glyph-name="uni01A1" unicode="&#x1a1;" horiz-adv-x="514" 
d="M248 -12q-122 0 -165 60t-43 196q0 137 46.5 204t168.5 67q94 0 143 -43q32 34 11 109h93q37 -138 -56 -184q19 -56 19 -153q0 -134 -46.5 -195t-170.5 -61zM252 96q47 0 64 31.5t17 118.5q0 86 -17.5 123.5t-63.5 37.5q-45 0 -62.5 -37.5t-17.5 -123.5q0 -87 17 -118.5
t63 -31.5z" />
    <glyph glyph-name="Acaron" unicode="&#x1cd;" 
d="M13 0l151 697h201l150 -697h-134l-32 157h-174l-31 -157h-131zM189 254h145l-68 337h-5zM219 748l-112 154h99l60 -85l61 85h96l-113 -154h-91z" />
    <glyph glyph-name="acaron" unicode="&#x1ce;" horiz-adv-x="504" 
d="M443 0h-112l-8 45h-2q-71 -54 -150 -54q-131 0 -131 145v8q0 79 38.5 116.5t117.5 46.5q45 5 119 7v16q0 47 -13.5 62.5t-54.5 15.5q-78 0 -165 -30l-24 94q105 40 206 40q90 0 134.5 -39.5t44.5 -146.5v-326zM210 577l-112 154h99l60 -85l61 85h96l-113 -154h-91z
M315 136v94q-60 -2 -90 -8q-58 -11 -58 -72q0 -57 51 -57q50 0 97 43z" />
    <glyph glyph-name="uni01CF" unicode="&#x1cf;" horiz-adv-x="270" 
d="M69 0v697h133v-697h-133zM90 748l-112 154h99l60 -85l61 85h96l-113 -154h-91z" />
    <glyph glyph-name="uni01D0" unicode="&#x1d0;" horiz-adv-x="265" 
d="M67 0v503h131v-503h-131zM90 577l-112 154h99l60 -85l61 85h96l-113 -154h-91z" />
    <glyph glyph-name="uni01D1" unicode="&#x1d1;" horiz-adv-x="570" 
d="M42 347q0 194 54 278t192 84t189 -83t51 -279q0 -194 -53.5 -276.5t-192.5 -82.5q-138 0 -189 82t-51 277zM285 98q65 0 87.5 53.5t22.5 195.5t-22.5 197t-87.5 55q-64 0 -87 -55t-23 -197q0 -141 22.5 -195t87.5 -54zM242 748l-112 154h99l60 -85l61 85h96l-113 -154
h-91z" />
    <glyph glyph-name="uni01D2" unicode="&#x1d2;" horiz-adv-x="503" 
d="M247 -12q-122 0 -165 60t-43 196q0 137 46.5 204t168.5 67t166 -66.5t44 -204.5q0 -134 -46.5 -195t-170.5 -61zM251 96q47 0 64 31.5t17 118.5q0 86 -17.5 123.5t-63.5 37.5q-45 0 -62.5 -37.5t-17.5 -123.5q0 -87 17 -118.5t63 -31.5zM207 577l-112 154h99l60 -85
l61 85h96l-113 -154h-91z" />
    <glyph glyph-name="AEacute" unicode="&#x1fc;" horiz-adv-x="715" 
d="M3 0l178 697h496v-110h-276l31 -172h195v-106h-177l35 -199h197v-110h-309l-25 157h-176l-39 -157h-130zM195 256h140l-52 335h-6zM566 902l-92 -154h-92l69 154h115z" />
    <glyph glyph-name="aeacute" unicode="&#x1fd;" horiz-adv-x="759" 
d="M266 512q87 0 122 -48q41 49 143 49q58 0 98.5 -16t59 -43t26 -51.5t7.5 -51.5q0 -79 -28.5 -107t-113.5 -28q-76 0 -135 16v-7q1 -74 22 -103t75 -29q62 0 147 26l21 -93q-24 -12 -75 -23.5t-112 -11.5q-127 0 -173 71q-71 -71 -175 -71q-135 0 -135 145v8
q0 79 38.5 116.5t119.5 46.5q41 5 119 7v16q0 47 -13.5 62.5t-54.5 15.5q-81 0 -166 -30l-25 94q35 13 95.5 26.5t112.5 13.5zM217 93q66 0 104 52q-7 44 -7 85q-62 -2 -88 -8q-59 -11 -59 -72q0 -57 50 -57zM543 730l-92 -154h-92l69 154h115zM448 319q45 -15 96 -15
q29 0 39.5 11.5t10.5 38.5q0 65 -66 65q-37 0 -57 -22.5t-23 -77.5z" />
    <glyph glyph-name="Oslashacute" unicode="&#x1fe;" horiz-adv-x="570" 
d="M42 347q0 194 54 278t192 84q88 0 139 -33l37 64l53 -29l-44 -80q55 -78 55 -284q0 -194 -53.5 -276.5t-192.5 -82.5q-95 0 -148 38l-37 -68l-53 29l48 84q-50 78 -50 276zM285 95q65 0 88.5 55.5t23.5 196.5q0 98 -11 152q-37 -82 -79 -166l-100 -202q24 -36 78 -36z
M181 205q41 87 80 164l99 199q-25 34 -75 34q-65 0 -88.5 -57t-23.5 -198q0 -94 8 -142zM421 902l-92 -154h-92l69 154h115z" />
    <glyph glyph-name="oslashacute" unicode="&#x1ff;" horiz-adv-x="503" 
d="M247 -12q-75 0 -121 23l-35 -53l-50 34l39 58q-41 55 -41 194q0 137 46.5 204t168.5 67q76 0 121 -27l37 56l51 -33l-43 -64q44 -60 44 -203q0 -134 -46.5 -195t-170.5 -61zM173 164q16 32 73 121l62 97q-20 27 -57 27q-45 0 -64 -39t-19 -124q0 -56 5 -82zM251 94
q47 0 65.5 33t18.5 119q0 59 -8 91q-7 -23 -79 -137l-54 -85q18 -21 57 -21zM394 731l-92 -154h-92l69 154h115z" />
    <glyph glyph-name="uni0218" unicode="&#x218;" horiz-adv-x="488" 
d="M33 21l19 106q124 -26 168 -26q57 0 79 20t22 69q0 39 -17 63.5t-65 45.5l-41 18q-82 35 -119 79t-37 126q0 184 205 184q97 0 178 -25l-22 -103q-85 18 -142 18q-45 0 -67 -16.5t-22 -57.5q0 -37 19 -57t62 -39l34 -16q89 -40 126.5 -84t37.5 -135q0 -109 -48.5 -154.5
t-162.5 -45.5q-110 0 -207 30zM270 -222h-95q21 61 24 153h97q0 -95 -26 -153z" />
    <glyph glyph-name="uni0219" unicode="&#x219;" horiz-adv-x="451" 
d="M29 23l19 101q109 -29 171 -29q37 0 51.5 10.5t14.5 37.5q0 23 -12 35.5t-48 23.5l-24 7q-89 26 -125 59t-36 101q0 80 44 111.5t125 31.5q104 0 186 -28l-19 -96q-96 21 -150 21q-58 0 -58 -40q0 -19 12 -31t49 -23l24 -7q92 -27 126.5 -62t34.5 -105q0 -82 -47 -116
t-133 -34q-93 0 -205 32zM246 -222h-95q21 61 24 153h97q0 -95 -26 -153z" />
    <glyph glyph-name="uni021A" unicode="&#x21a;" horiz-adv-x="464" 
d="M166 0v587h-149v110h430v-110h-148v-587h-133zM255 -222h-95q21 61 24 153h97q0 -95 -26 -153z" />
    <glyph glyph-name="uni021B" unicode="&#x21b;" horiz-adv-x="366" 
d="M84 140v269h-69v94h70l10 130l121 12v-142h126l-15 -94h-111v-268q0 -26 9 -33.5t32 -7.5q9 0 69 10l17 -99q-46 -18 -119 -18q-77 0 -108.5 29.5t-31.5 117.5zM213 -222h-95q21 61 24 153h97q0 -95 -26 -153z" />
    <glyph glyph-name="Adotaccent" unicode="&#x226;" 
d="M13 0l151 697h201l150 -697h-134l-32 157h-174l-31 -157h-131zM189 254h145l-68 337h-5zM328 748h-130v102h130v-102z" />
    <glyph glyph-name="adotaccent" unicode="&#x227;" horiz-adv-x="504" 
d="M443 0h-112l-8 45h-2q-71 -54 -150 -54q-131 0 -131 145v8q0 79 38.5 116.5t117.5 46.5q45 5 119 7v16q0 47 -13.5 62.5t-54.5 15.5q-78 0 -165 -30l-24 94q105 40 206 40q90 0 134.5 -39.5t44.5 -146.5v-326zM315 136v94q-60 -2 -90 -8q-58 -11 -58 -72q0 -57 51 -57
q50 0 97 43zM319 577h-130v102h130v-102z" />
    <glyph glyph-name="dotlessj" unicode="&#x237;" horiz-adv-x="267" 
d="M-26 -228l-20 100q6 1 29 6t36 9q33 10 41.5 34t8.5 77v505h132v-509q0 -104 -33 -147.5t-108 -59.5q-31 -6 -86 -15z" />
    <glyph glyph-name="uni0259" unicode="&#x259;" horiz-adv-x="484" 
d="M445 251q0 -132 -46.5 -197.5t-170.5 -65.5q-191 0 -191 167q0 82 26.5 107t115.5 25q72 0 135 -17v8q-1 74 -22 103t-76 29q-61 0 -147 -26l-20 93q24 12 75 23.5t112 11.5q120 0 164.5 -61t44.5 -200zM311 184q-51 15 -97 15q-30 0 -39.5 -11t-9.5 -39q0 -65 66 -65
q37 0 57 22.5t23 77.5z" />
    <glyph glyph-name="circumflex" unicode="&#x2c6;" horiz-adv-x="307" 
d="M-3 640l113 154h90l113 -154h-98l-61 85l-61 -85h-96z" />
    <glyph glyph-name="caron" unicode="&#x2c7;" horiz-adv-x="308" 
d="M110 640l-112 154h99l60 -85l61 85h96l-113 -154h-91z" />
    <glyph glyph-name="breve" unicode="&#x2d8;" horiz-adv-x="485" 
d="M90 799h80q5 -76 72 -76t73 76h81q-15 -150 -154 -150q-144 0 -152 150z" />
    <glyph glyph-name="dotaccent" unicode="&#x2d9;" horiz-adv-x="311" 
d="M212 664h-130v102h130v-102z" />
    <glyph glyph-name="ring" unicode="&#x2da;" horiz-adv-x="458" 
d="M119 796q0 48 29.5 76.5t79.5 28.5t79.5 -28.5t29.5 -76.5t-29.5 -76.5t-79.5 -28.5t-79.5 28.5t-29.5 76.5zM181 796q0 -23 12.5 -36.5t34.5 -13.5t35 13.5t13 36.5t-13 36.5t-35 13.5t-34.5 -13.5t-12.5 -36.5z" />
    <glyph glyph-name="ogonek" unicode="&#x2db;" horiz-adv-x="309" 
d="M252 -236h-3q-79 0 -120.5 25t-41.5 85q0 84 100 141l32 -6l-3 -5l21 -17q-63 -48 -63 -96q0 -23 15 -34.5t61 -11.5h2v-81z" />
    <glyph glyph-name="tilde" unicode="&#x2dc;" horiz-adv-x="488" 
d="M124 712l-35 47q35 58 97 58q32 0 71.5 -22t64.5 -22q27 0 56 36l35 -49q-37 -65 -98 -65q-31 0 -69 22t-64 22q-25 0 -58 -27z" />
    <glyph glyph-name="hungarumlaut" unicode="&#x2dd;" horiz-adv-x="455" 
d="M272 635h-63l46 154h90zM131 635h-64l33 154h87z" />
    <glyph glyph-name="dotbelowcomb" unicode="&#x323;" horiz-adv-x="311" 
d="M209 -173h-122v108h122v-108z" />
    <glyph glyph-name="uni0394" unicode="&#x394;" horiz-adv-x="498" 
d="M15 0l181 697h106l180 -697h-467zM139 98h219l-109 441z" />
    <glyph glyph-name="uni03A9" unicode="&#x3a9;" horiz-adv-x="634" 
d="M24 0v104h112q-60 79 -61 272q0 101 17 168t51.5 102.5t75.5 49t100 13.5q46 0 81 -8t66 -30t50.5 -58.5t31 -95.5t11.5 -140q0 -195 -61 -273h112v-104h-245v104q33 32 47 91.5t14 181.5q0 92 -13.5 142.5t-35.5 66t-59 15.5q-38 0 -60 -15.5t-36 -66t-14 -142.5
q0 -120 14.5 -180t46.5 -93v-104h-245z" />
    <glyph glyph-name="uni03BC" unicode="&#x3bc;" horiz-adv-x="506" 
d="M60 503h131v-341q0 -63 48 -63q44 0 89 41v363h132v-503h-116l-8 43h-2q-50 -48 -102 -48q-24 0 -44 8q3 -48 3 -84v-116h-131v700z" />
    <glyph glyph-name="pi" unicode="&#x3c0;" horiz-adv-x="668" 
d="M145 0v398h-86v97h550v-97h-93v-398h-128v398h-115v-398h-128z" />
    <glyph glyph-name="uni1E62" unicode="&#x1e62;" horiz-adv-x="488" 
d="M33 21l19 106q124 -26 168 -26q57 0 79 20t22 69q0 39 -17 63.5t-65 45.5l-41 18q-82 35 -119 79t-37 126q0 184 205 184q97 0 178 -25l-22 -103q-85 18 -142 18q-45 0 -67 -16.5t-22 -57.5q0 -37 19 -57t62 -39l34 -16q89 -40 126.5 -84t37.5 -135q0 -109 -48.5 -154.5
t-162.5 -45.5q-110 0 -207 30zM309 -177h-122v108h122v-108z" />
    <glyph glyph-name="uni1E63" unicode="&#x1e63;" horiz-adv-x="451" 
d="M29 23l19 101q109 -29 171 -29q37 0 51.5 10.5t14.5 37.5q0 23 -12 35.5t-48 23.5l-24 7q-89 26 -125 59t-36 101q0 80 44 111.5t125 31.5q104 0 186 -28l-19 -96q-96 21 -150 21q-58 0 -58 -40q0 -19 12 -31t49 -23l24 -7q92 -27 126.5 -62t34.5 -105q0 -82 -47 -116
t-133 -34q-93 0 -205 32zM289 -177h-122v108h122v-108z" />
    <glyph glyph-name="Wgrave" unicode="&#x1e80;" horiz-adv-x="776" 
d="M134 0l-116 697h127l57 -374q18 -118 22 -184h5q7 78 25 181l67 367h140l68 -370q12 -68 25 -178h4q4 66 21 183l56 375h124l-115 -697h-163l-60 340q-23 122 -29 195h-4q-7 -82 -31 -199l-61 -336h-162zM347 748l-92 154h116l68 -154h-92z" />
    <glyph glyph-name="wgrave" unicode="&#x1e81;" horiz-adv-x="753" 
d="M121 0l-106 503h134l37 -201l31 -187h5q27 116 45 187l50 196h124l50 -197l43 -186h4q17 100 32 182l38 206h130l-104 -503h-174l-61 254l-19 92h-5q-13 -60 -20 -92l-62 -254h-172zM336 577l-92 154h116l68 -154h-92z" />
    <glyph glyph-name="Wacute" unicode="&#x1e82;" horiz-adv-x="776" 
d="M134 0l-116 697h127l57 -374q18 -118 22 -184h5q7 78 25 181l67 367h140l68 -370q12 -68 25 -178h4q4 66 21 183l56 375h124l-115 -697h-163l-60 340q-23 122 -29 195h-4q-7 -82 -31 -199l-61 -336h-162zM524 902l-92 -154h-92l69 154h115z" />
    <glyph glyph-name="wacute" unicode="&#x1e83;" horiz-adv-x="753" 
d="M121 0l-106 503h134l37 -201l31 -187h5q27 116 45 187l50 196h124l50 -197l43 -186h4q17 100 32 182l38 206h130l-104 -503h-174l-61 254l-19 92h-5q-13 -60 -20 -92l-62 -254h-172zM513 731l-92 -154h-92l69 154h115z" />
    <glyph glyph-name="Wdieresis" unicode="&#x1e84;" horiz-adv-x="776" 
d="M134 0l-116 697h127l57 -374q18 -118 22 -184h5q7 78 25 181l67 367h140l68 -370q12 -68 25 -178h4q4 66 21 183l56 375h124l-115 -697h-163l-60 340q-23 122 -29 195h-4q-7 -82 -31 -199l-61 -336h-162zM355 748h-116v109h116v-109zM539 748h-115v109h115v-109z" />
    <glyph glyph-name="wdieresis" unicode="&#x1e85;" horiz-adv-x="753" 
d="M121 0l-106 503h134l37 -201l31 -187h5q27 116 45 187l50 196h124l50 -197l43 -186h4q17 100 32 182l38 206h130l-104 -503h-174l-61 254l-19 92h-5q-13 -60 -20 -92l-62 -254h-172zM344 577h-116v109h116v-109zM528 577h-115v109h115v-109z" />
    <glyph glyph-name="uni1E9E" unicode="&#x1e9e;" horiz-adv-x="597" 
d="M62 0v437q0 147 49 208t182 61q103 0 208 -31v-112q-39 -33 -54.5 -59t-15.5 -59q0 -26 13.5 -46.5t33 -37t38.5 -38t32.5 -60t13.5 -90.5q0 -179 -180 -179q-75 0 -131 20l24 102q71 -13 85 -13q70 0 70 78q0 34 -13.5 58t-32 40t-37.5 33.5t-32.5 48.5t-13.5 74
q0 79 73 153q-33 10 -79 10q-62 0 -81.5 -32t-19.5 -129v-437h-132z" />
    <glyph glyph-name="uni1EB8" unicode="&#x1eb8;" horiz-adv-x="489" 
d="M69 0v697h382v-110h-249v-172h199v-106h-199v-199h254v-110h-387zM319 -178h-122v108h122v-108z" />
    <glyph glyph-name="uni1EB9" unicode="&#x1eb9;" horiz-adv-x="484" 
d="M39 251q0 133 46 198.5t171 65.5q58 0 98.5 -16.5t59.5 -43.5t26 -52t7 -52q0 -80 -27.5 -107.5t-116.5 -27.5q-75 0 -133 16v-7q1 -74 22 -103t75 -29q63 0 147 26l21 -93q-24 -12 -75.5 -23.5t-112.5 -11.5q-119 0 -163.5 60.5t-44.5 199.5zM173 319q45 -15 96 -15
q31 0 40.5 12t9.5 38q0 65 -66 65q-37 0 -57 -22.5t-23 -77.5zM308 -178h-122v108h122v-108z" />
    <glyph glyph-name="uni1ECC" unicode="&#x1ecc;" horiz-adv-x="570" 
d="M42 347q0 194 54 278t192 84t189 -83t51 -279q0 -194 -53.5 -276.5t-192.5 -82.5q-138 0 -189 82t-51 277zM285 98q65 0 87.5 53.5t22.5 195.5t-22.5 197t-87.5 55q-64 0 -87 -55t-23 -197q0 -141 22.5 -195t87.5 -54zM345 -176h-122v108h122v-108z" />
    <glyph glyph-name="uni1ECD" unicode="&#x1ecd;" horiz-adv-x="503" 
d="M247 -12q-122 0 -165 60t-43 196q0 137 46.5 204t168.5 67t166 -66.5t44 -204.5q0 -134 -46.5 -195t-170.5 -61zM251 96q47 0 64 31.5t17 118.5q0 86 -17.5 123.5t-63.5 37.5q-45 0 -62.5 -37.5t-17.5 -123.5q0 -87 17 -118.5t63 -31.5zM311 -178h-122v108h122v-108z" />
    <glyph glyph-name="endash" unicode="&#x2013;" horiz-adv-x="507" 
d="M37 234v105h433v-105h-433z" />
    <glyph glyph-name="emdash" unicode="&#x2014;" horiz-adv-x="1007" 
d="M37 234v105h933v-105h-933z" />
    <glyph glyph-name="quoteleft" unicode="&#x2018;" horiz-adv-x="252" 
d="M112 722h99q0 -1 -4.5 -11.5t-9.5 -22t-11.5 -31.5t-11 -41t-8 -48.5t-3.5 -55.5h-106q0 116 55 210z" />
    <glyph glyph-name="quoteright" unicode="&#x2019;" horiz-adv-x="252" 
d="M140 512h-99q0 1 4.5 11.5t9.5 22t11.5 31.5t11 41t8 48.5t3.5 55.5h106q0 -116 -55 -210z" />
    <glyph glyph-name="quotesinglbase" unicode="&#x201a;" horiz-adv-x="252" 
d="M140 -91h-99q0 1 4.5 11.5t9.5 22t11.5 31.5t11 41t8 48.5t3.5 55.5h106q0 -116 -55 -210z" />
    <glyph glyph-name="quotedblleft" unicode="&#x201c;" horiz-adv-x="433" 
d="M293 722h99q0 -1 -4.5 -11.5t-9.5 -22t-11.5 -31.5t-11 -41t-8 -48.5t-3.5 -55.5h-106q0 116 55 210zM112 722h99q0 -1 -4.5 -11.5t-9.5 -22t-11.5 -31.5t-11 -41t-8 -48.5t-3.5 -55.5h-106q0 116 55 210z" />
    <glyph glyph-name="quotedblright" unicode="&#x201d;" horiz-adv-x="433" 
d="M321 512h-99q0 1 4.5 11.5t9.5 22t11.5 31.5t11 41t8 48.5t3.5 55.5h106q0 -116 -55 -210zM140 512h-99q0 1 4.5 11.5t9.5 22t11.5 31.5t11 41t8 48.5t3.5 55.5h106q0 -116 -55 -210z" />
    <glyph glyph-name="quotedblbase" unicode="&#x201e;" horiz-adv-x="434" 
d="M322 -91h-99q0 1 4.5 11.5t9.5 22t11.5 31.5t11 41t8 48.5t3.5 55.5h106q0 -116 -55 -210zM140 -91h-99q0 1 4.5 11.5t9.5 22t11.5 31.5t11 41t8 48.5t3.5 55.5h106q0 -116 -55 -210z" />
    <glyph glyph-name="dagger" unicode="&#x2020;" horiz-adv-x="515" 
d="M211 0v457h-138v89h138v151h93v-151h138v-89h-138v-457h-93z" />
    <glyph glyph-name="daggerdbl" unicode="&#x2021;" horiz-adv-x="515" 
d="M211 238v219h-138v89h138v151h93v-151h138v-89h-138v-219h138v-89h-138v-149h-93v149h-138v89h138z" />
    <glyph glyph-name="bullet" unicode="&#x2022;" horiz-adv-x="278" 
d="M52 267v170h174v-170h-174z" />
    <glyph glyph-name="ellipsis" unicode="&#x2026;" horiz-adv-x="821" 
d="M71 0v120h143v-120h-143zM339 0v120h143v-120h-143zM607 0v120h143v-120h-143z" />
    <glyph glyph-name="perthousand" unicode="&#x2030;" horiz-adv-x="1240" 
d="M29 480q0 127 32.5 176t116.5 49q83 0 113.5 -49t30.5 -177q0 -126 -32 -173.5t-116 -47.5t-114.5 47.5t-30.5 174.5zM176 338q28 0 36.5 28t8.5 114t-9 115t-36 29q-28 0 -37.5 -29.5t-9.5 -114.5t9.5 -113.5t37.5 -28.5zM566 215q0 127 33 176t117 49q83 0 113.5 -49
t30.5 -177q0 -126 -32 -173.5t-116 -47.5t-115 47.5t-31 174.5zM714 73q28 0 36.5 28t8.5 114t-9 115t-36 29q-28 0 -37.5 -29.5t-9.5 -114.5t9.5 -113.5t37.5 -28.5zM917 215q0 127 32.5 176t117.5 49q83 0 113.5 -49t30.5 -177q0 -126 -32 -173.5t-116 -47.5t-115 47.5
t-31 174.5zM1065 73q28 0 36.5 28t8.5 114t-9 115t-36 29q-28 0 -37.5 -29.5t-9.5 -114.5t9.5 -113.5t37.5 -28.5zM226 -22l344 740h93l-344 -740h-93z" />
    <glyph glyph-name="guilsinglleft" unicode="&#x2039;" horiz-adv-x="316" 
d="M150 54l-99 200l100 199h107l-99 -199l99 -200h-108z" />
    <glyph glyph-name="guilsinglright" unicode="&#x203a;" horiz-adv-x="316" 
d="M265 254l-100 -200h-107l98 200l-99 199h108z" />
    <glyph glyph-name="fraction" unicode="&#x2044;" horiz-adv-x="207" 
d="M-115 -22l344 740h93l-344 -740h-93z" />
    <glyph glyph-name="franc" unicode="&#x20a3;" horiz-adv-x="553" 
d="M286 93h-47v-93h-133v93h-46v88h46v516h382v-108h-249v-192h190v-110h-190v-106h47v-88z" />
    <glyph glyph-name="Euro" unicode="&#x20ac;" horiz-adv-x="555" 
d="M354 387h-108v-36v-35h108v-77h-105q8 -85 34 -111.5t88 -26.5q35 0 117 16l19 -101q-80 -25 -159 -25q-118 0 -169.5 54.5t-62.5 193.5h-68v77h65v35v36h-65v77h69q11 135 62.5 188.5t168.5 53.5q91 0 155 -22l-17 -100q-68 12 -115 12q-61 0 -87 -25t-34 -107h104v-77z
" />
    <glyph glyph-name="uni2116" unicode="&#x2116;" horiz-adv-x="934" 
d="M636 232v82h276v-82h-276zM774 356q-82 0 -110 37.5t-28 121.5q0 85 28.5 126.5t109.5 41.5q80 0 109 -41.5t29 -126.5q0 -83 -28.5 -121t-109.5 -38zM774 435q21 0 29 17.5t8 64.5q0 86 -37 86q-21 0 -29.5 -21t-8.5 -65q0 -47 8 -64.5t30 -17.5zM66 0v697h168
q77 -203 125 -335t57 -163l10 -31h3q-6 129 -6 254v275h123v-697h-168q-78 204 -126 336.5t-56 162.5l-9 30h-4q5 -139 6 -266l1 -263h-124z" />
    <glyph glyph-name="uni2117" unicode="&#x2117;" horiz-adv-x="838" 
d="M305 147v408h127q75 0 106.5 -29.5t31.5 -99.5q0 -137 -138 -137h-36v-142h-91zM396 361h31q31 0 43 14.5t12 50.5q0 34 -11 46t-44 12h-31v-123zM78 350q0 170 90 265.5t251 95.5t251 -95.5t90 -265.5t-90 -266t-251 -96t-251 96t-90 266zM160 350q0 -138 66 -212.5
t193 -74.5q126 0 192.5 74.5t66.5 212.5q0 137 -66.5 212t-192.5 75t-192.5 -74.5t-66.5 -212.5z" />
    <glyph glyph-name="trademark" unicode="&#x2122;" horiz-adv-x="659" 
d="M607 348h-69l-8 136l-3 118h-2q-5 -28 -16 -66l-39 -137h-56l-38 136l-15 67h-3q2 -64 -2 -119l-9 -135h-68l20 349l88 -1l42 -155l13 -64h3q3 26 13 64l41 156h88zM104 348v290h-73v59h217v-59h-72v-290h-72z" />
    <glyph glyph-name="Omega" unicode="&#x2126;" horiz-adv-x="634" 
d="M24 0v104h112q-60 79 -61 272q0 101 17 168t51.5 102.5t75.5 49t100 13.5q46 0 81 -8t66 -30t50.5 -58.5t31 -95.5t11.5 -140q0 -195 -61 -273h112v-104h-245v104q33 32 47 91.5t14 181.5q0 92 -13.5 142.5t-35.5 66t-59 15.5q-38 0 -60 -15.5t-36 -66t-14 -142.5
q0 -120 14.5 -180t46.5 -93v-104h-245z" />
    <glyph glyph-name="estimated" unicode="&#x212e;" horiz-adv-x="812" 
d="M218 350v-229q76 -75 188 -75q153 0 248 152l42 -25q-70 -98 -135 -135.5t-155 -37.5q-150 0 -241 100q-89 98 -89 250q0 157 92 254.5t238 97.5q62 0 119 -21.5t105 -63t76.5 -110.5t28.5 -157h-517zM218 397h373v182q-82 77 -188 77q-103 0 -185 -77v-182z" />
    <glyph glyph-name="partialdiff" unicode="&#x2202;" horiz-adv-x="511" 
d="M249 331q-79 0 -79 -116q0 -65 19.5 -91t61.5 -26t63 47t20 157q-32 29 -85 29zM334 408q-5 109 -28 148.5t-81 39.5q-33 0 -131 -18l-22 100q70 28 157 28q139 0 189.5 -88.5t50.5 -302.5q0 -175 -51 -251t-167 -76q-102 0 -158.5 51.5t-56.5 175.5q0 120 49.5 171.5
t130.5 51.5q62 0 118 -30z" />
    <glyph glyph-name="Delta" unicode="&#x2206;" horiz-adv-x="498" 
d="M15 0l181 697h106l180 -697h-467zM139 98h219l-109 441z" />
    <glyph glyph-name="product" unicode="&#x220f;" horiz-adv-x="562" 
d="M71 -259v956h422v-956h-122v848h-178v-848h-122z" />
    <glyph glyph-name="summation" unicode="&#x2211;" horiz-adv-x="517" 
d="M63 -196v79l151 376l-135 346v92h375v-101h-240l131 -333l-137 -358h244v-101h-389z" />
    <glyph glyph-name="minus" unicode="&#x2212;" horiz-adv-x="515" 
d="M48 263v101h419v-101h-419z" />
    <glyph glyph-name="radical" unicode="&#x221a;" horiz-adv-x="595" 
d="M248 0l-67 411h-113v90h199l46 -321l108 616h109l-155 -796h-127z" />
    <glyph glyph-name="infinity" unicode="&#x221e;" horiz-adv-x="703" 
d="M303 280q0 100 -77 100q-76 0 -76 -99q0 -100 76 -100q77 0 77 99zM351 416q16 26 53.5 42.5t80.5 16.5q177 0 177 -193q0 -94 -44.5 -145t-132.5 -51q-44 0 -81 17t-53 44q-16 -27 -53.5 -44t-80.5 -17q-176 0 -176 196q0 93 45 143t134 50q44 0 79 -16.5t52 -42.5z
M399 280q0 -99 77 -99t77 100q0 99 -77 99t-77 -100z" />
    <glyph glyph-name="integral" unicode="&#x222b;" horiz-adv-x="378" 
d="M-19 -215l16 80q36 -6 71 -6q36 0 53.5 18t17.5 66v625q0 90 42.5 125t119.5 35q47 0 95 -12l-16 -80q-30 6 -71 6q-36 0 -53.5 -18t-17.5 -64v-627q0 -91 -42.5 -125.5t-119.5 -34.5q-57 0 -95 12z" />
    <glyph glyph-name="approxequal" unicode="&#x2248;" horiz-adv-x="515" 
d="M117 157l-66 59q51 72 120 72q39 0 71 -20t56 -40t43 -20q10 0 20 4.5t14.5 7.5t13.5 12l9 9l66 -58q-53 -73 -120 -73q-30 0 -57.5 12.5t-43.5 28t-35 28t-34 12.5q-26 0 -57 -34zM117 374l-66 59q51 72 120 72q39 0 71 -20t56 -40t43 -20q10 0 20 4.5t14.5 7.5t13.5 12
l9 9l66 -58q-53 -73 -120 -73q-38 0 -70.5 20.5t-57 40.5t-42.5 20q-26 0 -57 -34z" />
    <glyph glyph-name="notequal" unicode="&#x2260;" horiz-adv-x="515" 
d="M58 365v101h222l65 154l74 -29l-53 -125h91v-101h-133l-43 -103h176v-100h-218l-67 -160l-75 29l55 131h-94v100h136l43 103h-179z" />
    <glyph glyph-name="lessequal" unicode="&#x2264;" horiz-adv-x="515" 
d="M81 0v104h249l-249 203v126l352 242v-131l-253 -177l253 -208v-159h-352z" />
    <glyph glyph-name="greaterequal" unicode="&#x2265;" horiz-adv-x="515" 
d="M433 104v-104h-352v159l253 208l-253 177v131l352 -242v-126l-249 -203h249z" />
    <glyph glyph-name="uni24B9" unicode="&#x24b9;" horiz-adv-x="838" 
d="M393 147h-95v408h93q110 0 142 -40.5t32 -163.5q0 -124 -31.5 -164t-140.5 -40zM389 218h12q50 0 63 22t13 111q0 63 -6.5 90t-20.5 35t-49 8h-12v-266zM78 350q0 170 90 265.5t251 95.5t251 -95.5t90 -265.5t-90 -266t-251 -96t-251 96t-90 266zM160 350
q0 -138 66 -212.5t193 -74.5q126 0 192.5 74.5t66.5 212.5q0 137 -66.5 212t-192.5 75t-192.5 -74.5t-66.5 -212.5z" />
    <glyph glyph-name="lozenge" unicode="&#x25ca;" horiz-adv-x="486" 
d="M243 -229l-190 492l190 524l188 -526zM243 -41l110 305l-109 326l-112 -328z" />
    <glyph glyph-name="f_i" unicode="&#xf001;" horiz-adv-x="584" 
d="M222 503h299v-503h-132v409h-167v-409h-131v409h-68v94h68v73q0 93 39 123.5t119 30.5q50 0 114.5 -8t92.5 -15l-16 -96q-94 16 -157 16q-34 0 -47.5 -11t-13.5 -50v-63z" />
    <glyph glyph-name="f_l" unicode="&#xf002;" horiz-adv-x="614" 
d="M222 503h104l-15 -94h-89v-409h-131v409h-68v94h68v73q0 93 40.5 123.5t126.5 30.5q125 0 263 -23v-562q0 -27 7.5 -35t24.5 -8q11 0 35 3l12 -100q-36 -12 -95 -12q-61 0 -88.5 30.5t-27.5 116.5v483q-76 6 -95 6q-43 0 -57.5 -10.5t-14.5 -48.5v-67z" />
    <glyph glyph-name="uniF8FF" unicode="&#xf8ff;" horiz-adv-x="765" 
d="M123 659v-621h519v621h-519zM80 0v697h605v-697h-605z" />
    <glyph glyph-name="s_t" unicode="&#xfb06;" horiz-adv-x="809" 
d="M527 140v269h-68v94h70l6 101q-38 12 -88 12q-85 0 -85 -63q0 -42 33 -69l-19 -96q-96 21 -150 21q-58 0 -58 -40q0 -19 12 -31t49 -23l24 -7q92 -27 126.5 -62t34.5 -105q0 -82 -47 -116t-133 -34q-93 0 -205 32l19 101q109 -29 171 -29q37 0 51.5 10.5t14.5 37.5
q0 23 -12 35.5t-48 23.5l-24 7q-89 26 -125 59t-36 101q0 80 44 111.5t125 31.5q31 0 61 -3q-18 31 -18 68q0 127 188 127q113 0 219 -33v-168h127l-16 -94h-111v-268q0 -26 9 -33.5t32 -7.5q10 0 70 10l16 -99q-46 -18 -118 -18q-78 0 -109.5 29.5t-31.5 117.5z" />
    <glyph glyph-name="EmptyFrame" horiz-adv-x="838" 
d="M78 350q0 170 90 265.5t251 95.5t251 -95.5t90 -265.5t-90 -266t-251 -96t-251 96t-90 266zM160 350q0 -138 66 -212.5t193 -74.5q126 0 192.5 74.5t66.5 212.5q0 137 -66.5 212t-192.5 75t-192.5 -74.5t-66.5 -212.5z" />
    <glyph glyph-name="macroncmb" horiz-adv-x="0" 
d="M-1 536h-280v79h280v-79z" />
    <glyph glyph-name="verticallinebelowcmb" horiz-adv-x="311" 
d="M203 -259h-110v194h110v-194z" />
    <glyph glyph-name="commaaccent" horiz-adv-x="263" 
d="M181 -32h-95q21 61 24 153h97q0 -95 -26 -153z" />
    <glyph glyph-name="commaaccent.g" horiz-adv-x="263" 
d="M112 131h95q-31 -69 -32 -175h-97q0 109 34 175z" />
    <glyph glyph-name="hyphen.cap" horiz-adv-x="367" 
d="M37 290v105h293v-105h-293z" />
    <glyph glyph-name="endash.cap" horiz-adv-x="507" 
d="M37 291v104h433v-104h-433z" />
    <glyph glyph-name="emdash.cap" horiz-adv-x="1007" 
d="M37 291v104h933v-104h-933z" />
    <glyph glyph-name="germandbls.versal" horiz-adv-x="974" 
d="M38 21l19 106q124 -26 168 -26q57 0 79 20t22 69q0 39 -17 63.5t-65 45.5l-41 18q-82 35 -119 79t-37 126q0 184 205 184q97 0 178 -25l-22 -103q-85 18 -142 18q-45 0 -67 -16.5t-22 -57.5q0 -37 19 -57t62 -39l34 -16q89 -40 126.5 -84t37.5 -135q0 -109 -48.5 -154.5
t-162.5 -45.5q-109 0 -207 30zM519 21l19 106q124 -26 168 -26q57 0 79 20t22 69q0 39 -17 63.5t-65 45.5l-41 18q-82 35 -119 79t-37 126q0 184 205 184q97 0 178 -25l-22 -103q-85 18 -142 18q-45 0 -67 -16.5t-22 -57.5q0 -37 19 -57t62 -39l34 -16q89 -40 126.5 -84
t37.5 -135q0 -109 -48.5 -154.5t-162.5 -45.5q-110 0 -207 30z" />
    <glyph glyph-name="periodcentered.loclCAT" horiz-adv-x="55" 
d="M-40 311v115h107v-115h-107z" />
    <glyph glyph-name="periodcentered.loclCATcap" horiz-adv-x="0" 
d="M-131 321v114h106v-114h-106z" />
    <glyph glyph-name="periodcentered.loclCATsc" horiz-adv-x="0" 
d="M-125 264v111h106v-111h-106z" />
    <glyph glyph-name="parenleft.alt" horiz-adv-x="352" 
d="M291 -141h-116q-4 7 -10.5 21t-23 60t-29.5 96t-23.5 126.5t-10.5 153.5t10 153t24.5 129t28.5 95.5t24 63.5l10 21h116q-4 -8 -10 -23t-21.5 -62.5t-27.5 -98t-22 -124.5t-10 -146t9.5 -146.5t23 -129.5t26.5 -99t23 -67z" />
    <glyph glyph-name="parenright.alt" horiz-adv-x="352" 
d="M177 -141h-116q4 8 10 23.5t21.5 65.5t27.5 101.5t22 127t10 147.5t-9.5 145t-22.5 126.5t-26.5 96t-23.5 64.5l-9 22h116q4 -8 10.5 -22t23 -61t29.5 -97.5t23.5 -127.5t10.5 -154t-10 -152.5t-24 -128t-28.5 -94t-24.5 -61.5z" />
    <glyph glyph-name="ampersand.001" horiz-adv-x="591" 
d="M518 502l30 -102l-66 -23q3 -8 11.5 -32t13 -38t10.5 -35.5t8.5 -40.5t2.5 -37q0 -206 -242 -206q-109 0 -173 48.5t-64 150.5q0 132 114 187v2q-88 46 -88 151q0 83 47.5 131t151.5 48q80 0 146 -22l-20 -98q-53 10 -102 10q-48 0 -70 -19.5t-22 -59.5q0 -76 73 -89
q39 12 123.5 38.5t115.5 35.5zM360 339q-82 -27 -112 -42q-68 -35 -68 -106q0 -93 107 -93q110 0 110 94q0 52 -37 147z" />
    <glyph glyph-name="OE.001" horiz-adv-x="791" 
d="M45 347q0 195 53.5 278.5t191.5 83.5q88 0 142 -43q51 38 148 38q37 0 80.5 -3t67.5 -7l25 -3l-8 -105q-77 8 -157 8q-53 0 -71 -24t-18 -86v-69h199v-106h-199v-98q0 -62 18 -85t71 -23q83 0 164 9l6 -106q-78 -13 -179 -13q-99 0 -148 38q-56 -43 -147 -43
q-138 0 -188.5 81.5t-50.5 277.5zM366 212v271q0 49 9 86q-30 30 -83 30q-68 0 -91 -54.5t-23 -197.5t24 -196t98 -53q47 0 75 26q-9 37 -9 88z" />
    <glyph glyph-name="Scedilla.alt" horiz-adv-x="488" 
d="M33 21l19 106q124 -26 168 -26q57 0 79 20t22 69q0 39 -17 63.5t-65 45.5l-41 18q-82 35 -119 79t-37 126q0 184 205 184q97 0 178 -25l-22 -103q-85 18 -142 18q-45 0 -67 -16.5t-22 -57.5q0 -37 19 -57t62 -39l34 -16q89 -40 126.5 -84t37.5 -135q0 -109 -48.5 -154.5
t-162.5 -45.5q-110 0 -207 30zM249 -213h-86q1 1 3.5 4t8.5 11.5t11 18t10.5 24t8 28.5t1.5 32t-6 36h101q12 -47 0.5 -81.5t-31.5 -53.5z" />
    <glyph glyph-name="Ccedilla.alt" horiz-adv-x="477" 
d="M432 118l19 -102q-77 -25 -163 -25q-89 0 -141 30.5t-78.5 108.5t-26.5 216q0 193 54 276.5t194 83.5q95 0 157 -22l-18 -101q-75 13 -120 13q-53 0 -79 -16.5t-40.5 -71t-14.5 -162.5q0 -107 13.5 -159t40 -69t81.5 -17q35 0 122 17zM269 -213h-86q1 1 3.5 4t8.5 11.5
t11 18t10.5 24t8 28.5t1.5 32t-6 36h101q12 -47 0.5 -81.5t-31.5 -53.5z" />
    <glyph glyph-name="Cacute.loclPLK" horiz-adv-x="477" 
d="M432 118l19 -102q-77 -25 -163 -25q-89 0 -141 30.5t-78.5 108.5t-26.5 216q0 193 54 276.5t194 83.5q95 0 157 -22l-18 -101q-75 13 -120 13q-53 0 -79 -16.5t-40.5 -71t-14.5 -162.5q0 -107 13.5 -159t40 -69t81.5 -17q35 0 122 17zM385 902l-63 -154h-83l41 154h105z
" />
    <glyph glyph-name="Nacute.loclPLK" horiz-adv-x="618" 
d="M69 0v697h168q77 -203 125 -335t58 -163l9 -31h3q-6 129 -6 254v275h123v-697h-168q-78 204 -126 336.5t-57 162.5l-8 30h-4q5 -139 6 -266l1 -263h-124zM416 902l-63 -154h-83l41 154h105z" />
    <glyph glyph-name="Oacute.loclPLK" horiz-adv-x="570" 
d="M42 347q0 194 54 278t192 84t189 -83t51 -279q0 -194 -53.5 -276.5t-192.5 -82.5q-138 0 -189 82t-51 277zM285 98q65 0 87.5 53.5t22.5 195.5t-22.5 197t-87.5 55q-64 0 -87 -55t-23 -197q0 -141 22.5 -195t87.5 -54zM389 902l-63 -154h-83l41 154h105z" />
    <glyph glyph-name="Sacute.loclPLK" horiz-adv-x="488" 
d="M33 21l19 106q124 -26 168 -26q57 0 79 20t22 69q0 39 -17 63.5t-65 45.5l-41 18q-82 35 -119 79t-37 126q0 184 205 184q97 0 178 -25l-22 -103q-85 18 -142 18q-45 0 -67 -16.5t-22 -57.5q0 -37 19 -57t62 -39l34 -16q89 -40 126.5 -84t37.5 -135q0 -109 -48.5 -154.5
t-162.5 -45.5q-110 0 -207 30zM347 902l-63 -154h-83l41 154h105z" />
    <glyph glyph-name="Zacute.loclPLK" horiz-adv-x="493" 
d="M28 0v61l258 526h-235v110h398v-57l-257 -530h267v-110h-431zM354 902l-63 -154h-83l41 154h105z" />
    <glyph glyph-name="a.1" 
d="M39 224q0 112 24 176.5t66 88t111 23.5q111 0 211 -40v-320q0 -40 11 -49.5t47 -2.5l16 -91q-35 -14 -88 -14q-75 0 -99 57h-4q-78 -61 -148 -61q-74 0 -110.5 50.5t-36.5 182.5zM255 404q-30 0 -46.5 -10.5t-27 -47.5t-10.5 -106q0 -60 8 -91.5t19.5 -40.5t32.5 -9
q47 0 88 43v251q-29 11 -64 11z" />
    <glyph glyph-name="b.001" horiz-adv-x="514" 
d="M63 697h132v-133q0 -24 -0.5 -48t-1.5 -38.5t-1 -15.5h2q64 50 134 50q74 0 110.5 -50.5t36.5 -182.5q0 -156 -45 -222t-158 -66t-209 40v666zM259 99q46 0 65 31.5t19 134.5q0 85 -14 112t-45 27q-45 0 -89 -44v-250q25 -11 64 -11z" />
    <glyph glyph-name="d.001" horiz-adv-x="514" 
d="M39 224q0 111 24.5 176t65 88.5t103.5 23.5q44 0 87 -13h3q-3 38 -3 98v100h132v-697h-116l-7 45h-3q-71 -54 -139 -54q-74 0 -110.5 50.5t-36.5 182.5zM319 142v251q-31 11 -64 11q-30 0 -46.5 -10.5t-27 -48t-10.5 -108.5q0 -84 14.5 -111t45.5 -27q43 0 88 43z" />
    <glyph glyph-name="e.1" horiz-adv-x="488" 
d="M39 248q0 135 45.5 201t170.5 66q101 0 147 -44.5t47 -139.5q0 -47 -9 -107l-270 -1q1 -73 22.5 -101.5t77.5 -28.5q54 0 144 26l21 -93q-70 -35 -185 -35q-121 0 -166 60t-45 197zM172 315h144q4 27 3 41q-3 63 -64 63q-40 0 -59.5 -23.5t-23.5 -80.5z" />
    <glyph glyph-name="f.002" horiz-adv-x="334" 
d="M195 503h140l-16 -94h-124v-409h-132v503v48q0 92 38.5 123t113.5 31q79 0 141 -14l-17 -96q-54 7 -83 7q-35 0 -48 -11t-13 -50v-38z" />
    <glyph glyph-name="f.ni" horiz-adv-x="361" 
d="M222 503h140l-15 -94h-124v-415q0 -104 -33 -147.5t-108 -59.5q-31 -6 -86 -15l-20 100q6 1 29 6t36 9q33 10 41.5 34t8.5 77v411h-68v94h68v73q0 92 38.5 123t113.5 31q77 0 141 -14l-17 -96q-54 7 -84 7q-34 0 -47.5 -11t-13.5 -50v-63z" />
    <glyph glyph-name="f.001" horiz-adv-x="361" 
d="M91 409h-68v94h68v48q0 92 38.5 123t113.5 31q77 0 141 -14l-17 -96q-54 7 -84 7q-34 0 -47.5 -11t-13.5 -50v-38h140l-15 -94h-125v-409h-131v409z" />
    <glyph glyph-name="g.1" horiz-adv-x="518" 
d="M248 110h51q96 0 150.5 -29.5t54.5 -104.5q0 -95 -81 -152t-195 -57q-103 0 -156.5 41t-53.5 121q0 93 79 139q-28 24 -28 64q0 52 61 78q-79 33 -79 136q0 88 56.5 128.5t147.5 40.5q87 0 136 -35q37 20 89 32l30 -91q-36 -7 -65 -22q6 -24 6 -52q0 -73 -54.5 -115
t-148.5 -54q-62 -7 -62 -38q0 -30 62 -30zM286 17h-97q-44 -25 -44 -76q0 -72 91 -72q59 0 100 27.5t41 69.5q0 27 -21.5 39t-69.5 12zM328 347q0 37 -20 55.5t-56 18.5t-57.5 -19t-21.5 -55q0 -37 21 -56t55 -19t56.5 19t22.5 56z" />
    <glyph glyph-name="h.001" horiz-adv-x="530" 
d="M63 0v697h132v-138l-3 -97h3q61 50 143 50q129 0 129 -148v-364h-131v340q0 64 -49 64q-45 0 -92 -43v-361h-132z" />
    <glyph glyph-name="k.001" horiz-adv-x="520" 
d="M63 0v697h132v-369q32 0 55 -7l113 182h143l-149 -226q37 -32 63 -81l107 -196h-143l-80 149q-23 42 -43.5 56t-65.5 15v-220h-132z" />
    <glyph glyph-name="l.1" horiz-adv-x="258" 
d="M63 0v722h132v-722h-132z" />
    <glyph glyph-name="l.001" horiz-adv-x="288" 
d="M262 103l13 -100q-38 -12 -96 -12q-61 0 -88.5 30.5t-27.5 115.5v560h132v-554q0 -27 7.5 -35.5t24.5 -8.5q21 0 35 4z" />
    <glyph glyph-name="t.s" horiz-adv-x="345" 
d="M63 140v491l132 14v-142h127l-16 -94h-111v-268q0 -26 9 -33.5t32 -7.5q5 0 70 10l16 -99q-44 -18 -118 -18q-78 0 -109.5 29.5t-31.5 117.5z" />
    <glyph glyph-name="y.1" horiz-adv-x="463" 
d="M57 -229l-19 101l69 13q41 9 57 22.5t23 45.5l12 60h-61l-125 490h134l50 -210q20 -84 34 -185h4q8 63 35 185l49 210h131l-142 -564q-20 -79 -55.5 -109.5t-109.5 -43.5z" />
    <glyph glyph-name="agrave.1" 
d="M39 224q0 112 24 176.5t66 88t111 23.5q111 0 211 -40v-320q0 -40 11 -49.5t47 -2.5l16 -91q-35 -14 -88 -14q-75 0 -99 57h-4q-78 -61 -148 -61q-74 0 -110.5 50.5t-36.5 182.5zM255 404q-30 0 -46.5 -10.5t-27 -47.5t-10.5 -106q0 -60 8 -91.5t19.5 -40.5t32.5 -9
q47 0 88 43v251q-29 11 -64 11zM223 577l-92 154h116l68 -154h-92z" />
    <glyph glyph-name="aacute.1" 
d="M39 224q0 112 24 176.5t66 88t111 23.5q111 0 211 -40v-320q0 -40 11 -49.5t47 -2.5l16 -91q-35 -14 -88 -14q-75 0 -99 57h-4q-78 -61 -148 -61q-74 0 -110.5 50.5t-36.5 182.5zM255 404q-30 0 -46.5 -10.5t-27 -47.5t-10.5 -106q0 -60 8 -91.5t19.5 -40.5t32.5 -9
q47 0 88 43v251q-29 11 -64 11zM400 731l-92 -154h-92l69 154h115z" />
    <glyph glyph-name="acircumflex.1" 
d="M39 224q0 112 24 176.5t66 88t111 23.5q111 0 211 -40v-320q0 -40 11 -49.5t47 -2.5l16 -91q-35 -14 -88 -14q-75 0 -99 57h-4q-78 -61 -148 -61q-74 0 -110.5 50.5t-36.5 182.5zM255 404q-30 0 -46.5 -10.5t-27 -47.5t-10.5 -106q0 -60 8 -91.5t19.5 -40.5t32.5 -9
q47 0 88 43v251q-29 11 -64 11zM108 577l113 154h90l113 -154h-98l-61 85l-61 -85h-96z" />
    <glyph glyph-name="atilde.1" 
d="M39 224q0 112 24 176.5t66 88t111 23.5q111 0 211 -40v-320q0 -40 11 -49.5t47 -2.5l16 -91q-35 -14 -88 -14q-75 0 -99 57h-4q-78 -61 -148 -61q-74 0 -110.5 50.5t-36.5 182.5zM255 404q-30 0 -46.5 -10.5t-27 -47.5t-10.5 -106q0 -60 8 -91.5t19.5 -40.5t32.5 -9
q47 0 88 43v251q-29 11 -64 11zM141 589l-35 47q35 58 97 58q32 0 71.5 -22t64.5 -22q27 0 56 36l35 -49q-37 -65 -98 -65q-32 0 -70 22t-63 22t-58 -27z" />
    <glyph glyph-name="adieresis.1" 
d="M39 224q0 112 24 176.5t66 88t111 23.5q111 0 211 -40v-320q0 -40 11 -49.5t47 -2.5l16 -91q-35 -14 -88 -14q-75 0 -99 57h-4q-78 -61 -148 -61q-74 0 -110.5 50.5t-36.5 182.5zM255 404q-30 0 -46.5 -10.5t-27 -47.5t-10.5 -106q0 -60 8 -91.5t19.5 -40.5t32.5 -9
q47 0 88 43v251q-29 11 -64 11zM231 577h-116v109h116v-109zM415 577h-115v109h115v-109z" />
    <glyph glyph-name="amacron.1" 
d="M39 224q0 112 24 176.5t66 88t111 23.5q111 0 211 -40v-320q0 -40 11 -49.5t47 -2.5l16 -91q-35 -14 -88 -14q-75 0 -99 57h-4q-78 -61 -148 -61q-74 0 -110.5 50.5t-36.5 182.5zM255 404q-30 0 -46.5 -10.5t-27 -47.5t-10.5 -106q0 -60 8 -91.5t19.5 -40.5t32.5 -9
q47 0 88 43v251q-29 11 -64 11zM406 577h-280v79h280v-79z" />
    <glyph glyph-name="abreve.1" 
d="M39 224q0 112 24 176.5t66 88t111 23.5q111 0 211 -40v-320q0 -40 11 -49.5t47 -2.5l16 -91q-35 -14 -88 -14q-75 0 -99 57h-4q-78 -61 -148 -61q-74 0 -110.5 50.5t-36.5 182.5zM255 404q-30 0 -46.5 -10.5t-27 -47.5t-10.5 -106q0 -60 8 -91.5t19.5 -40.5t32.5 -9
q47 0 88 43v251q-29 11 -64 11z" />
    <glyph glyph-name="aring.1" 
d="M39 224q0 112 24 176.5t66 88t111 23.5q111 0 211 -40v-320q0 -40 11 -49.5t47 -2.5l16 -91q-35 -14 -88 -14q-75 0 -99 57h-4q-78 -61 -148 -61q-74 0 -110.5 50.5t-36.5 182.5zM255 404q-30 0 -46.5 -10.5t-27 -47.5t-10.5 -106q0 -60 8 -91.5t19.5 -40.5t32.5 -9
q47 0 88 43v251q-29 11 -64 11zM156 675q0 48 29.5 76.5t79.5 28.5t79.5 -28.5t29.5 -76.5t-29.5 -76.5t-79.5 -28.5t-79.5 28.5t-29.5 76.5zM218 675q0 -23 12.5 -36.5t34.5 -13.5t35 13.5t13 36.5t-13 36.5t-35 13.5t-34.5 -13.5t-12.5 -36.5z" />
    <glyph glyph-name="aogonek.1" 
d="M466 -223h-3q-79 0 -120.5 25t-41.5 85q0 71 71 122q-23 15 -34 43h-4q-78 -61 -148 -61q-74 0 -110.5 50.5t-36.5 182.5q0 112 24 176.5t66 88t111 23.5q111 0 211 -40v-320q0 -40 11 -49.5t47 -2.5l16 -91q-27 -12 -81 -14q-56 -45 -56 -91q0 -23 15 -34.5t61 -11.5h2
v-81zM255 404q-30 0 -46.5 -10.5t-27 -47.5t-10.5 -106q0 -60 8 -91.5t19.5 -40.5t32.5 -9q47 0 88 43v251q-29 11 -64 11z" />
    <glyph glyph-name="acaron.1" 
d="M39 224q0 112 24 176.5t66 88t111 23.5q111 0 211 -40v-320q0 -40 11 -49.5t47 -2.5l16 -91q-35 -14 -88 -14q-75 0 -99 57h-4q-78 -61 -148 -61q-74 0 -110.5 50.5t-36.5 182.5zM255 404q-30 0 -46.5 -10.5t-27 -47.5t-10.5 -106q0 -60 8 -91.5t19.5 -40.5t32.5 -9
q47 0 88 43v251q-29 11 -64 11zM221 577l-112 154h99l60 -85l61 85h96l-113 -154h-91z" />
    <glyph glyph-name="adotaccent.1" 
d="M39 224q0 112 24 176.5t66 88t111 23.5q111 0 211 -40v-320q0 -40 11 -49.5t47 -2.5l16 -91q-35 -14 -88 -14q-75 0 -99 57h-4q-78 -61 -148 -61q-74 0 -110.5 50.5t-36.5 182.5zM255 404q-30 0 -46.5 -10.5t-27 -47.5t-10.5 -106q0 -60 8 -91.5t19.5 -40.5t32.5 -9
q47 0 88 43v251q-29 11 -64 11zM329 577h-130v102h130v-102z" />
    <glyph glyph-name="ae.1" horiz-adv-x="762" 
d="M266 512q83 0 120 -45q42 45 143 45q102 0 148 -43.5t47 -137.5q0 -47 -9 -107l-270 -1q1 -73 22.5 -101.5t77.5 -28.5q54 0 144 26l21 -93q-73 -35 -185 -35q-129 0 -175 72q-71 -72 -175 -72q-135 0 -135 145v8q0 79 38.5 116.5t119.5 46.5q41 5 119 7v16
q0 47 -13.5 62.5t-54.5 15.5q-81 0 -166 -30l-25 94q35 13 95.5 26.5t112.5 13.5zM217 93q66 0 104 52q-7 44 -7 85q-62 -2 -88 -8q-59 -11 -59 -72q0 -57 50 -57zM447 315h144q4 27 3 41q-3 60 -65 60q-40 0 -59 -22.5t-23 -78.5z" />
    <glyph glyph-name="aeacute.1" horiz-adv-x="762" 
d="M266 512q83 0 120 -45q42 45 143 45q102 0 148 -43.5t47 -137.5q0 -47 -9 -107l-270 -1q1 -73 22.5 -101.5t77.5 -28.5q54 0 144 26l21 -93q-73 -35 -185 -35q-129 0 -175 72q-71 -72 -175 -72q-135 0 -135 145v8q0 79 38.5 116.5t119.5 46.5q41 5 119 7v16
q0 47 -13.5 62.5t-54.5 15.5q-81 0 -166 -30l-25 94q35 13 95.5 26.5t112.5 13.5zM217 93q66 0 104 52q-7 44 -7 85q-62 -2 -88 -8q-59 -11 -59 -72q0 -57 50 -57zM543 730l-92 -154h-92l69 154h115zM447 315h144q4 27 3 41q-3 60 -65 60q-40 0 -59 -22.5t-23 -78.5z" />
    <glyph glyph-name="dcaron.001" horiz-adv-x="601" 
d="M39 224q0 111 24.5 176t65 88.5t103.5 23.5q44 0 87 -13h3q-3 38 -3 98v100h132v-697h-116l-7 45h-3q-71 -54 -139 -54q-74 0 -110.5 50.5t-36.5 182.5zM319 142v251q-31 11 -64 11q-30 0 -46.5 -10.5t-27 -48t-10.5 -108.5q0 -84 14.5 -111t45.5 -27q43 0 88 43z
M585 522h-95q31 71 32 175h97q0 -102 -34 -175z" />
    <glyph glyph-name="dcroat.001" horiz-adv-x="514" 
d="M210 557v78h109v62h132v-62h41v-78h-41v-557h-116l-7 45h-3q-71 -54 -139 -54q-74 0 -110.5 50.5t-36.5 182.5q0 111 24.5 176t65 88.5t103.5 23.5q44 0 87 -13h3q-2 22 -3 58h-109zM319 142v251q-31 11 -64 11q-30 0 -46.5 -10.5t-27 -48t-10.5 -108.5q0 -84 14.5 -111
t45.5 -27q43 0 88 43z" />
    <glyph glyph-name="egrave.1" horiz-adv-x="488" 
d="M39 248q0 135 45.5 201t170.5 66q101 0 147 -44.5t47 -139.5q0 -47 -9 -107l-270 -1q1 -73 22.5 -101.5t77.5 -28.5q54 0 144 26l21 -93q-70 -35 -185 -35q-121 0 -166 60t-45 197zM172 315h144q4 27 3 41q-3 63 -64 63q-40 0 -59.5 -23.5t-23.5 -80.5zM212 577l-92 154
h116l68 -154h-92z" />
    <glyph glyph-name="eacute.1" horiz-adv-x="488" 
d="M39 248q0 135 45.5 201t170.5 66q101 0 147 -44.5t47 -139.5q0 -47 -9 -107l-270 -1q1 -73 22.5 -101.5t77.5 -28.5q54 0 144 26l21 -93q-70 -35 -185 -35q-121 0 -166 60t-45 197zM172 315h144q4 27 3 41q-3 63 -64 63q-40 0 -59.5 -23.5t-23.5 -80.5zM389 731l-92 -154
h-92l69 154h115z" />
    <glyph glyph-name="ecircumflex.1" horiz-adv-x="488" 
d="M39 248q0 135 45.5 201t170.5 66q101 0 147 -44.5t47 -139.5q0 -47 -9 -107l-270 -1q1 -73 22.5 -101.5t77.5 -28.5q54 0 144 26l21 -93q-70 -35 -185 -35q-121 0 -166 60t-45 197zM172 315h144q4 27 3 41q-3 63 -64 63q-40 0 -59.5 -23.5t-23.5 -80.5zM97 577l113 154
h90l113 -154h-98l-61 85l-61 -85h-96z" />
    <glyph glyph-name="ecaron.1" horiz-adv-x="488" 
d="M39 248q0 135 45.5 201t170.5 66q101 0 147 -44.5t47 -139.5q0 -47 -9 -107l-270 -1q1 -73 22.5 -101.5t77.5 -28.5q54 0 144 26l21 -93q-70 -35 -185 -35q-121 0 -166 60t-45 197zM172 315h144q4 27 3 41q-3 63 -64 63q-40 0 -59.5 -23.5t-23.5 -80.5zM210 577l-112 154
h99l60 -85l61 85h96l-113 -154h-91z" />
    <glyph glyph-name="edieresis.1" horiz-adv-x="488" 
d="M39 248q0 135 45.5 201t170.5 66q101 0 147 -44.5t47 -139.5q0 -47 -9 -107l-270 -1q1 -73 22.5 -101.5t77.5 -28.5q54 0 144 26l21 -93q-70 -35 -185 -35q-121 0 -166 60t-45 197zM172 315h144q4 27 3 41q-3 63 -64 63q-40 0 -59.5 -23.5t-23.5 -80.5zM220 577h-116v109
h116v-109zM404 577h-115v109h115v-109z" />
    <glyph glyph-name="emacron.1" horiz-adv-x="488" 
d="M39 248q0 135 45.5 201t170.5 66q101 0 147 -44.5t47 -139.5q0 -47 -9 -107l-270 -1q1 -73 22.5 -101.5t77.5 -28.5q54 0 144 26l21 -93q-70 -35 -185 -35q-121 0 -166 60t-45 197zM172 315h144q4 27 3 41q-3 63 -64 63q-40 0 -59.5 -23.5t-23.5 -80.5zM395 577h-280v79
h280v-79z" />
    <glyph glyph-name="ebreve.1" horiz-adv-x="488" 
d="M39 248q0 135 45.5 201t170.5 66q101 0 147 -44.5t47 -139.5q0 -47 -9 -107l-270 -1q1 -73 22.5 -101.5t77.5 -28.5q54 0 144 26l21 -93q-70 -35 -185 -35q-121 0 -166 60t-45 197zM172 315h144q4 27 3 41q-3 63 -64 63q-40 0 -59.5 -23.5t-23.5 -80.5z" />
    <glyph glyph-name="edotaccent.1" horiz-adv-x="488" 
d="M39 248q0 135 45.5 201t170.5 66q101 0 147 -44.5t47 -139.5q0 -47 -9 -107l-270 -1q1 -73 22.5 -101.5t77.5 -28.5q54 0 144 26l21 -93q-70 -35 -185 -35q-121 0 -166 60t-45 197zM172 315h144q4 27 3 41q-3 63 -64 63q-40 0 -59.5 -23.5t-23.5 -80.5zM319 577h-130v102
h130v-102z" />
    <glyph glyph-name="eogonek.1" horiz-adv-x="488" 
d="M39 248q0 135 45.5 201t170.5 66q101 0 147 -44.5t47 -139.5q0 -47 -9 -107l-270 -1q1 -73 22.5 -101.5t77.5 -28.5q54 0 144 26l21 -93q-47 -28 -69.5 -60t-22.5 -59q0 -24 14.5 -36.5t59.5 -12.5h19v-81h-17q-163 0 -163 111q0 58 48 106q-26 -3 -54 -3q-121 0 -166 60
t-45 197zM172 315h144q4 27 3 41q-3 63 -64 63q-40 0 -59.5 -23.5t-23.5 -80.5z" />
    <glyph glyph-name="uni1EB9.1" horiz-adv-x="488" 
d="M39 248q0 135 45.5 201t170.5 66q101 0 147 -44.5t47 -139.5q0 -47 -9 -107l-270 -1q1 -73 22.5 -101.5t77.5 -28.5q54 0 144 26l21 -93q-70 -35 -185 -35q-121 0 -166 60t-45 197zM172 315h144q4 27 3 41q-3 63 -64 63q-40 0 -59.5 -23.5t-23.5 -80.5zM310 -178h-122
v108h122v-108z" />
    <glyph glyph-name="f.s" horiz-adv-x="334" 
d="M195 503h140l-16 -94h-124v-409h-132v409v94v73q0 92 38.5 123t113.5 31q79 0 141 -14l-17 -96q-54 7 -83 7q-35 0 -48 -11t-13 -50v-63z" />
    <glyph glyph-name="gbreve.001" horiz-adv-x="514" 
d="M156 -206l-19 98q71 11 122 27q34 10 49.5 29.5t15.5 63.5v36h-2q-56 -29 -124 -29q-77 0 -118 49.5t-41 176.5q0 146 51 206.5t152 60.5q105 0 209 -40v-463q0 -89 -40.5 -132.5t-113.5 -60.5q-76 -15 -141 -22zM171 252q0 -75 17.5 -100t51.5 -25q45 0 79 20v247
q-27 10 -64 10q-30 0 -46.5 -9.5t-27 -43.5t-10.5 -99zM109 722h80q5 -76 72 -76t73 76h81q-15 -150 -154 -150q-144 0 -152 150z" />
    <glyph glyph-name="uni0123.001" horiz-adv-x="514" 
d="M156 -206l-19 98q71 11 122 27q34 10 49.5 29.5t15.5 63.5v36h-2q-56 -29 -124 -29q-77 0 -118 49.5t-41 176.5q0 146 51 206.5t152 60.5q105 0 209 -40v-463q0 -89 -40.5 -132.5t-113.5 -60.5q-76 -15 -141 -22zM171 252q0 -75 17.5 -100t51.5 -25q45 0 79 20v247
q-27 10 -64 10q-30 0 -46.5 -9.5t-27 -43.5t-10.5 -99zM247 752h95q-31 -69 -32 -175h-97q0 109 34 175z" />
    <glyph glyph-name="gcircumflex.1" horiz-adv-x="518" 
d="M248 110h51q96 0 150.5 -29.5t54.5 -104.5q0 -95 -81 -152t-195 -57q-103 0 -156.5 41t-53.5 121q0 93 79 139q-28 24 -28 64q0 52 61 78q-79 33 -79 136q0 88 56.5 128.5t147.5 40.5q87 0 136 -35q37 20 89 32l30 -91q-36 -7 -65 -22q6 -24 6 -52q0 -73 -54.5 -115
t-148.5 -54q-62 -7 -62 -38q0 -30 62 -30zM286 17h-97q-44 -25 -44 -76q0 -72 91 -72q59 0 100 27.5t41 69.5q0 27 -21.5 39t-69.5 12zM94 577l113 154h90l113 -154h-98l-61 85l-61 -85h-96zM328 347q0 37 -20 55.5t-56 18.5t-57.5 -19t-21.5 -55q0 -37 21 -56t55 -19
t56.5 19t22.5 56z" />
    <glyph glyph-name="gbreve.1" horiz-adv-x="518" 
d="M248 110h51q96 0 150.5 -29.5t54.5 -104.5q0 -95 -81 -152t-195 -57q-103 0 -156.5 41t-53.5 121q0 93 79 139q-28 24 -28 64q0 52 61 78q-79 33 -79 136q0 88 56.5 128.5t147.5 40.5q87 0 136 -35q37 20 89 32l30 -91q-36 -7 -65 -22q6 -24 6 -52q0 -73 -54.5 -115
t-148.5 -54q-62 -7 -62 -38q0 -30 62 -30zM286 17h-97q-44 -25 -44 -76q0 -72 91 -72q59 0 100 27.5t41 69.5q0 27 -21.5 39t-69.5 12zM99 722h80q5 -76 72 -76t73 76h81q-15 -150 -154 -150q-144 0 -152 150zM328 347q0 37 -20 55.5t-56 18.5t-57.5 -19t-21.5 -55
q0 -37 21 -56t55 -19t56.5 19t22.5 56z" />
    <glyph glyph-name="gdotaccent.1" horiz-adv-x="518" 
d="M248 110h51q96 0 150.5 -29.5t54.5 -104.5q0 -95 -81 -152t-195 -57q-103 0 -156.5 41t-53.5 121q0 93 79 139q-28 24 -28 64q0 52 61 78q-79 33 -79 136q0 88 56.5 128.5t147.5 40.5q87 0 136 -35q37 20 89 32l30 -91q-36 -7 -65 -22q6 -24 6 -52q0 -73 -54.5 -115
t-148.5 -54q-62 -7 -62 -38q0 -30 62 -30zM286 17h-97q-44 -25 -44 -76q0 -72 91 -72q59 0 100 27.5t41 69.5q0 27 -21.5 39t-69.5 12zM328 347q0 37 -20 55.5t-56 18.5t-57.5 -19t-21.5 -55q0 -37 21 -56t55 -19t56.5 19t22.5 56zM315 577h-130v102h130v-102z" />
    <glyph glyph-name="uni0123.1" horiz-adv-x="518" 
d="M248 110h51q96 0 150.5 -29.5t54.5 -104.5q0 -95 -81 -152t-195 -57q-103 0 -156.5 41t-53.5 121q0 93 79 139q-28 24 -28 64q0 52 61 78q-79 33 -79 136q0 88 56.5 128.5t147.5 40.5q87 0 136 -35q37 20 89 32l30 -91q-36 -7 -65 -22q6 -24 6 -52q0 -73 -54.5 -115
t-148.5 -54q-62 -7 -62 -38q0 -30 62 -30zM286 17h-97q-44 -25 -44 -76q0 -72 91 -72q59 0 100 27.5t41 69.5q0 27 -21.5 39t-69.5 12zM328 347q0 37 -20 55.5t-56 18.5t-57.5 -19t-21.5 -55q0 -37 21 -56t55 -19t56.5 19t22.5 56zM237 752h95q-31 -69 -32 -175h-97
q0 109 34 175z" />
    <glyph glyph-name="i.TRK" horiz-adv-x="265" 
d="M67 0v503h131v-503h-131zM64 589v108h137v-108h-137z" />
    <glyph glyph-name="ij.001" horiz-adv-x="532" 
d="M239 -201l-20 100q5 1 29 6t36 9q33 10 41.5 34t8.5 77v478h132v-482q0 -104 -33 -147.5t-108 -59.5q-31 -6 -86 -15zM67 0v503h131v-503h-131zM64 589v108h137v-108h-137zM332 589v108h137v-108h-137z" />
    <glyph glyph-name="dotlessj.001" horiz-adv-x="267" 
d="M-26 -201l-20 100q6 1 29 6t36 9q33 10 41.5 34t8.5 77v478h132v-482q0 -104 -33 -147.5t-108 -59.5q-31 -6 -86 -15z" />
    <glyph glyph-name="lacute.1" horiz-adv-x="258" 
d="M63 0v722h132v-722h-132zM263 926l-92 -154h-92l69 154h115z" />
    <glyph glyph-name="lcaron.1" horiz-adv-x="348" 
d="M330 547h-95q29 68 32 175h97q0 -102 -34 -175zM63 0v722h132v-722h-132z" />
    <glyph glyph-name="uni013C.1" horiz-adv-x="258" 
d="M63 0v722h132v-722h-132zM152 -222h-95q21 61 24 153h97q0 -95 -26 -153z" />
    <glyph glyph-name="lslash.1" horiz-adv-x="268" 
d="M15 261v94l53 23v344h132v-287l57 25v-94l-57 -25v-341h-132v284z" />
    <glyph glyph-name="ldot.1" horiz-adv-x="317" 
d="M339 317h-100v99h100v-99zM63 0v722h132v-722h-132z" />
    <glyph glyph-name="oe.1" horiz-adv-x="778" 
d="M243 -12q-117 0 -160.5 60.5t-43.5 195.5t46 203t159 68q109 0 153 -65q48 65 157 65q93 0 138.5 -45.5t46.5 -139.5q1 -45 -8 -106l-270 -1q0 -73 22 -101.5t77 -28.5q58 0 149 28l21 -93q-77 -37 -189 -37q-104 0 -147 55q-43 -58 -151 -58zM250 96q46 0 63 31.5
t17 118.5q0 86 -17.5 123.5t-62.5 37.5q-44 0 -61.5 -38t-17.5 -123q0 -87 16.5 -118.5t62.5 -31.5zM463 315h144q3 19 3 41q-3 63 -65 63q-40 0 -59 -23.5t-23 -80.5z" />
    <glyph glyph-name="tcaron.s" horiz-adv-x="345" 
d="M63 140v491l132 14v-142h127l-16 -94h-111v-268q0 -26 9 -33.5t32 -7.5q5 0 70 10l16 -99q-44 -18 -118 -18q-78 0 -109.5 29.5t-31.5 117.5zM340 556h-95q31 71 32 175h97q0 -102 -34 -175z" />
    <glyph glyph-name="uni0163.s" horiz-adv-x="345" 
d="M90 -214l14 57q41 -11 66 -11q41 0 41 23q0 13 -12.5 22.5t-27.5 15.5t-27.5 19.5t-12.5 33.5q0 25 19 51q-46 8 -66.5 40t-20.5 103v491l132 14v-142h127l-16 -94h-111v-268q0 -26 9 -33.5t32 -7.5q5 0 70 10l16 -99q-38 -16 -109 -18q-12 -17 -12 -34q0 -12 13 -21
t29 -15.5t29.5 -24t13.5 -43.5q0 -45 -26 -64t-84 -19q-17 0 -38.5 3.5t-34.5 6.5z" />
    <glyph glyph-name="tbar.s" horiz-adv-x="342" 
d="M3 257v78h56v296l132 14v-142h127l-16 -94h-111v-74h93v-78h-93v-116q0 -26 9 -33.5t32 -7.5q5 0 70 10l16 -99q-44 -18 -118 -18q-78 0 -109.5 29.5t-31.5 117.5v117h-56z" />
    <glyph glyph-name="uni021B.s" horiz-adv-x="345" 
d="M63 140v491l132 14v-142h127l-16 -94h-111v-268q0 -26 9 -33.5t32 -7.5q5 0 70 10l16 -99q-44 -18 -118 -18q-78 0 -109.5 29.5t-31.5 117.5zM188 -222h-95q21 61 24 153h97q0 -95 -26 -153z" />
    <glyph glyph-name="wgrave.001" horiz-adv-x="765" 
d="M325 259v233h128v-312q0 -84 55 -84q31 0 52 32t28.5 71.5t7.5 80.5q0 94 -43 223h134q39 -112 39 -223q0 -119 -57.5 -205.5t-159.5 -86.5q-97 0 -133 83q-51 -83 -161 -83q-157 0 -157 184v331h132v-328q0 -79 52 -79q83 0 83 163zM347 577l-92 154h116l68 -154h-92z
" />
    <glyph glyph-name="wacute.001" horiz-adv-x="765" 
d="M325 259v233h128v-312q0 -84 55 -84q31 0 52 32t28.5 71.5t7.5 80.5q0 94 -43 223h134q39 -112 39 -223q0 -119 -57.5 -205.5t-159.5 -86.5q-97 0 -133 83q-51 -83 -161 -83q-157 0 -157 184v331h132v-328q0 -79 52 -79q83 0 83 163zM524 731l-92 -154h-92l69 154h115z
" />
    <glyph glyph-name="wdieresis.001" horiz-adv-x="765" 
d="M325 259v233h128v-312q0 -84 55 -84q31 0 52 32t28.5 71.5t7.5 80.5q0 94 -43 223h134q39 -112 39 -223q0 -119 -57.5 -205.5t-159.5 -86.5q-97 0 -133 83q-51 -83 -161 -83q-157 0 -157 184v331h132v-328q0 -79 52 -79q83 0 83 163zM355 577h-116v109h116v-109zM539 577
h-115v109h115v-109z" />
    <glyph glyph-name="wcircumflex.001" horiz-adv-x="765" 
d="M325 259v233h128v-312q0 -84 55 -84q31 0 52 32t28.5 71.5t7.5 80.5q0 94 -43 223h134q39 -112 39 -223q0 -119 -57.5 -205.5t-159.5 -86.5q-97 0 -133 83q-51 -83 -161 -83q-157 0 -157 184v331h132v-328q0 -79 52 -79q83 0 83 163zM232 577l113 154h90l113 -154h-98
l-61 85l-61 -85h-96z" />
    <glyph glyph-name="yacute.001" horiz-adv-x="527" 
d="M60 169v334h131v-314q0 -62 49 -62t92 39v337h132v-488q0 -93 -40.5 -137t-113.5 -61q-65 -14 -142 -23l-18 99q81 14 122 27q34 10 49.5 31t15.5 65v52h-2q-61 -49 -146 -49q-129 0 -129 150zM396 731l-92 -154h-92l69 154h115z" />
    <glyph glyph-name="ycircumflex.001" horiz-adv-x="527" 
d="M60 169v334h131v-314q0 -62 49 -62t92 39v337h132v-488q0 -93 -40.5 -137t-113.5 -61q-65 -14 -142 -23l-18 99q81 14 122 27q34 10 49.5 31t15.5 65v52h-2q-61 -49 -146 -49q-129 0 -129 150zM104 577l113 154h90l113 -154h-98l-61 85l-61 -85h-96z" />
    <glyph glyph-name="ydieresis.001" horiz-adv-x="527" 
d="M60 169v334h131v-314q0 -62 49 -62t92 39v337h132v-488q0 -93 -40.5 -137t-113.5 -61q-65 -14 -142 -23l-18 99q81 14 122 27q34 10 49.5 31t15.5 65v52h-2q-61 -49 -146 -49q-129 0 -129 150zM227 577h-116v109h116v-109zM411 577h-115v109h115v-109z" />
    <glyph glyph-name="yacute.1" horiz-adv-x="463" 
d="M57 -229l-19 101l69 13q41 9 57 22.5t23 45.5l12 60h-61l-125 490h134l50 -210q20 -84 34 -185h4q8 63 35 185l49 210h131l-142 -564q-20 -79 -55.5 -109.5t-109.5 -43.5zM368 731l-92 -154h-92l69 154h115z" />
    <glyph glyph-name="ycircumflex.1" horiz-adv-x="463" 
d="M57 -229l-19 101l69 13q41 9 57 22.5t23 45.5l12 60h-61l-125 490h134l50 -210q20 -84 34 -185h4q8 63 35 185l49 210h131l-142 -564q-20 -79 -55.5 -109.5t-109.5 -43.5zM77 577l113 154h90l113 -154h-98l-61 85l-61 -85h-96z" />
    <glyph glyph-name="ydieresis.1" horiz-adv-x="463" 
d="M57 -229l-19 101l69 13q41 9 57 22.5t23 45.5l12 60h-61l-125 490h134l50 -210q20 -84 34 -185h4q8 63 35 185l49 210h131l-142 -564q-20 -79 -55.5 -109.5t-109.5 -43.5zM200 577h-116v109h116v-109zM384 577h-115v109h115v-109z" />
    <glyph glyph-name="scedilla.alt" horiz-adv-x="451" 
d="M29 23l19 101q109 -29 171 -29q37 0 51.5 10.5t14.5 37.5q0 23 -12 35.5t-48 23.5l-24 7q-89 26 -125 59t-36 101q0 80 44 111.5t125 31.5q104 0 186 -28l-19 -96q-96 21 -150 21q-58 0 -58 -40q0 -19 12 -31t49 -23l24 -7q92 -27 126.5 -62t34.5 -105q0 -82 -47 -116
t-133 -34q-93 0 -205 32zM227 -213h-86q1 1 3.5 4t8.5 11.5t11 18t10.5 24t8 28.5t1.5 32t-6 36h101q12 -47 0.5 -81.5t-31.5 -53.5z" />
    <glyph glyph-name="ccedilla.alt" horiz-adv-x="421" 
d="M39 250q0 129 46.5 195.5t164.5 66.5q77 0 138 -21l-19 -100q-54 13 -96 13q-57 0 -79.5 -36t-22.5 -118q0 -87 21.5 -119t78.5 -32q37 0 99 15l23 -99q-65 -24 -149 -24q-117 0 -161 63t-44 196zM235 -213h-86q1 1 3.5 4t8.5 11.5t11 18t10.5 24t8 28.5t1.5 32t-6 36
h101q12 -47 0.5 -81.5t-31.5 -53.5z" />
    <glyph glyph-name="cacute.loclPLK" horiz-adv-x="421" 
d="M39 250q0 129 46.5 195.5t164.5 66.5q77 0 138 -21l-19 -100q-54 13 -96 13q-57 0 -79.5 -36t-22.5 -118q0 -87 21.5 -119t78.5 -32q37 0 99 15l23 -99q-65 -24 -149 -24q-117 0 -161 63t-44 196zM346 731l-63 -154h-83l41 154h105z" />
    <glyph glyph-name="nacute.loclPLK" horiz-adv-x="527" 
d="M63 0v503h116l8 -45h2q68 54 149 54q129 0 129 -148v-364h-131v340q0 64 -49 64q-45 0 -92 -43v-361h-132zM368 731l-63 -154h-83l41 154h105z" />
    <glyph glyph-name="oacute.loclPLK" horiz-adv-x="503" 
d="M247 -12q-122 0 -165 60t-43 196q0 137 46.5 204t168.5 67t166 -66.5t44 -204.5q0 -134 -46.5 -195t-170.5 -61zM251 96q47 0 64 31.5t17 118.5q0 86 -17.5 123.5t-63.5 37.5q-45 0 -62.5 -37.5t-17.5 -123.5q0 -87 17 -118.5t63 -31.5zM354 731l-63 -154h-83l41 154h105
z" />
    <glyph glyph-name="sacute.loclPLK" horiz-adv-x="451" 
d="M29 23l19 101q109 -29 171 -29q37 0 51.5 10.5t14.5 37.5q0 23 -12 35.5t-48 23.5l-24 7q-89 26 -125 59t-36 101q0 80 44 111.5t125 31.5q104 0 186 -28l-19 -96q-96 21 -150 21q-58 0 -58 -40q0 -19 12 -31t49 -23l24 -7q92 -27 126.5 -62t34.5 -105q0 -82 -47 -116
t-133 -34q-93 0 -205 32zM327 731l-63 -154h-83l41 154h105z" />
    <glyph glyph-name="zacute.loclPLK" horiz-adv-x="445" 
d="M38 0v59l194 336h-176v108h347v-56l-196 -339h210v-108h-379zM331 731l-63 -154h-83l41 154h105z" />
    <glyph glyph-name="f_l.1" horiz-adv-x="584" 
d="M222 503h104l-15 -94h-89v-409h-131v409h-68v94h68v73q0 93 40.5 123.5t126.5 30.5q125 0 263 -23v-707h-132v623q-76 6 -95 6q-43 0 -57.5 -10.5t-14.5 -48.5v-67z" />
    <glyph glyph-name="s_h" horiz-adv-x="983" 
d="M29 23l19 101q109 -29 171 -29q37 0 51.5 10.5t14.5 37.5q0 23 -12 35.5t-48 23.5l-24 7q-89 26 -125 59t-36 101q0 80 44 111.5t125 31.5q35 0 63 -4q-23 37 -23 79q0 142 191 142q109 0 208 -30v-140l-2 -97h2q61 50 143 50q130 0 130 -148v-364h-132v340q0 64 -49 64
q-45 0 -92 -43v-361h-132v634q-37 7 -69 7q-88 0 -88 -79q0 -47 36 -78l-19 -96q-96 21 -150 21q-58 0 -58 -40q0 -19 12 -31t49 -23l24 -7q92 -27 126.5 -62t34.5 -105q0 -82 -47 -116t-133 -34q-93 0 -205 32z" />
    <glyph glyph-name="c_t" horiz-adv-x="787" 
d="M39 250q0 129 46.5 195.5t164.5 66.5h11q-20 29 -20 65q0 127 187 127q107 0 209 -31v-170h126l-15 -94h-111v-268q0 -26 9 -33.5t32 -7.5q9 0 69 10l17 -99q-46 -18 -118 -18q-78 0 -109.5 29.5t-31.5 117.5v269h-69v94h70l7 104q-41 9 -78 9q-84 0 -84 -62
q0 -18 7.5 -32t12.5 -18.5t17 -12.5l-19 -100q-54 13 -96 13q-57 0 -79.5 -36t-22.5 -118q0 -87 21.5 -119t78.5 -32q37 0 99 15l23 -99q-65 -24 -149 -24q-117 0 -161 63t-44 196z" />
    <glyph glyph-name="c_h" horiz-adv-x="951" 
d="M485 0v637q-30 4 -48 4q-81 0 -81 -74q0 -35 32 -76l-19 -100q-54 13 -96 13q-57 0 -79.5 -36t-22.5 -118q0 -87 21.5 -119t78.5 -32q37 0 99 15l23 -99q-65 -24 -149 -24q-117 0 -161 63t-44 196q0 129 46.5 195.5t164.5 66.5q12 0 18 -1q-23 40 -23 83q0 65 50.5 100
t143.5 35q94 0 177 -25v-145l-2 -97h2q61 50 143 50q130 0 130 -148v-364h-132v340q0 64 -49 64q-45 0 -92 -43v-361h-131z" />
    <glyph glyph-name="ordfeminine.1" horiz-adv-x="348" 
d="M27 405q0 101 30.5 139.5t96.5 38.5q82 0 143 -27v-182q0 -25 7 -31t28 -3l11 -66q-28 -12 -64 -12q-48 0 -68 32h-2q-44 -35 -93 -35q-44 0 -66.5 32t-22.5 114zM168 503q-21 0 -31 -16.5t-10 -71.5q0 -47 7.5 -61.5t22.5 -14.5q16 0 40 16v142q-11 6 -29 6z" />
    <glyph glyph-name="Dieresis" horiz-adv-x="1122" 
d="M515 770h-115v109h115v-109zM723 770h-115v109h115v-109z" />
    <glyph glyph-name="questiondown.cap" horiz-adv-x="414" 
d="M285 499v-63q0 -42 -9 -71t-20.5 -44.5t-37.5 -42.5l-29 -30q-31 -32 -31 -80q0 -40 19.5 -55t62.5 -15q55 0 126 21l20 -97q-93 -31 -175 -31q-91 0 -137 41.5t-46 134.5q0 52 14.5 83.5t41.5 59.5l31 33q24 25 32 46t8 60v50h130zM285 697v-113h-130v113h130z" />
    <glyph glyph-name="exclamdown.cap" horiz-adv-x="261" 
d="M197 495v-495h-133v495h133zM197 697v-113h-133v113h133z" />
    <glyph glyph-name="f.001ni" horiz-adv-x="361" 
d="M-4 -201l-20 100q6 1 29 6t36 9q33 10 41.5 34t8.5 77v384h-68v94h68v48q0 92 38.5 123t113.5 31q77 0 141 -14l-17 -96q-54 7 -84 7q-34 0 -47.5 -11t-13.5 -50v-38h140l-15 -94h-124v-388q0 -104 -33 -147.5t-108 -59.5q-31 -6 -86 -15z" />
    <glyph glyph-name="f_f_l.1" horiz-adv-x="882" 
d="M521 503h103l-15 -94h-88v-409h-132v409h-167v-409h-131v409h-68v94h68v73q0 92 38.5 123t113.5 31q61 0 111 -12l-16 -95q-5 0 -25 2t-30 2q-34 0 -47.5 -11t-13.5 -50v-63h167v73q0 93 40.5 123.5t126.5 30.5q125 0 263 -23v-707h-132v623q-76 6 -95 6q-43 0 -57 -10
t-14 -49v-67z" />
    <glyph glyph-name="commaaccent.001" horiz-adv-x="452" 
d="M254 -213h-86q1 1 3.5 4t8.5 11.5t11 18t10.5 24t8 28.5t1.5 32t-6 36h101q12 -47 0.5 -81.5t-32.5 -53.5z" />
    <glyph glyph-name="apo" horiz-adv-x="275" 
d="M178 -44h-95q31 71 32 175h97q0 -102 -34 -175z" />
    <glyph glyph-name="dieresismacron" horiz-adv-x="915" 
d="M423 562h-106v99h106v-99zM597 562h-105v99h105v-99zM606 696h-296v74h296v-74z" />
    <glyph glyph-name="dieresisacute" horiz-adv-x="915" 
d="M423 562h-106v99h106v-99zM597 562h-105v99h105v-99zM631 820l-134 -124h-95l92 124h137z" />
    <glyph glyph-name="dieresisgrave" horiz-adv-x="915" 
d="M423 562h-106v99h106v-99zM597 562h-105v99h105v-99zM419 696l-134 124h135l93 -124h-94z" />
    <glyph glyph-name="dieresiscaron" horiz-adv-x="915" 
d="M423 562h-106v99h106v-99zM597 562h-105v99h105v-99zM620 820l-112 -124h-100l-113 124h113l53 -63l51 63h108z" />
    <glyph glyph-name="kreska" horiz-adv-x="277" 
d="M165 794l-63 -154h-83l41 154h105z" />
    <glyph glyph-name="kreskacap" horiz-adv-x="277" 
d="M165 794l-63 -154h-83l41 154h105z" />
    <glyph glyph-name="horn" horiz-adv-x="552" 
d="M418 429v74q38 0 56.5 33.5t0.5 94.5h93q27 -101 -15 -151.5t-135 -50.5z" />
    <glyph glyph-name="Hbarscbar" horiz-adv-x="540" 
d="M19 385v78h502v-78h-502z" />
    <glyph glyph-name="diastrich" horiz-adv-x="428" 
d="M28 355v94l262 112v-94z" />
    <glyph glyph-name="kbar" horiz-adv-x="293" 
d="M6 568v78h281v-78h-281z" />
    <glyph glyph-name="nose" horiz-adv-x="584" 
d="M291 -203l-19 100q8 2 30 7t34 8q33 10 47.5 28.5t14.5 60.5v67h121v-67q0 -93 -33 -133t-108 -56q-37 -8 -87 -15z" />
    <glyph glyph-name="Lpunktaccent" horiz-adv-x="311" 
d="M201 665h-107v106h107v-106z" />
    <glyph glyph-name="diastrich.cap" horiz-adv-x="428" 
d="M28 252v94l316 133v-94z" />
    <glyph glyph-name="diastrich.001" horiz-adv-x="428" 
d="M27 225v94l249 166v-94z" />
    <glyph glyph-name="tapo" horiz-adv-x="342" 
d="M336 560h-96q31 71 32 162h98q0 -89 -34 -162z" />
    </font>
</defs>
</svg>
