<svg xmlns="http://www.w3.org/2000/svg" width="28" height="28" viewBox="0 0 28 28">
  <g id="hp_cir_arw" transform="translate(-586 -1626)">
    <circle id="Ellipse_60" data-name="Ellipse 60" cx="14" cy="14" r="14" transform="translate(586 1626)" fill="#00b2e3"/>
    <path id="Path_1343" data-name="Path 1343" d="M363.863,250.591a.425.425,0,0,1,.6,0l3.471,3.469a.425.425,0,0,1,0,.6l-3.471,3.471a.425.425,0,0,1-.6,0l-.4-.4a.429.429,0,0,1,.008-.612l2.151-2.049h-5.131a.428.428,0,0,1-.429-.429v-.571a.428.428,0,0,1,.429-.428h5.131l-2.151-2.05a.426.426,0,0,1-.008-.612Z" transform="translate(854.262 1276.234) rotate(90)" fill="#fff"/>
  </g>
</svg>
