<svg xmlns="http://www.w3.org/2000/svg" width="17.064" height="17.064" viewBox="0 0 17.064 17.064">
  <path id="close-blue" d="M388.157,35.33a1.523,1.523,0,0,1,0,2.155l-1.078,1.08a1.525,1.525,0,0,1-2.157,0l-4.85-4.85-4.85,4.85a1.525,1.525,0,0,1-2.157,0l-1.078-1.08a1.523,1.523,0,0,1,0-2.155l4.85-4.85-4.85-4.85a1.525,1.525,0,0,1,0-2.157l1.078-1.078a1.525,1.525,0,0,1,2.157,0l4.85,4.85,4.85-4.85a1.525,1.525,0,0,1,2.157,0l1.078,1.078a1.525,1.525,0,0,1,0,2.157l-4.85,4.85Z" transform="translate(-371.54 -21.948)" fill="#00b2e3"/>
</svg>
