<svg id="ldr_lb_close_btn" xmlns="http://www.w3.org/2000/svg" width="17.062" height="17.062" viewBox="0 0 17.062 17.062">
  <path id="Path_419" data-name="Path 419" d="M388.157,35.33a1.523,1.523,0,0,1,0,2.155l-1.078,1.08a1.525,1.525,0,0,1-2.157,0l-4.85-4.85-4.85,4.85a1.525,1.525,0,0,1-2.157,0l-1.078-1.08a1.523,1.523,0,0,1,0-2.155l4.85-4.85-4.85-4.85a1.525,1.525,0,0,1,0-2.157l1.078-1.078a1.525,1.525,0,0,1,2.157,0l4.85,4.85,4.85-4.85a1.525,1.525,0,0,1,2.157,0l1.078,1.078a1.525,1.525,0,0,1,0,2.157l-4.85,4.85Z" transform="translate(-371.541 -21.949)" fill="#004d71"/>
</svg>
