<svg id="cnt_close_gfx2" xmlns="http://www.w3.org/2000/svg" width="20" height="20" viewBox="0 0 20 20">
  <path id="Path_419" data-name="Path 419" d="M391.017,37.634a1.785,1.785,0,0,1,0,2.526l-1.263,1.265a1.788,1.788,0,0,1-2.528,0l-5.685-5.685-5.685,5.685a1.788,1.788,0,0,1-2.528,0l-1.263-1.265a1.785,1.785,0,0,1,0-2.526l5.685-5.685-5.685-5.685a1.788,1.788,0,0,1,0-2.528l1.263-1.263a1.788,1.788,0,0,1,2.528,0l5.685,5.685,5.685-5.685a1.788,1.788,0,0,1,2.528,0l1.263,1.263a1.788,1.788,0,0,1,0,2.528l-5.685,5.685Z" transform="translate(-371.541 -21.949)" fill="#ff9e18"/>
</svg>
