<svg xmlns="http://www.w3.org/2000/svg" width="406" height="113.5" viewBox="0 0 406 113.5">
  <g id="cnt_gfx2a" transform="translate(-699.5 -362)">
    <line id="Line_39" data-name="Line 39" y2="77" transform="translate(890 396.5)" fill="none" stroke="#a5bac9" stroke-linecap="round" stroke-width="4"/>
    <line id="Line_40" data-name="Line 40" y2="77" transform="translate(909.145 396.5)" fill="none" stroke="#a5bac9" stroke-linecap="round" stroke-width="4"/>
    <g id="arw_cir">
      <circle id="arw_cir-2" data-name="arw_cir" cx="22" cy="22" r="22" transform="translate(878 362)" fill="#004d71"/>
      <g id="Group_489" data-name="Group 489" transform="translate(1157.109 16.935) rotate(90)">
        <path id="Path_348" data-name="Path 348" d="M366.712,250.685a.744.744,0,0,1,1.059,0l6.074,6.071a.744.744,0,0,1,0,1.058l-6.074,6.074a.744.744,0,0,1-1.059,0l-.695-.693a.751.751,0,0,1,.013-1.072l3.765-3.586h-8.98a.749.749,0,0,1-.75-.751v-1a.748.748,0,0,1,.75-.749h8.98l-3.765-3.587a.745.745,0,0,1-.013-1.072Z" transform="translate(0 0)" fill="#fff"/>
      </g>
    </g>
    <line id="Line_41" data-name="Line 41" x2="194" transform="translate(909.5 473.5)" fill="none" stroke="#a5bac9" stroke-linecap="round" stroke-width="4"/>
    <line id="Line_42" data-name="Line 42" x2="188.145" transform="translate(701.5 473.5)" fill="none" stroke="#a5bac9" stroke-linecap="round" stroke-width="4"/>
  </g>
</svg>
