<svg xmlns="http://www.w3.org/2000/svg" xmlns:xlink="http://www.w3.org/1999/xlink" width="942" height="1080" viewBox="0 0 942 1080">
  <defs>
    <clipPath id="clip-path">
      <rect id="Rectangle_1293" data-name="Rectangle 1293" width="942" height="1080" fill="#004d71"/>
    </clipPath>
    <clipPath id="clip-path-2">
      <rect id="Rectangle_1292" data-name="Rectangle 1292" width="2162.384" height="1989.403" fill="#dae1e9"/>
    </clipPath>
  </defs>
  <g id="ldr_lb_gfx1" clip-path="url(#clip-path)">
    <g id="Group_897" data-name="Group 897" transform="matrix(0.951, -0.309, 0.309, 0.951, -1415.187, -248.974)" opacity="0.45">
      <g id="Group_896" data-name="Group 896" transform="translate(0 0.004)" clip-path="url(#clip-path-2)">
        <path id="Path_1323" data-name="Path 1323" d="M1111.215,873.038c21.551-115.155-54.33-225.977-169.485-247.528S715.753,679.84,694.2,795s54.33,225.977,169.485,247.527,225.977-54.33,247.527-169.485" transform="translate(178.57 160.802)" fill="#dae1e9"/>
        <path id="Path_1324" data-name="Path 1324" d="M1217.531,1194.537a67.035,67.035,0,0,0-24.077-7.92,68.747,68.747,0,0,0-12.706-.268,63.982,63.982,0,0,0-12.455,2.161,65.06,65.06,0,0,0-11.944,4.616,77.916,77.916,0,0,0-10.636,6.849,72.747,72.747,0,0,0-9.252,8.714,64.41,64.41,0,0,0-7.223,10.388,66.624,66.624,0,0,0-5.234,11.66,71.436,71.436,0,0,0-2.632,12.321,67.146,67.146,0,0,0-.374,12.635,59.5,59.5,0,0,0,2.2,12.624,64.57,64.57,0,0,0,4.576,11.783,67.774,67.774,0,0,0,6.791,10.736,63.337,63.337,0,0,0,8.764,9.154,61.45,61.45,0,0,0,22.058,12.464,63.278,63.278,0,0,0,12.363,2.781,67.83,67.83,0,0,0,12.7.278,72.2,72.2,0,0,0,12.554-2.1,65.077,65.077,0,0,0,11.851-4.683,60.113,60.113,0,0,0,10.731-6.783,70.517,70.517,0,0,0,9.093-8.671,66.732,66.732,0,0,0,7.387-10.443,64.388,64.388,0,0,0,5.071-11.605,71.714,71.714,0,0,0,2.79-12.366,68.382,68.382,0,0,0,.278-12.7,60.824,60.824,0,0,0-6.785-24.4,68.829,68.829,0,0,0-6.788-10.746,63.172,63.172,0,0,0-8.768-9.144,64.236,64.236,0,0,0-10.339-7.335" transform="translate(289.846 306.731)" fill="#dae1e9"/>
        <path id="Path_1325" data-name="Path 1325" d="M1360.405,340.831a64.858,64.858,0,1,1-39.292-94.395,65.691,65.691,0,0,1,14.751,6.1,64.8,64.8,0,0,1,24.541,88.294M1762.462,867l.009.123a64.514,64.514,0,1,1-.009-.123M673.35,332.186A64.856,64.856,0,1,1,577.881,318.8a66.867,66.867,0,0,1,5.528-4.158,64.753,64.753,0,0,1,89.942,17.541M392.959,985.93a64.8,64.8,0,1,1-129.245,9.544l-.009-.123a64.8,64.8,0,0,1,129.254-9.421m391.032,585.406a64.8,64.8,0,0,1-79.708,45.225,65.727,65.727,0,0,1-14.751-6.1,64.812,64.812,0,1,1,94.459-39.125" transform="translate(68.146 63.114)" fill="#dae1e9"/>
        <path id="Path_1326" data-name="Path 1326" d="M1217.531,1194.537a67.035,67.035,0,0,0-24.077-7.92,68.747,68.747,0,0,0-12.706-.268,63.982,63.982,0,0,0-12.455,2.161,65.06,65.06,0,0,0-11.944,4.616,77.916,77.916,0,0,0-10.636,6.849,72.747,72.747,0,0,0-9.252,8.714,64.41,64.41,0,0,0-7.223,10.388,66.624,66.624,0,0,0-5.234,11.66,71.436,71.436,0,0,0-2.632,12.321,67.146,67.146,0,0,0-.374,12.635,59.5,59.5,0,0,0,2.2,12.624,64.57,64.57,0,0,0,4.576,11.783,67.774,67.774,0,0,0,6.791,10.736,63.337,63.337,0,0,0,8.764,9.154,61.45,61.45,0,0,0,22.058,12.464,63.278,63.278,0,0,0,12.363,2.781,67.83,67.83,0,0,0,12.7.278,72.2,72.2,0,0,0,12.554-2.1,65.077,65.077,0,0,0,11.851-4.683,60.113,60.113,0,0,0,10.731-6.783,70.517,70.517,0,0,0,9.093-8.671,66.732,66.732,0,0,0,7.387-10.443,64.388,64.388,0,0,0,5.071-11.605,71.714,71.714,0,0,0,2.79-12.366,68.382,68.382,0,0,0,.278-12.7,60.824,60.824,0,0,0-6.785-24.4,68.829,68.829,0,0,0-6.788-10.746,63.172,63.172,0,0,0-8.768-9.144,64.236,64.236,0,0,0-10.339-7.335" transform="translate(289.846 306.731)" fill="#dae1e9"/>
        <path id="Path_1327" data-name="Path 1327" d="M1394.707,1330.708c-42.981-16.459-72.314-58.3-73.9-104.295a116.3,116.3,0,0,1,2.23-27.292c6.227-30.605,2.326-62.385-14.156-88.915l-7.613-12.254c-18.318-29.486-49.409-47.59-83.789-52.379a146.108,146.108,0,0,1-39.886-11.567c-54.9-24.7-89.538-82.536-84.876-142.556a145.414,145.414,0,0,1,199.837-124.284c55.911,22.368,92.471,79.036,90.33,139.217a146.1,146.1,0,0,1-7.287,40.92c-10.94,32.983-8.478,68.91,9.86,98.427l7.574,12.192c16.474,26.519,43.215,44.112,73.4,52.073A116.374,116.374,0,0,1,1492,1120.137c40.527,21.837,65.008,66.7,60.678,112.533a116.305,116.305,0,0,1-157.974,98.037" transform="translate(282.461 195.605)" fill="#dae1e9"/>
        <path id="Path_1328" data-name="Path 1328" d="M418.22,369.758c42.981,16.459,72.314,58.3,73.9,104.295a116.31,116.31,0,0,1-2.23,27.293c-6.228,30.605-2.326,62.385,14.155,88.915l7.613,12.254c18.318,29.486,49.409,47.59,83.79,52.379a146.106,146.106,0,0,1,39.886,11.566c54.9,24.7,89.538,82.536,84.875,142.556A145.413,145.413,0,0,1,520.374,933.3c-55.91-22.368-92.471-79.036-90.33-139.217a146.1,146.1,0,0,1,7.287-40.919c10.94-32.983,8.478-68.911-9.86-98.427L419.9,642.543c-16.474-26.518-43.215-44.112-73.4-52.073a116.367,116.367,0,0,1-25.571-10.142c-40.527-21.837-65.008-66.7-60.678-112.533A116.305,116.305,0,0,1,418.22,369.758" transform="translate(67.17 93.566)" fill="#dae1e9"/>
        <path id="Path_1329" data-name="Path 1329" d="M730.414,1513.46c-7.237-45.453,14.33-91.774,53.372-116.148a116.429,116.429,0,0,1,24.75-11.715c29.618-9.909,55.191-29.178,69.925-56.715l6.805-12.721c16.377-30.608,16.51-66.583,3.467-98.754a146.125,146.125,0,0,1-9.927-40.325c-6.059-59.9,26.71-118.81,81.019-144.781a145.413,145.413,0,0,1,207.551,110.921c8.584,59.6-22.212,119.6-75.4,147.838a146.073,146.073,0,0,1-39.082,14.146c-34.032,7.018-63.917,27.114-80.31,57.753l-6.772,12.655c-14.728,27.526-16.595,59.482-8.395,89.6a116.3,116.3,0,0,1,4,27.216c1.353,46.016-25.26,89.65-67.117,108.816a116.3,116.3,0,0,1-163.889-87.791" transform="translate(188.521 263.16)" fill="#dae1e9"/>
        <path id="Path_1330" data-name="Path 1330" d="M1078.177,189.514c7.237,45.453-14.33,91.774-53.372,116.148a116.436,116.436,0,0,1-24.75,11.715c-29.618,9.909-55.191,29.178-69.925,56.715l-6.805,12.721c-16.377,30.608-16.51,66.585-3.467,98.754a146.125,146.125,0,0,1,9.927,40.325c6.059,59.9-26.71,118.81-81.019,144.781A145.413,145.413,0,0,1,641.213,559.752c-8.584-59.6,22.212-119.6,75.4-147.837a146.045,146.045,0,0,1,39.082-14.148c34.032-7.018,63.916-27.114,80.31-57.753l6.772-12.655c14.728-27.527,16.594-59.481,8.395-89.6a116.305,116.305,0,0,1-4-27.216c-1.353-46.015,25.26-89.65,67.117-108.815a116.3,116.3,0,0,1,163.889,87.791" transform="translate(165.445 23.502)" fill="#dae1e9"/>
        <path id="Path_1331" data-name="Path 1331" d="M265.608,1003.023c35.744-28.993,86.644-33.477,127.273-11.852a116.422,116.422,0,0,1,22.521,15.576c23.39,20.7,52.863,33.208,84.079,32.2l14.418-.466c34.7-1.121,65.919-18.995,87.257-46.374a146.115,146.115,0,0,1,29.96-28.76c48.841-35.194,116.247-36.274,165.9-2.225a145.414,145.414,0,0,1,7.714,235.2c-47.326,37.235-114.683,40.564-165.732,8.62a146.071,146.071,0,0,1-31.792-26.772c-23.094-25.964-55.44-41.8-90.171-40.674l-14.347.463c-31.2,1.008-59.81,15.37-81.8,37.531a116.311,116.311,0,0,1-21.57,17.074c-39.174,24.179-90.269,22.948-127.8-3.718a116.3,116.3,0,0,1-5.915-185.827" transform="translate(57.438 242.103)" fill="#dae1e9"/>
        <path id="Path_1332" data-name="Path 1332" d="M1583.868,637.518c-35.744,28.993-86.644,33.477-127.273,11.852a116.418,116.418,0,0,1-22.521-15.576c-23.39-20.7-52.864-33.207-84.079-32.2l-14.418.466c-34.7,1.121-65.919,18.995-87.257,46.374a146.1,146.1,0,0,1-29.959,28.76c-48.841,35.194-116.248,36.274-165.9,2.225a145.414,145.414,0,0,1-7.714-235.2c47.326-37.235,114.683-40.564,165.732-8.62a146.072,146.072,0,0,1,31.792,26.772c23.094,25.964,55.44,41.8,90.171,40.674l14.346-.463c31.2-1.008,59.81-15.369,81.8-37.531a116.305,116.305,0,0,1,21.57-17.074c39.174-24.179,90.269-22.948,127.795,3.718a116.3,116.3,0,0,1,5.916,185.828" transform="translate(255.642 106.993)" fill="#dae1e9"/>
        <path id="Path_1333" data-name="Path 1333" d="M1383.371,1333.586a120.539,120.539,0,0,0-22.286-9.9,131.684,131.684,0,0,0-23.586-5.2,123.725,123.725,0,0,0-24.187-.544,119.146,119.146,0,0,0-23.946,4.06,122.573,122.573,0,0,0-43.05,21.824,122.157,122.157,0,0,0-17.514,16.627,119.787,119.787,0,0,0-23.823,42.163,122.137,122.137,0,0,0-5.2,23.583,131.66,131.66,0,0,0-.641,24.126,120.2,120.2,0,0,0,4.162,24.01,122.551,122.551,0,0,0,21.826,43.045,131.759,131.759,0,0,0,16.625,17.52,124.235,124.235,0,0,0,42.158,23.819,127.059,127.059,0,0,0,47.717,5.842,126.719,126.719,0,0,0,24-4.16,119.179,119.179,0,0,0,22.609-8.886,123.4,123.4,0,0,0,20.441-12.94,131.182,131.182,0,0,0,17.515-16.626,119.732,119.732,0,0,0,23.823-42.164,131.273,131.273,0,0,0,5.2-23.582,121.022,121.022,0,0,0-12.4-70.744,123.646,123.646,0,0,0-12.947-20.437,131.573,131.573,0,0,0-16.624-17.52,120.152,120.152,0,0,0-19.872-13.924" transform="translate(310.017 340.717)" fill="#dae1e9"/>
        <path id="Path_1334" data-name="Path 1334" d="M1595.377,184.65a123.779,123.779,0,1,1-46.853-168.561,123.714,123.714,0,0,1,46.853,168.561M633.055,138.306a123.768,123.768,0,1,1-182.185-25.6,126.333,126.333,0,0,1,10.461-7.873,123.644,123.644,0,0,1,171.724,33.472M247.091,1069.057A123.706,123.706,0,0,1,.351,1087.279l-.01-.125a123.706,123.706,0,0,1,246.75-18.1m546.63,829.521a123.443,123.443,0,1,1-58.3-140.6,123.714,123.714,0,0,1,58.3,140.6" transform="translate(0 -0.004)" fill="#dae1e9"/>
        <path id="Path_1335" data-name="Path 1335" d="M1383.371,1333.586a120.539,120.539,0,0,0-22.286-9.9,131.684,131.684,0,0,0-23.586-5.2,123.725,123.725,0,0,0-24.187-.544,119.146,119.146,0,0,0-23.946,4.06,122.573,122.573,0,0,0-43.05,21.824,122.157,122.157,0,0,0-17.514,16.627,119.787,119.787,0,0,0-23.823,42.163,122.137,122.137,0,0,0-5.2,23.583,131.66,131.66,0,0,0-.641,24.126,120.2,120.2,0,0,0,4.162,24.01,122.551,122.551,0,0,0,21.826,43.045,131.759,131.759,0,0,0,16.625,17.52,124.235,124.235,0,0,0,42.158,23.819,127.059,127.059,0,0,0,47.717,5.842,126.719,126.719,0,0,0,24-4.16,119.179,119.179,0,0,0,22.609-8.886,123.4,123.4,0,0,0,20.441-12.94,131.182,131.182,0,0,0,17.515-16.626,119.732,119.732,0,0,0,23.823-42.164,131.273,131.273,0,0,0,5.2-23.582,121.022,121.022,0,0,0-12.4-70.744,123.646,123.646,0,0,0-12.947-20.437,131.573,131.573,0,0,0-16.624-17.52,120.152,120.152,0,0,0-19.872-13.924" transform="translate(310.017 340.717)" fill="#dae1e9"/>
        <path id="Path_1336" data-name="Path 1336" d="M1521.856,758.642a123.694,123.694,0,0,1,246.727-18.083l.01.123a123.695,123.695,0,1,1-246.737,17.96" transform="translate(393.455 161.848)" fill="#dae1e9"/>
      </g>
    </g>
  </g>
</svg>
