<svg xmlns="http://www.w3.org/2000/svg" xmlns:xlink="http://www.w3.org/1999/xlink" width="600" height="580" viewBox="0 0 600 580">
  <defs>
    <clipPath id="clip-path">
      <rect id="Rectangle_1256" data-name="Rectangle 1256" width="600" height="580" transform="translate(1200 1267)" fill="#004d71"/>
    </clipPath>
    <clipPath id="clip-path-2">
      <rect id="Rectangle_1245" data-name="Rectangle 1245" width="1166.899" height="1073.204" transform="translate(0 0)" fill="#7a97ab"/>
    </clipPath>
  </defs>
  <g id="abt_logogfx" transform="translate(-1200 -1267)" clip-path="url(#clip-path)">
    <g id="Group_838" data-name="Group 838" transform="translate(1200 1245.003)" opacity="0.3">
      <g id="Group_837" data-name="Group 837" transform="translate(0 -0.003)" clip-path="url(#clip-path-2)">
        <path id="Path_1054" data-name="Path 1054" d="M692.456,714.773A114.46,114.46,0,1,0,826.069,623.4a114.46,114.46,0,0,0-133.613,91.377" transform="translate(-221.516 -199.358)" fill="#7a97ab"/>
        <path id="Path_1055" data-name="Path 1055" d="M512.4,356.536a34.837,34.837,0,0,0,32.926.806,36.466,36.466,0,0,0,5.8-3.661,35.005,35.005,0,0,0,4.942-4.726,35.826,35.826,0,0,0,3.986-5.635,34.6,34.6,0,0,0,2.744-6.261,33.712,33.712,0,0,0,1.506-6.673,36.627,36.627,0,0,0,.152-6.851,38.858,38.858,0,0,0-1.13-6.778,35,35,0,0,0-43.05-24.354,38.81,38.81,0,0,0-6.391,2.522,36.581,36.581,0,0,0-5.794,3.659,33.684,33.684,0,0,0-4.943,4.728,34.661,34.661,0,0,0-3.96,5.574,35.841,35.841,0,0,0-2.77,6.322,35.022,35.022,0,0,0-1.505,6.67,36.484,36.484,0,0,0-.153,6.853,34.833,34.833,0,0,0,17.645,27.8" transform="translate(-158.696 -93.405)" fill="#7a97ab"/>
        <path id="Path_1056" data-name="Path 1056" d="M480.426,933.574A35,35,0,1,1,501.6,984.519a35.414,35.414,0,0,1-7.957-3.3,34.967,34.967,0,0,1-13.216-47.649M263.632,649.545l0-.067a34.851,34.851,0,1,1,0,.067m587.512,288.9a34.995,34.995,0,1,1,51.51,7.25,36.344,36.344,0,0,1-2.984,2.242,34.94,34.94,0,0,1-48.526-9.492m151.488-352.666a34.964,34.964,0,1,1,69.741-5.112l.005.067a34.964,34.964,0,0,1-69.747,5.045M795.083,261.89a35,35,0,1,1,17.189,49.58,36.081,36.081,0,0,1-3.973-1.93,34.967,34.967,0,0,1-13.216-47.649" transform="translate(-84.546 -78.321)" fill="#7a97ab"/>
        <path id="Path_1057" data-name="Path 1057" d="M512.4,356.536a34.837,34.837,0,0,0,32.926.806,36.466,36.466,0,0,0,5.8-3.661,35.005,35.005,0,0,0,4.942-4.726,35.826,35.826,0,0,0,3.986-5.635,34.6,34.6,0,0,0,2.744-6.261,33.712,33.712,0,0,0,1.506-6.673,36.627,36.627,0,0,0,.152-6.851,38.858,38.858,0,0,0-1.13-6.778,35,35,0,0,0-43.05-24.354,38.81,38.81,0,0,0-6.391,2.522,36.581,36.581,0,0,0-5.794,3.659,33.684,33.684,0,0,0-4.943,4.728,34.661,34.661,0,0,0-3.96,5.574,35.841,35.841,0,0,0-2.77,6.322,35.022,35.022,0,0,0-1.505,6.67,36.484,36.484,0,0,0-.153,6.853,34.833,34.833,0,0,0,17.645,27.8" transform="translate(-158.696 -93.405)" fill="#7a97ab"/>
        <path id="Path_1058" data-name="Path 1058" d="M345.446,365.431c23.187,8.894,39,31.478,39.845,56.3a62.814,62.814,0,0,1-1.212,14.726c-3.369,16.512-1.273,33.661,7.611,47.981l4.1,6.614c9.875,15.916,26.646,25.694,45.2,28.289a78.834,78.834,0,0,1,21.518,6.253c29.616,13.344,48.288,44.562,45.754,76.946a78.462,78.462,0,0,1-107.866,67c-30.162-12.086-49.872-42.674-48.7-75.146a78.835,78.835,0,0,1,3.945-22.078c5.912-17.793,4.595-37.18-5.291-53.113l-4.083-6.581c-8.881-14.314-23.3-23.815-39.591-28.119a62.778,62.778,0,0,1-13.794-5.48c-21.861-11.795-35.058-36.011-32.707-60.739a62.756,62.756,0,0,1,85.269-52.852" transform="translate(-83.383 -115.862)" fill="#7a97ab"/>
        <path id="Path_1059" data-name="Path 1059" d="M1255.187,1066.09c-23.187-8.894-39-31.478-39.845-56.3a62.817,62.817,0,0,1,1.212-14.726c3.369-16.512,1.274-33.661-7.611-47.981l-4.1-6.614c-9.875-15.916-26.646-25.694-45.2-28.289a78.835,78.835,0,0,1-21.518-6.253c-29.616-13.345-48.289-44.562-45.754-76.947a78.462,78.462,0,0,1,107.865-67c30.161,12.086,49.873,42.674,48.7,75.146a78.82,78.82,0,0,1-3.945,22.078c-5.912,17.793-4.594,37.181,5.291,53.113l4.083,6.581c8.881,14.313,23.305,23.815,39.591,28.119a62.786,62.786,0,0,1,13.794,5.48c21.861,11.795,35.058,36.011,32.707,60.739a62.756,62.756,0,0,1-85.269,52.852" transform="translate(-350.379 -242.594)" fill="#7a97ab"/>
        <path id="Path_1060" data-name="Path 1060" d="M876.562,143.778c3.891,24.527-7.76,49.516-28.833,62.655a62.787,62.787,0,0,1-13.359,6.314c-15.984,5.338-29.788,15.727-37.747,30.582l-3.676,6.862c-8.846,16.51-8.928,35.923-1.9,53.285a78.865,78.865,0,0,1,5.344,21.762c3.251,32.32-14.448,64.1-43.761,78.1a78.462,78.462,0,0,1-111.957-59.913c-4.614-32.164,12.021-64.528,40.729-79.749a78.827,78.827,0,0,1,21.091-7.622c18.366-3.777,34.5-14.611,43.352-31.138l3.657-6.826c7.955-14.848,8.972-32.091,4.556-48.347a62.77,62.77,0,0,1-2.151-14.686c-.716-24.83,13.657-48.367,36.248-58.695a62.755,62.755,0,0,1,88.406,47.419" transform="translate(-205.295 -29.043)" fill="#7a97ab"/>
        <path id="Path_1061" data-name="Path 1061" d="M729.357,1284.685c-3.891-24.527,7.76-49.516,28.833-62.655a62.808,62.808,0,0,1,13.359-6.314c15.985-5.338,29.788-15.727,37.747-30.582l3.676-6.862c8.846-16.51,8.929-35.923,1.9-53.285a78.873,78.873,0,0,1-5.344-21.762c-3.251-32.32,14.448-64.1,43.761-78.1a78.463,78.463,0,0,1,111.958,59.913c4.614,32.164-12.022,64.528-40.729,79.749a78.818,78.818,0,0,1-21.091,7.622c-18.366,3.777-34.5,14.611-43.352,31.139l-3.657,6.827c-7.955,14.848-8.972,32.09-4.557,48.346a62.759,62.759,0,0,1,2.151,14.686c.716,24.829-13.657,48.366-36.248,58.695a62.756,62.756,0,0,1-88.406-47.419" transform="translate(-233.753 -326.353)" fill="#7a97ab"/>
        <path id="Path_1062" data-name="Path 1062" d="M1309.811,534.349c-19.3,15.633-46.762,18.038-68.678,6.357a62.79,62.79,0,0,1-12.147-8.412c-12.615-11.174-28.514-17.934-45.358-17.4l-7.78.247c-18.722.595-35.575,10.229-47.1,25a78.845,78.845,0,0,1-16.174,15.509c-26.365,18.976-62.736,19.538-89.515,1.151a78.463,78.463,0,0,1-4.092-126.915c25.548-20.077,61.893-21.853,89.428-4.6a78.82,78.82,0,0,1,17.147,14.454c12.453,14.017,29.9,22.57,48.642,21.975l7.741-.246c16.836-.534,32.277-8.275,44.147-20.227a62.791,62.791,0,0,1,11.643-9.206c21.145-13.035,48.715-12.355,68.955,2.044a62.756,62.756,0,0,1,3.136,100.272" transform="translate(-317.171 -132.651)" fill="#7a97ab"/>
        <path id="Path_1063" data-name="Path 1063" d="M245.434,971.538c19.3-15.633,46.762-18.038,68.677-6.357a62.794,62.794,0,0,1,12.148,8.412c12.614,11.174,28.514,17.934,45.358,17.4l7.78-.246c18.722-.595,35.575-10.229,47.1-25a78.843,78.843,0,0,1,16.175-15.509c26.365-18.976,62.736-19.538,89.515-1.151A78.463,78.463,0,0,1,536.275,1076c-25.547,20.078-61.893,21.854-89.428,4.6A78.835,78.835,0,0,1,429.7,1066.15c-12.453-14.017-29.9-22.57-48.642-21.975l-7.741.246c-16.836.535-32.277,8.275-44.147,20.227a62.766,62.766,0,0,1-11.643,9.206c-21.145,13.035-48.715,12.356-68.955-2.043a62.756,62.756,0,0,1-3.136-100.272" transform="translate(-71.203 -300.17)" fill="#7a97ab"/>
        <path id="Path_1064" data-name="Path 1064" d="M357.041,190.991a67.786,67.786,0,0,0,24.783,8.1,65.9,65.9,0,0,0,38.143-6.614,65.078,65.078,0,0,0,11.064-7.037,70.4,70.4,0,0,0,9.454-8.968,69.212,69.212,0,0,0,7.524-10.715,68.166,68.166,0,0,0,5.311-11.972,71,71,0,0,0,2.848-12.775,66.6,66.6,0,0,0,.3-13.051,67.482,67.482,0,0,0-2.183-12.923,70.616,70.616,0,0,0-4.788-12.2A66.958,66.958,0,0,0,442.521,91.8a73.4,73.4,0,0,0-9.026-9.49,66.6,66.6,0,0,0-22.685-12.833,70.77,70.77,0,0,0-12.724-2.815,65.218,65.218,0,0,0-13.109-.33,66.991,66.991,0,0,0-12.866,2.215,63.847,63.847,0,0,0-12.255,4.754,66.359,66.359,0,0,0-10.978,7.011,61.692,61.692,0,0,0-9.489,9.019,64.03,64.03,0,0,0-7.58,10.688,64.914,64.914,0,0,0-5.255,12,61.157,61.157,0,0,0-2.813,12.725,64.89,64.89,0,0,0-.386,13.077,68.146,68.146,0,0,0,6.966,25.122,65.021,65.021,0,0,0,7.067,11.01,61.528,61.528,0,0,0,8.966,9.456,65.008,65.008,0,0,0,10.685,7.578" transform="translate(-103.686 -21.221)" fill="#7a97ab"/>
        <path id="Path_1065" data-name="Path 1065" d="M305.791,973.535a66.793,66.793,0,1,1,25.233,90.968,66.773,66.773,0,0,1-25.233-90.968M.186,586.386l0-.067a66.6,66.6,0,1,1,0,.067M825.034,998.824a66.783,66.783,0,1,1,98.3,13.867,68.043,68.043,0,0,1-5.647,4.245,66.714,66.714,0,0,1-92.649-18.112m208.534-502.1a66.75,66.75,0,0,1,133.143-9.758l0,.067a66.75,66.75,0,1,1-133.148,9.692M745.1,33.893a66.784,66.784,0,1,1,32.755,94.624,67.735,67.735,0,0,1-7.525-3.657A66.753,66.753,0,0,1,745.1,33.893" transform="translate(0 0.003)" fill="#7a97ab"/>
        <path id="Path_1066" data-name="Path 1066" d="M357.041,190.991a67.786,67.786,0,0,0,24.783,8.1,65.9,65.9,0,0,0,38.143-6.614,65.078,65.078,0,0,0,11.064-7.037,70.4,70.4,0,0,0,9.454-8.968,69.212,69.212,0,0,0,7.524-10.715,68.166,68.166,0,0,0,5.311-11.972,71,71,0,0,0,2.848-12.775,66.6,66.6,0,0,0,.3-13.051,67.482,67.482,0,0,0-2.183-12.923,70.616,70.616,0,0,0-4.788-12.2A66.958,66.958,0,0,0,442.521,91.8a73.4,73.4,0,0,0-9.026-9.49,66.6,66.6,0,0,0-22.685-12.833,70.77,70.77,0,0,0-12.724-2.815,65.218,65.218,0,0,0-13.109-.33,66.991,66.991,0,0,0-12.866,2.215,63.847,63.847,0,0,0-12.255,4.754,66.359,66.359,0,0,0-10.978,7.011,61.692,61.692,0,0,0-9.489,9.019,64.03,64.03,0,0,0-7.58,10.688,64.914,64.914,0,0,0-5.255,12,61.157,61.157,0,0,0-2.813,12.725,64.89,64.89,0,0,0-.386,13.077,68.146,68.146,0,0,0,6.966,25.122,65.021,65.021,0,0,0,7.067,11.01,61.528,61.528,0,0,0,8.966,9.456,65.008,65.008,0,0,0,10.685,7.578" transform="translate(-103.686 -21.221)" fill="#7a97ab"/>
      </g>
    </g>
  </g>
</svg>
