<svg xmlns="http://www.w3.org/2000/svg" xmlns:xlink="http://www.w3.org/1999/xlink" width="390" height="240" viewBox="0 0 390 240">
  <defs>
    <clipPath id="clip-path">
      <rect id="Rectangle_1256" data-name="Rectangle 1256" width="240" height="390" transform="translate(1368.88 1272)" fill="#004d71"/>
    </clipPath>
    <clipPath id="clip-path-2">
      <rect id="Rectangle_1245" data-name="Rectangle 1245" width="492.417" height="452.878" transform="translate(0 0)" fill="#7a97ab"/>
    </clipPath>
  </defs>
  <g id="abt_logogfx_m" transform="translate(-1272 1608.88) rotate(-90)" clip-path="url(#clip-path)">
    <g id="Group_838" data-name="Group 838" transform="translate(1369 1252.008)" opacity="0.3">
      <g id="Group_837" data-name="Group 837" transform="translate(0 0)" clip-path="url(#clip-path-2)">
        <path id="Path_1054" data-name="Path 1054" d="M691.308,660.808a48.3,48.3,0,1,0,56.383-38.56,48.3,48.3,0,0,0-56.383,38.56" transform="translate(-492.578 -443.31)" fill="#7a97ab"/>
        <path id="Path_1055" data-name="Path 1055" d="M502.147,318.744a14.7,14.7,0,0,0,13.894.34,15.391,15.391,0,0,0,2.446-1.545,14.771,14.771,0,0,0,2.085-1.994,15.122,15.122,0,0,0,1.682-2.378,14.6,14.6,0,0,0,1.158-2.642,14.228,14.228,0,0,0,.636-2.816,15.462,15.462,0,0,0,.064-2.891,16.4,16.4,0,0,0-.477-2.86,14.768,14.768,0,0,0-18.167-10.277,16.379,16.379,0,0,0-2.7,1.064,15.439,15.439,0,0,0-2.445,1.544,14.215,14.215,0,0,0-2.086,2,14.627,14.627,0,0,0-1.671,2.352A15.122,15.122,0,0,0,495.4,301.3a14.785,14.785,0,0,0-.635,2.815,15.4,15.4,0,0,0-.065,2.892,14.7,14.7,0,0,0,7.446,11.733" transform="translate(-352.888 -207.706)" fill="#7a97ab"/>
        <path id="Path_1056" data-name="Path 1056" d="M355.059,535.07a14.768,14.768,0,1,1,8.935,21.5,14.946,14.946,0,0,1-3.358-1.391,14.756,14.756,0,0,1-5.577-20.107M263.574,415.213l0-.028a14.695,14.695,0,1,1,0,.028M511.5,537.124a14.767,14.767,0,1,1,21.736,3.06,15.344,15.344,0,0,1-1.259.946,14.744,14.744,0,0,1-20.477-4.006M575.423,388.3a14.754,14.754,0,1,1,29.43-2.157l0,.028a14.755,14.755,0,0,1-29.432,2.129M487.84,251.628a14.768,14.768,0,1,1,7.253,20.922,15.228,15.228,0,0,1-1.676-.814,14.756,14.756,0,0,1-5.577-20.107" transform="translate(-188.002 -174.164)" fill="#7a97ab"/>
        <path id="Path_1057" data-name="Path 1057" d="M502.147,318.744a14.7,14.7,0,0,0,13.894.34,15.391,15.391,0,0,0,2.446-1.545,14.771,14.771,0,0,0,2.085-1.994,15.122,15.122,0,0,0,1.682-2.378,14.6,14.6,0,0,0,1.158-2.642,14.228,14.228,0,0,0,.636-2.816,15.462,15.462,0,0,0,.064-2.891,16.4,16.4,0,0,0-.477-2.86,14.768,14.768,0,0,0-18.167-10.277,16.379,16.379,0,0,0-2.7,1.064,15.439,15.439,0,0,0-2.445,1.544,14.215,14.215,0,0,0-2.086,2,14.627,14.627,0,0,0-1.671,2.352A15.122,15.122,0,0,0,495.4,301.3a14.785,14.785,0,0,0-.635,2.815,15.4,15.4,0,0,0-.065,2.892,14.7,14.7,0,0,0,7.446,11.733" transform="translate(-352.888 -207.706)" fill="#7a97ab"/>
        <path id="Path_1058" data-name="Path 1058" d="M296,362.956a26.543,26.543,0,0,1,16.3,29.971,27.658,27.658,0,0,0,3.212,20.247l1.732,2.791A26.417,26.417,0,0,0,336.322,427.9a33.1,33.1,0,1,1-36.016,22.355,26.454,26.454,0,0,0-2.233-22.413l-1.723-2.777A27.63,27.63,0,0,0,279.644,413.2,26.465,26.465,0,1,1,296,362.956" transform="translate(-185.416 -257.641)" fill="#7a97ab"/>
        <path id="Path_1059" data-name="Path 1059" d="M1160.944,886.956a26.542,26.542,0,0,1-16.3-29.971,27.656,27.656,0,0,0-3.212-20.247l-1.732-2.791a26.417,26.417,0,0,0-19.072-11.937,33.1,33.1,0,1,1,36.016-22.356,26.454,26.454,0,0,0,2.233,22.413l1.723,2.777a27.631,27.631,0,0,0,16.707,11.866,26.465,26.465,0,1,1-16.359,50.247" transform="translate(-779.127 -539.451)" fill="#7a97ab"/>
        <path id="Path_1060" data-name="Path 1060" d="M739.773,113a26.545,26.545,0,0,1-17.8,29.1,27.656,27.656,0,0,0-15.929,12.905l-1.551,2.9a26.416,26.416,0,0,0-.8,22.486,33.1,33.1,0,1,1-37.369-20.013,26.456,26.456,0,0,0,18.294-13.14l1.543-2.881a27.632,27.632,0,0,0,1.923-20.4A26.465,26.465,0,1,1,739.773,113" transform="translate(-456.507 -64.587)" fill="#7a97ab"/>
        <path id="Path_1061" data-name="Path 1061" d="M728.927,1130.109a26.545,26.545,0,0,1,17.8-29.1,27.655,27.655,0,0,0,15.929-12.905l1.551-2.9a26.415,26.415,0,0,0,.8-22.485,33.1,33.1,0,1,1,37.369,20.012,26.456,26.456,0,0,0-18.294,13.14l-1.543,2.881a27.631,27.631,0,0,0-1.923,20.4,26.465,26.465,0,1,1-51.695,10.955" transform="translate(-519.789 -725.705)" fill="#7a97ab"/>
        <path id="Path_1062" data-name="Path 1062" d="M1124.165,464.487a26.545,26.545,0,0,1-34.107-.867,27.655,27.655,0,0,0-19.141-7.342l-3.283.1a26.417,26.417,0,0,0-19.874,10.549,33.1,33.1,0,1,1-1.353-42.368,26.456,26.456,0,0,0,20.527,9.273l3.267-.1a27.63,27.63,0,0,0,18.63-8.536,26.465,26.465,0,1,1,35.335,39.291" transform="translate(-705.283 -294.976)" fill="#7a97ab"/>
        <path id="Path_1063" data-name="Path 1063" d="M231.854,950.791a26.545,26.545,0,0,1,34.107.867A27.655,27.655,0,0,0,285.1,959l3.283-.1a26.417,26.417,0,0,0,19.874-10.549,33.1,33.1,0,1,1,1.353,42.369,26.455,26.455,0,0,0-20.526-9.273l-3.267.1a27.631,27.631,0,0,0-18.63,8.536,26.465,26.465,0,1,1-35.335-39.291" transform="translate(-158.331 -667.482)" fill="#7a97ab"/>
        <path id="Path_1064" data-name="Path 1064" d="M337.475,118.833a28.6,28.6,0,0,0,10.458,3.419,27.81,27.81,0,0,0,16.1-2.791,27.462,27.462,0,0,0,4.669-2.97,29.706,29.706,0,0,0,3.989-3.784,29.206,29.206,0,0,0,3.175-4.521,28.767,28.767,0,0,0,2.241-5.052,29.963,29.963,0,0,0,1.2-5.391,28.1,28.1,0,0,0,.127-5.507,28.475,28.475,0,0,0-.921-5.453,29.8,29.8,0,0,0-2.02-5.149,28.252,28.252,0,0,0-2.944-4.656,30.975,30.975,0,0,0-3.809-4,28.1,28.1,0,0,0-9.573-5.415A29.863,29.863,0,0,0,354.8,66.37a27.521,27.521,0,0,0-5.532-.139,28.269,28.269,0,0,0-5.429.935,26.943,26.943,0,0,0-5.172,2.006,28,28,0,0,0-4.632,2.958,26.032,26.032,0,0,0-4,3.806,27.021,27.021,0,0,0-3.2,4.51,27.39,27.39,0,0,0-2.217,5.063,25.806,25.806,0,0,0-1.187,5.37,27.38,27.38,0,0,0-.163,5.518A28.758,28.758,0,0,0,326.2,107a27.439,27.439,0,0,0,2.982,4.646,25.963,25.963,0,0,0,3.783,3.99,27.431,27.431,0,0,0,4.509,3.2" transform="translate(-230.562 -47.192)" fill="#7a97ab"/>
        <path id="Path_1065" data-name="Path 1065" d="M129.04,410.818a28.186,28.186,0,1,1,10.648,38.387,28.177,28.177,0,0,1-10.648-38.387M.078,247.446l0-.028a28.1,28.1,0,1,1,0,.028M348.154,421.49a28.182,28.182,0,1,1,41.48,5.852,28.707,28.707,0,0,1-2.383,1.791,28.152,28.152,0,0,1-39.1-7.643m88-211.879a28.168,28.168,0,0,1,56.185-4.118l0,.028a28.168,28.168,0,1,1-56.187,4.09M314.424,14.3a28.182,28.182,0,1,1,13.822,39.93,28.581,28.581,0,0,1-3.175-1.543A28.169,28.169,0,0,1,314.424,14.3" transform="translate(0 0.003)" fill="#7a97ab"/>
        <path id="Path_1066" data-name="Path 1066" d="M337.475,118.833a28.6,28.6,0,0,0,10.458,3.419,27.81,27.81,0,0,0,16.1-2.791,27.462,27.462,0,0,0,4.669-2.97,29.706,29.706,0,0,0,3.989-3.784,29.206,29.206,0,0,0,3.175-4.521,28.767,28.767,0,0,0,2.241-5.052,29.963,29.963,0,0,0,1.2-5.391,28.1,28.1,0,0,0,.127-5.507,28.475,28.475,0,0,0-.921-5.453,29.8,29.8,0,0,0-2.02-5.149,28.252,28.252,0,0,0-2.944-4.656,30.975,30.975,0,0,0-3.809-4,28.1,28.1,0,0,0-9.573-5.415A29.863,29.863,0,0,0,354.8,66.37a27.521,27.521,0,0,0-5.532-.139,28.269,28.269,0,0,0-5.429.935,26.943,26.943,0,0,0-5.172,2.006,28,28,0,0,0-4.632,2.958,26.032,26.032,0,0,0-4,3.806,27.021,27.021,0,0,0-3.2,4.51,27.39,27.39,0,0,0-2.217,5.063,25.806,25.806,0,0,0-1.187,5.37,27.38,27.38,0,0,0-.163,5.518A28.758,28.758,0,0,0,326.2,107a27.439,27.439,0,0,0,2.982,4.646,25.963,25.963,0,0,0,3.783,3.99,27.431,27.431,0,0,0,4.509,3.2" transform="translate(-230.562 -47.192)" fill="#7a97ab"/>
      </g>
    </g>
  </g>
</svg>
